G04 #@! TF.FileFunction,Copper,L2,Bot,Signal*
%FSLAX46Y46*%
G04 Gerber Fmt 4.6, Leading zero omitted, Abs format (unit mm)*
G04 Created by KiCad (PCBNEW 4.0.7) date 04/29/18 15:45:17*
%MOMM*%
%LPD*%
G01*
G04 APERTURE LIST*
%ADD10C,0.100000*%
%ADD11C,1.600000*%
%ADD12R,1.600000X1.600000*%
%ADD13O,1.600000X1.600000*%
%ADD14R,1.700000X1.700000*%
%ADD15O,1.700000X1.700000*%
%ADD16C,1.700000*%
%ADD17C,2.600000*%
%ADD18C,3.000000*%
%ADD19C,1.000000*%
%ADD20C,1.000000*%
%ADD21C,2.000000*%
%ADD22C,0.270000*%
%ADD23C,0.254000*%
G04 APERTURE END LIST*
D10*
D11*
X87122000Y-149733000D03*
X82122000Y-149733000D03*
X104902000Y-149733000D03*
X99902000Y-149733000D03*
X122047000Y-149733000D03*
X117047000Y-149733000D03*
X139192000Y-149733000D03*
X134192000Y-149733000D03*
X178562000Y-161798000D03*
X173562000Y-161798000D03*
X196342000Y-161798000D03*
X191342000Y-161798000D03*
X337312000Y-130683000D03*
X332312000Y-130683000D03*
X150622000Y-149733000D03*
X155622000Y-149733000D03*
D12*
X208407000Y-133858000D03*
D13*
X216027000Y-156718000D03*
X208407000Y-136398000D03*
X216027000Y-154178000D03*
X208407000Y-138938000D03*
X216027000Y-151638000D03*
X208407000Y-141478000D03*
X216027000Y-149098000D03*
X208407000Y-144018000D03*
X216027000Y-146558000D03*
X208407000Y-146558000D03*
X216027000Y-144018000D03*
X208407000Y-149098000D03*
X216027000Y-141478000D03*
X208407000Y-151638000D03*
X216027000Y-138938000D03*
X208407000Y-154178000D03*
X216027000Y-136398000D03*
X208407000Y-156718000D03*
X216027000Y-133858000D03*
D12*
X189992000Y-133858000D03*
D13*
X197612000Y-156718000D03*
X189992000Y-136398000D03*
X197612000Y-154178000D03*
X189992000Y-138938000D03*
X197612000Y-151638000D03*
X189992000Y-141478000D03*
X197612000Y-149098000D03*
X189992000Y-144018000D03*
X197612000Y-146558000D03*
X189992000Y-146558000D03*
X197612000Y-144018000D03*
X189992000Y-149098000D03*
X197612000Y-141478000D03*
X189992000Y-151638000D03*
X197612000Y-138938000D03*
X189992000Y-154178000D03*
X197612000Y-136398000D03*
X189992000Y-156718000D03*
X197612000Y-133858000D03*
D12*
X172212000Y-133858000D03*
D13*
X179832000Y-156718000D03*
X172212000Y-136398000D03*
X179832000Y-154178000D03*
X172212000Y-138938000D03*
X179832000Y-151638000D03*
X172212000Y-141478000D03*
X179832000Y-149098000D03*
X172212000Y-144018000D03*
X179832000Y-146558000D03*
X172212000Y-146558000D03*
X179832000Y-144018000D03*
X172212000Y-149098000D03*
X179832000Y-141478000D03*
X172212000Y-151638000D03*
X179832000Y-138938000D03*
X172212000Y-154178000D03*
X179832000Y-136398000D03*
X172212000Y-156718000D03*
X179832000Y-133858000D03*
D12*
X80772000Y-127508000D03*
D13*
X88392000Y-145288000D03*
X80772000Y-130048000D03*
X88392000Y-142748000D03*
X80772000Y-132588000D03*
X88392000Y-140208000D03*
X80772000Y-135128000D03*
X88392000Y-137668000D03*
X80772000Y-137668000D03*
X88392000Y-135128000D03*
X80772000Y-140208000D03*
X88392000Y-132588000D03*
X80772000Y-142748000D03*
X88392000Y-130048000D03*
X80772000Y-145288000D03*
X88392000Y-127508000D03*
D12*
X132842000Y-130048000D03*
D13*
X140462000Y-145288000D03*
X132842000Y-132588000D03*
X140462000Y-142748000D03*
X132842000Y-135128000D03*
X140462000Y-140208000D03*
X132842000Y-137668000D03*
X140462000Y-137668000D03*
X132842000Y-140208000D03*
X140462000Y-135128000D03*
X132842000Y-142748000D03*
X140462000Y-132588000D03*
X132842000Y-145288000D03*
X140462000Y-130048000D03*
D12*
X153797000Y-130048000D03*
D13*
X161417000Y-145288000D03*
X153797000Y-132588000D03*
X161417000Y-142748000D03*
X153797000Y-135128000D03*
X161417000Y-140208000D03*
X153797000Y-137668000D03*
X161417000Y-137668000D03*
X153797000Y-140208000D03*
X161417000Y-135128000D03*
X153797000Y-142748000D03*
X161417000Y-132588000D03*
X153797000Y-145288000D03*
X161417000Y-130048000D03*
D12*
X98552000Y-130048000D03*
D13*
X106172000Y-145288000D03*
X98552000Y-132588000D03*
X106172000Y-142748000D03*
X98552000Y-135128000D03*
X106172000Y-140208000D03*
X98552000Y-137668000D03*
X106172000Y-137668000D03*
X98552000Y-140208000D03*
X106172000Y-135128000D03*
X98552000Y-142748000D03*
X106172000Y-132588000D03*
X98552000Y-145288000D03*
X106172000Y-130048000D03*
D12*
X115697000Y-127508000D03*
D13*
X123317000Y-145288000D03*
X115697000Y-130048000D03*
X123317000Y-142748000D03*
X115697000Y-132588000D03*
X123317000Y-140208000D03*
X115697000Y-135128000D03*
X123317000Y-137668000D03*
X115697000Y-137668000D03*
X123317000Y-135128000D03*
X115697000Y-140208000D03*
X123317000Y-132588000D03*
X115697000Y-142748000D03*
X123317000Y-130048000D03*
X115697000Y-145288000D03*
X123317000Y-127508000D03*
D12*
X348742000Y-133858000D03*
D11*
X356362000Y-133858000D03*
X356362000Y-149098000D03*
X348742000Y-149098000D03*
D14*
X163322000Y-161798000D03*
D15*
X160782000Y-161798000D03*
X158242000Y-161798000D03*
X155702000Y-161798000D03*
X153162000Y-161798000D03*
X150622000Y-161798000D03*
X148082000Y-161798000D03*
X145542000Y-161798000D03*
X143002000Y-161798000D03*
X140462000Y-161798000D03*
X137922000Y-161798000D03*
X135382000Y-161798000D03*
X132842000Y-161798000D03*
X130302000Y-161798000D03*
X127762000Y-161798000D03*
X125222000Y-161798000D03*
X122682000Y-161798000D03*
X120142000Y-161798000D03*
X117602000Y-161798000D03*
X115062000Y-161798000D03*
D12*
X225552000Y-127508000D03*
D13*
X233172000Y-145288000D03*
X225552000Y-130048000D03*
X233172000Y-142748000D03*
X225552000Y-132588000D03*
X233172000Y-140208000D03*
X225552000Y-135128000D03*
X233172000Y-137668000D03*
X225552000Y-137668000D03*
X233172000Y-135128000D03*
X225552000Y-140208000D03*
X233172000Y-132588000D03*
X225552000Y-142748000D03*
X233172000Y-130048000D03*
X225552000Y-145288000D03*
X233172000Y-127508000D03*
D14*
X310007000Y-128778000D03*
D16*
X310007000Y-131318000D03*
X307467000Y-128778000D03*
X307467000Y-131318000D03*
X304927000Y-128778000D03*
X304927000Y-131318000D03*
X302387000Y-128778000D03*
X302387000Y-131318000D03*
X299847000Y-128778000D03*
X299847000Y-131318000D03*
X297307000Y-128778000D03*
X297307000Y-131318000D03*
X294767000Y-128778000D03*
X294767000Y-131318000D03*
X292227000Y-128778000D03*
X292227000Y-131318000D03*
X289687000Y-128778000D03*
X289687000Y-131318000D03*
X287147000Y-128778000D03*
X287147000Y-131318000D03*
X284607000Y-128778000D03*
X284607000Y-131318000D03*
X282067000Y-128778000D03*
X282067000Y-131318000D03*
X279527000Y-128778000D03*
X279527000Y-131318000D03*
X276987000Y-128778000D03*
X276987000Y-131318000D03*
X274447000Y-128778000D03*
X274447000Y-131318000D03*
X271907000Y-128778000D03*
X271907000Y-131318000D03*
X269367000Y-128778000D03*
X269367000Y-131318000D03*
X266827000Y-128778000D03*
X266827000Y-131318000D03*
X264287000Y-128778000D03*
X264287000Y-131318000D03*
X261747000Y-128778000D03*
X261747000Y-131318000D03*
X259207000Y-128778000D03*
X259207000Y-131318000D03*
X256667000Y-128778000D03*
X256667000Y-131318000D03*
X254127000Y-128778000D03*
X254127000Y-131318000D03*
X251587000Y-128778000D03*
X251587000Y-131318000D03*
X249047000Y-128778000D03*
X249047000Y-131318000D03*
D12*
X122047000Y-156718000D03*
D11*
X117047000Y-156718000D03*
D12*
X214757000Y-161798000D03*
D11*
X209757000Y-161798000D03*
D12*
X337312000Y-135763000D03*
D11*
X332312000Y-135763000D03*
D12*
X94742000Y-127508000D03*
D13*
X94742000Y-137668000D03*
D11*
X143637000Y-140208000D03*
D13*
X143637000Y-130048000D03*
D11*
X153797000Y-124968000D03*
D13*
X143637000Y-124968000D03*
D11*
X109347000Y-140208000D03*
D13*
X109347000Y-130048000D03*
D11*
X341122000Y-140843000D03*
D13*
X341122000Y-130683000D03*
D11*
X347472000Y-155448000D03*
D13*
X357632000Y-155448000D03*
D12*
X91567000Y-127508000D03*
D13*
X91567000Y-137668000D03*
D17*
X317627000Y-152908000D03*
X306197000Y-152908000D03*
X311912000Y-152908000D03*
D18*
X317627000Y-145923000D03*
X317627000Y-140843000D03*
X311912000Y-145923000D03*
X311912000Y-140843000D03*
D19*
X120777000Y-134493000D03*
X158877000Y-153543000D03*
X230632000Y-164338000D03*
X174117000Y-149098000D03*
X118237000Y-130048000D03*
X223012000Y-117983000D03*
X161417000Y-117983000D03*
X225552000Y-159893000D03*
X210947000Y-117983000D03*
X188722000Y-117983000D03*
X177292000Y-117983000D03*
X136652000Y-117983000D03*
X115697000Y-117983000D03*
X97282000Y-117983000D03*
X83312000Y-117983000D03*
X203962000Y-140208000D03*
X220472000Y-123063000D03*
X192532000Y-156718000D03*
X219202000Y-131953000D03*
X193802000Y-132588000D03*
X102362000Y-121793000D03*
X186817000Y-121793000D03*
X163322000Y-149733000D03*
X168402000Y-159893000D03*
X185547000Y-126873000D03*
X173482000Y-131318000D03*
X238252000Y-125603000D03*
X174752000Y-124333000D03*
X182372000Y-119253000D03*
X113157000Y-119253000D03*
X159512000Y-119253000D03*
X149352000Y-144018000D03*
X181102000Y-129413000D03*
X74422000Y-152908000D03*
X75692000Y-156718000D03*
X76962000Y-154178000D03*
X78232000Y-155448000D03*
X189992000Y-120523000D03*
X111887000Y-133858000D03*
X235077000Y-124333000D03*
X239522000Y-134493000D03*
X235077000Y-128778000D03*
X242062000Y-137033000D03*
X244602000Y-139573000D03*
D20*
X122047000Y-156718000D02*
X122047000Y-149733000D01*
X122047000Y-156718000D02*
X122047000Y-158623000D01*
X120142000Y-160528000D02*
X122047000Y-158623000D01*
X120142000Y-160528000D02*
X120142000Y-161798000D01*
X143637000Y-124968000D02*
X143637000Y-130048000D01*
X161417000Y-130048000D02*
X158877000Y-132588000D01*
X158877000Y-132588000D02*
X158877000Y-153543000D01*
X233172000Y-127508000D02*
X230632000Y-130048000D01*
X230632000Y-130048000D02*
X230632000Y-164338000D01*
X214757000Y-161798000D02*
X213487000Y-160528000D01*
X213487000Y-136398000D02*
X216027000Y-133858000D01*
X213487000Y-160528000D02*
X213487000Y-136398000D01*
X196342000Y-161798000D02*
X195072000Y-160528000D01*
X195072000Y-136398000D02*
X197612000Y-133858000D01*
X195072000Y-160528000D02*
X195072000Y-136398000D01*
X178562000Y-161798000D02*
X177292000Y-160528000D01*
X177292000Y-136398000D02*
X179832000Y-133858000D01*
X177292000Y-160528000D02*
X177292000Y-136398000D01*
X139192000Y-149733000D02*
X137922000Y-148463000D01*
X137922000Y-132588000D02*
X140462000Y-130048000D01*
X137922000Y-148463000D02*
X137922000Y-132588000D01*
X122047000Y-149733000D02*
X120777000Y-148463000D01*
X120777000Y-148463000D02*
X120777000Y-134493000D01*
X120777000Y-130048000D02*
X123317000Y-127508000D01*
X120777000Y-134493000D02*
X120777000Y-130048000D01*
X98552000Y-137668000D02*
X103632000Y-137668000D01*
X106172000Y-135128000D02*
X103632000Y-135128000D01*
X106172000Y-140208000D02*
X103632000Y-140208000D01*
X104902000Y-149733000D02*
X103632000Y-148463000D01*
X103632000Y-132588000D02*
X106172000Y-130048000D01*
X103632000Y-148463000D02*
X103632000Y-140208000D01*
X103632000Y-140208000D02*
X103632000Y-137668000D01*
X103632000Y-137668000D02*
X103632000Y-135128000D01*
X103632000Y-135128000D02*
X103632000Y-132588000D01*
X87122000Y-149733000D02*
X85852000Y-148463000D01*
X85852000Y-130048000D02*
X88392000Y-127508000D01*
X85852000Y-148463000D02*
X85852000Y-130048000D01*
X117047000Y-156718000D02*
X117047000Y-149733000D01*
X115062000Y-160528000D02*
X116967000Y-158623000D01*
X115062000Y-161798000D02*
X115062000Y-160528000D01*
X116967000Y-158623000D02*
X116967000Y-156798000D01*
X116967000Y-156798000D02*
X117047000Y-156718000D01*
X223012000Y-142748000D02*
X223012000Y-117983000D01*
X223012000Y-142748000D02*
X225552000Y-145288000D01*
X153797000Y-145288000D02*
X156972000Y-142113000D01*
X161417000Y-126873000D02*
X161417000Y-117983000D01*
X156972000Y-131318000D02*
X161417000Y-126873000D01*
X156972000Y-142113000D02*
X156972000Y-131318000D01*
X155622000Y-149733000D02*
X153797000Y-147908000D01*
X153797000Y-147908000D02*
X153797000Y-145288000D01*
X225552000Y-145288000D02*
X225552000Y-159893000D01*
X208407000Y-156718000D02*
X210947000Y-154178000D01*
X210947000Y-154178000D02*
X210947000Y-117983000D01*
X209757000Y-161798000D02*
X208407000Y-160448000D01*
X208407000Y-160448000D02*
X208407000Y-156718000D01*
X189992000Y-156718000D02*
X188087000Y-154813000D01*
X188087000Y-118618000D02*
X188722000Y-117983000D01*
X188087000Y-154813000D02*
X188087000Y-118618000D01*
X191342000Y-161798000D02*
X189992000Y-160448000D01*
X189992000Y-160448000D02*
X189992000Y-156718000D01*
X172212000Y-156718000D02*
X174117000Y-154813000D01*
X177292000Y-133858000D02*
X177292000Y-117983000D01*
X176022000Y-135128000D02*
X177292000Y-133858000D01*
X176022000Y-147193000D02*
X176022000Y-135128000D01*
X174117000Y-149098000D02*
X176022000Y-147193000D01*
X174117000Y-154813000D02*
X174117000Y-149098000D01*
X173562000Y-161798000D02*
X172212000Y-160528000D01*
X172212000Y-160528000D02*
X172212000Y-156718000D01*
X115062000Y-161798000D02*
X116967000Y-163703000D01*
X172212000Y-163703000D02*
X173562000Y-161798000D01*
X116967000Y-163703000D02*
X172212000Y-163703000D01*
X136017000Y-142113000D02*
X136017000Y-118618000D01*
X136017000Y-118618000D02*
X136652000Y-117983000D01*
X132842000Y-145288000D02*
X136017000Y-142113000D01*
X115697000Y-127508000D02*
X115697000Y-117983000D01*
X96647000Y-143383000D02*
X96647000Y-118618000D01*
X98552000Y-145288000D02*
X96647000Y-143383000D01*
X96647000Y-118618000D02*
X97282000Y-117983000D01*
X83312000Y-142748000D02*
X83312000Y-117983000D01*
X80772000Y-145288000D02*
X83312000Y-142748000D01*
X134192000Y-149733000D02*
X132842000Y-148383000D01*
X132842000Y-148383000D02*
X132842000Y-145288000D01*
X115697000Y-145288000D02*
X118237000Y-142748000D01*
X118237000Y-130048000D02*
X115697000Y-127508000D01*
X118237000Y-142748000D02*
X118237000Y-130048000D01*
X117047000Y-149733000D02*
X117047000Y-146638000D01*
X117047000Y-146638000D02*
X115697000Y-145288000D01*
X99902000Y-149733000D02*
X98552000Y-148383000D01*
X98552000Y-148383000D02*
X98552000Y-145288000D01*
X82122000Y-149733000D02*
X80772000Y-148383000D01*
X80772000Y-148383000D02*
X80772000Y-145288000D01*
X337312000Y-135763000D02*
X337312000Y-130683000D01*
X337312000Y-130683000D02*
X341122000Y-130683000D01*
X341122000Y-130683000D02*
X353187000Y-130683000D01*
X353187000Y-130683000D02*
X356362000Y-133858000D01*
X332232000Y-138303000D02*
X344297000Y-138303000D01*
X332232000Y-135843000D02*
X332232000Y-138303000D01*
X348742000Y-140843000D02*
X348742000Y-149098000D01*
X346202000Y-138303000D02*
X348742000Y-140843000D01*
X344297000Y-138303000D02*
X346202000Y-138303000D01*
X332312000Y-135763000D02*
X332232000Y-135843000D01*
X311912000Y-140843000D02*
X311912000Y-137668000D01*
X313817000Y-135763000D02*
X332312000Y-135763000D01*
X311912000Y-137668000D02*
X313817000Y-135763000D01*
X332312000Y-135763000D02*
X332312000Y-130683000D01*
D21*
X311912000Y-140843000D02*
X311912000Y-145923000D01*
X311912000Y-145923000D02*
X311912000Y-152908000D01*
D22*
X150622000Y-149733000D02*
X150622000Y-133223000D01*
X150622000Y-133223000D02*
X153797000Y-130048000D01*
X153797000Y-124968000D02*
X153797000Y-130048000D01*
X208407000Y-133858000D02*
X203962000Y-138303000D01*
X203962000Y-138303000D02*
X203962000Y-140208000D01*
X161417000Y-140208000D02*
X170942000Y-140208000D01*
X170942000Y-140208000D02*
X172212000Y-138938000D01*
X216027000Y-156718000D02*
X220472000Y-152273000D01*
X220472000Y-152273000D02*
X220472000Y-123063000D01*
X197612000Y-141478000D02*
X204597000Y-141478000D01*
X205867000Y-138938000D02*
X208407000Y-136398000D01*
X205867000Y-140208000D02*
X205867000Y-138938000D01*
X204597000Y-141478000D02*
X205867000Y-140208000D01*
X189992000Y-151638000D02*
X192532000Y-154178000D01*
X192532000Y-154178000D02*
X192532000Y-156718000D01*
X193802000Y-132588000D02*
X192532000Y-133858000D01*
X192532000Y-133858000D02*
X192532000Y-138938000D01*
X219202000Y-140843000D02*
X219202000Y-131953000D01*
X216027000Y-144018000D02*
X219202000Y-140843000D01*
X192532000Y-138938000D02*
X189992000Y-141478000D01*
X179832000Y-154178000D02*
X186817000Y-147193000D01*
X102362000Y-128778000D02*
X98552000Y-132588000D01*
X102362000Y-121793000D02*
X102362000Y-128778000D01*
X186817000Y-147193000D02*
X186817000Y-121793000D01*
X163322000Y-154813000D02*
X168402000Y-159893000D01*
X163322000Y-154813000D02*
X163322000Y-149733000D01*
X179832000Y-151638000D02*
X185547000Y-145923000D01*
X185547000Y-145923000D02*
X185547000Y-126873000D01*
X172212000Y-141478000D02*
X173482000Y-140208000D01*
X173482000Y-131953000D02*
X173482000Y-131318000D01*
X173482000Y-140208000D02*
X173482000Y-131953000D01*
X261112000Y-131953000D02*
X261747000Y-131318000D01*
X261112000Y-131953000D02*
X257302000Y-135763000D01*
X257302000Y-135763000D02*
X248412000Y-135763000D01*
X248412000Y-135763000D02*
X238252000Y-125603000D01*
X174752000Y-146558000D02*
X174752000Y-124333000D01*
X174752000Y-146558000D02*
X172212000Y-149098000D01*
X179832000Y-141478000D02*
X182372000Y-138303000D01*
X182372000Y-138303000D02*
X182372000Y-119253000D01*
X153797000Y-137668000D02*
X155702000Y-135763000D01*
X113157000Y-127508000D02*
X113157000Y-119253000D01*
X113157000Y-127508000D02*
X115697000Y-130048000D01*
X159512000Y-126873000D02*
X159512000Y-119253000D01*
X155702000Y-130683000D02*
X159512000Y-126873000D01*
X155702000Y-135763000D02*
X155702000Y-130683000D01*
X161417000Y-145288000D02*
X165862000Y-145288000D01*
X165862000Y-145288000D02*
X172212000Y-151638000D01*
X149352000Y-141478000D02*
X149352000Y-144018000D01*
X149352000Y-141478000D02*
X140462000Y-132588000D01*
X181102000Y-137033000D02*
X181102000Y-129413000D01*
X179832000Y-138938000D02*
X181102000Y-137033000D01*
X80772000Y-130048000D02*
X74422000Y-136398000D01*
X74422000Y-136398000D02*
X74422000Y-152908000D01*
X80772000Y-132588000D02*
X75692000Y-137668000D01*
X75692000Y-137668000D02*
X75692000Y-156718000D01*
X80772000Y-135128000D02*
X76962000Y-138938000D01*
X76962000Y-138938000D02*
X76962000Y-154178000D01*
X80772000Y-140208000D02*
X78232000Y-142748000D01*
X78232000Y-142748000D02*
X78232000Y-155448000D01*
X88392000Y-140208000D02*
X90297000Y-138303000D01*
X90297000Y-131953000D02*
X94742000Y-127508000D01*
X90297000Y-138303000D02*
X90297000Y-131953000D01*
X189992000Y-120523000D02*
X189992000Y-133858000D01*
X109347000Y-145288000D02*
X111887000Y-142748000D01*
X111887000Y-142748000D02*
X111887000Y-133858000D01*
X106172000Y-145288000D02*
X109347000Y-145288000D01*
X140462000Y-145288000D02*
X151892000Y-156718000D01*
X158242000Y-156718000D02*
X163322000Y-161798000D01*
X151892000Y-156718000D02*
X158242000Y-156718000D01*
X264287000Y-131318000D02*
X258572000Y-137033000D01*
X247777000Y-137033000D02*
X235077000Y-124333000D01*
X258572000Y-137033000D02*
X247777000Y-137033000D01*
X160782000Y-161798000D02*
X157607000Y-158623000D01*
X130302000Y-137668000D02*
X132842000Y-135128000D01*
X130302000Y-149733000D02*
X130302000Y-137668000D01*
X139192000Y-158623000D02*
X130302000Y-149733000D01*
X157607000Y-158623000D02*
X139192000Y-158623000D01*
X140462000Y-137668000D02*
X141097000Y-137668000D01*
X141097000Y-137668000D02*
X143637000Y-140208000D01*
X256667000Y-131318000D02*
X254762000Y-133223000D01*
X134747000Y-140843000D02*
X132842000Y-142748000D01*
X134747000Y-117983000D02*
X134747000Y-140843000D01*
X136017000Y-116713000D02*
X134747000Y-117983000D01*
X235712000Y-116713000D02*
X136017000Y-116713000D01*
X245872000Y-126873000D02*
X235712000Y-116713000D01*
X245872000Y-131318000D02*
X245872000Y-126873000D01*
X248412000Y-133858000D02*
X245872000Y-131318000D01*
X254127000Y-133858000D02*
X248412000Y-133858000D01*
X254762000Y-133223000D02*
X254127000Y-133858000D01*
X235077000Y-130048000D02*
X233172000Y-130048000D01*
X239522000Y-134493000D02*
X235077000Y-130048000D01*
X242062000Y-135128000D02*
X235712000Y-128778000D01*
X235712000Y-128778000D02*
X235077000Y-128778000D01*
X242062000Y-137033000D02*
X242062000Y-135128000D01*
X109347000Y-140208000D02*
X109347000Y-138938000D01*
X108077000Y-137668000D02*
X106172000Y-137668000D01*
X109347000Y-138938000D02*
X108077000Y-137668000D01*
X115697000Y-137668000D02*
X115697000Y-135128000D01*
D20*
X317627000Y-140843000D02*
X341122000Y-140843000D01*
D21*
X317627000Y-140843000D02*
X317627000Y-145923000D01*
X317627000Y-145923000D02*
X317627000Y-152908000D01*
D20*
X347472000Y-155448000D02*
X320802000Y-155448000D01*
X306197000Y-154813000D02*
X306197000Y-152908000D01*
X308102000Y-156718000D02*
X306197000Y-154813000D01*
X319532000Y-156718000D02*
X308102000Y-156718000D01*
X320802000Y-155448000D02*
X319532000Y-156718000D01*
X356362000Y-149098000D02*
X356362000Y-154178000D01*
X356362000Y-154178000D02*
X357632000Y-155448000D01*
D22*
X225552000Y-135128000D02*
X226187000Y-135128000D01*
X226187000Y-135128000D02*
X228727000Y-132588000D01*
X228727000Y-132588000D02*
X228727000Y-128143000D01*
X228727000Y-128143000D02*
X231267000Y-125603000D01*
X231267000Y-125603000D02*
X234442000Y-125603000D01*
X234442000Y-125603000D02*
X244602000Y-135763000D01*
X244602000Y-135763000D02*
X244602000Y-139573000D01*
D23*
G36*
X113866817Y-160916642D02*
X113620514Y-161441108D01*
X113741181Y-161671000D01*
X114935000Y-161671000D01*
X114935000Y-161651000D01*
X115189000Y-161651000D01*
X115189000Y-161671000D01*
X115209000Y-161671000D01*
X115209000Y-161925000D01*
X115189000Y-161925000D01*
X115189000Y-163118155D01*
X115418890Y-163239476D01*
X115828924Y-163069645D01*
X116205000Y-162726914D01*
X116205000Y-163703000D01*
X116215006Y-163752410D01*
X116243447Y-163794035D01*
X116285841Y-163821315D01*
X116332000Y-163830000D01*
X171577000Y-163830000D01*
X171626410Y-163819994D01*
X171666803Y-163792803D01*
X172578985Y-162880621D01*
X172618986Y-162920622D01*
X172733861Y-162805747D01*
X172807995Y-163051864D01*
X173265801Y-163216418D01*
X172133510Y-165481000D01*
X104434000Y-165481000D01*
X104434000Y-162154892D01*
X113620514Y-162154892D01*
X113866817Y-162679358D01*
X114295076Y-163069645D01*
X114705110Y-163239476D01*
X114935000Y-163118155D01*
X114935000Y-161925000D01*
X113741181Y-161925000D01*
X113620514Y-162154892D01*
X104434000Y-162154892D01*
X104434000Y-160655000D01*
X114153915Y-160655000D01*
X113866817Y-160916642D01*
X113866817Y-160916642D01*
G37*
X113866817Y-160916642D02*
X113620514Y-161441108D01*
X113741181Y-161671000D01*
X114935000Y-161671000D01*
X114935000Y-161651000D01*
X115189000Y-161651000D01*
X115189000Y-161671000D01*
X115209000Y-161671000D01*
X115209000Y-161925000D01*
X115189000Y-161925000D01*
X115189000Y-163118155D01*
X115418890Y-163239476D01*
X115828924Y-163069645D01*
X116205000Y-162726914D01*
X116205000Y-163703000D01*
X116215006Y-163752410D01*
X116243447Y-163794035D01*
X116285841Y-163821315D01*
X116332000Y-163830000D01*
X171577000Y-163830000D01*
X171626410Y-163819994D01*
X171666803Y-163792803D01*
X172578985Y-162880621D01*
X172618986Y-162920622D01*
X172733861Y-162805747D01*
X172807995Y-163051864D01*
X173265801Y-163216418D01*
X172133510Y-165481000D01*
X104434000Y-165481000D01*
X104434000Y-162154892D01*
X113620514Y-162154892D01*
X113866817Y-162679358D01*
X114295076Y-163069645D01*
X114705110Y-163239476D01*
X114935000Y-163118155D01*
X114935000Y-161925000D01*
X113741181Y-161925000D01*
X113620514Y-162154892D01*
X104434000Y-162154892D01*
X104434000Y-160655000D01*
X114153915Y-160655000D01*
X113866817Y-160916642D01*
M02*
