G04 #@! TF.FileFunction,Copper,L1,Top,Signal*
%FSLAX46Y46*%
G04 Gerber Fmt 4.6, Leading zero omitted, Abs format (unit mm)*
G04 Created by KiCad (PCBNEW 4.0.7) date 07/01/18 22:05:01*
%MOMM*%
%LPD*%
G01*
G04 APERTURE LIST*
%ADD10C,0.100000*%
%ADD11C,0.200000*%
%ADD12C,0.300000*%
%ADD13C,1.600000*%
%ADD14R,1.600000X1.600000*%
%ADD15O,1.600000X1.600000*%
%ADD16R,1.700000X1.700000*%
%ADD17O,1.700000X1.700000*%
%ADD18C,1.700000*%
%ADD19C,2.600000*%
%ADD20C,3.000000*%
%ADD21C,1.000000*%
%ADD22C,1.000000*%
%ADD23C,1.200000*%
%ADD24C,2.000000*%
%ADD25C,0.270000*%
G04 APERTURE END LIST*
D10*
D11*
X112864428Y-164725143D02*
X112750143Y-164725143D01*
X112635857Y-164668000D01*
X112578714Y-164610857D01*
X112521571Y-164496571D01*
X112464428Y-164268000D01*
X112464428Y-163982286D01*
X112521571Y-163753714D01*
X112578714Y-163639429D01*
X112635857Y-163582286D01*
X112750143Y-163525143D01*
X112864428Y-163525143D01*
X112978714Y-163582286D01*
X113035857Y-163639429D01*
X113093000Y-163753714D01*
X113150143Y-163982286D01*
X113150143Y-164268000D01*
X113093000Y-164496571D01*
X113035857Y-164610857D01*
X112978714Y-164668000D01*
X112864428Y-164725143D01*
X112007286Y-164610857D02*
X111950143Y-164668000D01*
X111835857Y-164725143D01*
X111550143Y-164725143D01*
X111435857Y-164668000D01*
X111378714Y-164610857D01*
X111321571Y-164496571D01*
X111321571Y-164382286D01*
X111378714Y-164210857D01*
X112064428Y-163525143D01*
X111321571Y-163525143D01*
X110293000Y-164725143D02*
X110521571Y-164725143D01*
X110635857Y-164668000D01*
X110693000Y-164610857D01*
X110807286Y-164439429D01*
X110864429Y-164210857D01*
X110864429Y-163753714D01*
X110807286Y-163639429D01*
X110750143Y-163582286D01*
X110635857Y-163525143D01*
X110407286Y-163525143D01*
X110293000Y-163582286D01*
X110235857Y-163639429D01*
X110178714Y-163753714D01*
X110178714Y-164039429D01*
X110235857Y-164153714D01*
X110293000Y-164210857D01*
X110407286Y-164268000D01*
X110635857Y-164268000D01*
X110750143Y-164210857D01*
X110807286Y-164153714D01*
X110864429Y-164039429D01*
X109035857Y-163525143D02*
X109721572Y-163525143D01*
X109378714Y-163525143D02*
X109378714Y-164725143D01*
X109493000Y-164553714D01*
X109607286Y-164439429D01*
X109721572Y-164382286D01*
X108464429Y-163582286D02*
X108464429Y-163525143D01*
X108521572Y-163410857D01*
X108578715Y-163353714D01*
X107721571Y-164725143D02*
X107607286Y-164725143D01*
X107493000Y-164668000D01*
X107435857Y-164610857D01*
X107378714Y-164496571D01*
X107321571Y-164268000D01*
X107321571Y-163982286D01*
X107378714Y-163753714D01*
X107435857Y-163639429D01*
X107493000Y-163582286D01*
X107607286Y-163525143D01*
X107721571Y-163525143D01*
X107835857Y-163582286D01*
X107893000Y-163639429D01*
X107950143Y-163753714D01*
X108007286Y-163982286D01*
X108007286Y-164268000D01*
X107950143Y-164496571D01*
X107893000Y-164610857D01*
X107835857Y-164668000D01*
X107721571Y-164725143D01*
X106578714Y-164725143D02*
X106464429Y-164725143D01*
X106350143Y-164668000D01*
X106293000Y-164610857D01*
X106235857Y-164496571D01*
X106178714Y-164268000D01*
X106178714Y-163982286D01*
X106235857Y-163753714D01*
X106293000Y-163639429D01*
X106350143Y-163582286D01*
X106464429Y-163525143D01*
X106578714Y-163525143D01*
X106693000Y-163582286D01*
X106750143Y-163639429D01*
X106807286Y-163753714D01*
X106864429Y-163982286D01*
X106864429Y-164268000D01*
X106807286Y-164496571D01*
X106750143Y-164610857D01*
X106693000Y-164668000D01*
X106578714Y-164725143D01*
X105435857Y-164725143D02*
X105321572Y-164725143D01*
X105207286Y-164668000D01*
X105150143Y-164610857D01*
X105093000Y-164496571D01*
X105035857Y-164268000D01*
X105035857Y-163982286D01*
X105093000Y-163753714D01*
X105150143Y-163639429D01*
X105207286Y-163582286D01*
X105321572Y-163525143D01*
X105435857Y-163525143D01*
X105550143Y-163582286D01*
X105607286Y-163639429D01*
X105664429Y-163753714D01*
X105721572Y-163982286D01*
X105721572Y-164268000D01*
X105664429Y-164496571D01*
X105607286Y-164610857D01*
X105550143Y-164668000D01*
X105435857Y-164725143D01*
X112750143Y-161582286D02*
X112578714Y-161525143D01*
X112293000Y-161525143D01*
X112178714Y-161582286D01*
X112121571Y-161639429D01*
X112064428Y-161753714D01*
X112064428Y-161868000D01*
X112121571Y-161982286D01*
X112178714Y-162039429D01*
X112293000Y-162096571D01*
X112521571Y-162153714D01*
X112635857Y-162210857D01*
X112693000Y-162268000D01*
X112750143Y-162382286D01*
X112750143Y-162496571D01*
X112693000Y-162610857D01*
X112635857Y-162668000D01*
X112521571Y-162725143D01*
X112235857Y-162725143D01*
X112064428Y-162668000D01*
X111607286Y-162610857D02*
X111550143Y-162668000D01*
X111435857Y-162725143D01*
X111150143Y-162725143D01*
X111035857Y-162668000D01*
X110978714Y-162610857D01*
X110921571Y-162496571D01*
X110921571Y-162382286D01*
X110978714Y-162210857D01*
X111664428Y-161525143D01*
X110921571Y-161525143D01*
X109493000Y-161525143D02*
X109493000Y-162725143D01*
X108978714Y-161582286D02*
X108807285Y-161525143D01*
X108521571Y-161525143D01*
X108407285Y-161582286D01*
X108350142Y-161639429D01*
X108292999Y-161753714D01*
X108292999Y-161868000D01*
X108350142Y-161982286D01*
X108407285Y-162039429D01*
X108521571Y-162096571D01*
X108750142Y-162153714D01*
X108864428Y-162210857D01*
X108921571Y-162268000D01*
X108978714Y-162382286D01*
X108978714Y-162496571D01*
X108921571Y-162610857D01*
X108864428Y-162668000D01*
X108750142Y-162725143D01*
X108464428Y-162725143D01*
X108292999Y-162668000D01*
X107835857Y-161582286D02*
X107664428Y-161525143D01*
X107378714Y-161525143D01*
X107264428Y-161582286D01*
X107207285Y-161639429D01*
X107150142Y-161753714D01*
X107150142Y-161868000D01*
X107207285Y-161982286D01*
X107264428Y-162039429D01*
X107378714Y-162096571D01*
X107607285Y-162153714D01*
X107721571Y-162210857D01*
X107778714Y-162268000D01*
X107835857Y-162382286D01*
X107835857Y-162496571D01*
X107778714Y-162610857D01*
X107721571Y-162668000D01*
X107607285Y-162725143D01*
X107321571Y-162725143D01*
X107150142Y-162668000D01*
X106635857Y-161639429D02*
X106578714Y-161582286D01*
X106635857Y-161525143D01*
X106693000Y-161582286D01*
X106635857Y-161639429D01*
X106635857Y-161525143D01*
X106121571Y-162610857D02*
X106064428Y-162668000D01*
X105950142Y-162725143D01*
X105664428Y-162725143D01*
X105550142Y-162668000D01*
X105492999Y-162610857D01*
X105435856Y-162496571D01*
X105435856Y-162382286D01*
X105492999Y-162210857D01*
X106178713Y-161525143D01*
X105435856Y-161525143D01*
D12*
X55963429Y-146375857D02*
X55963429Y-146661572D01*
X56034857Y-146804429D01*
X56106286Y-146875857D01*
X56320571Y-147018715D01*
X56606286Y-147090143D01*
X57177714Y-147090143D01*
X57320571Y-147018715D01*
X57392000Y-146947286D01*
X57463429Y-146804429D01*
X57463429Y-146518715D01*
X57392000Y-146375857D01*
X57320571Y-146304429D01*
X57177714Y-146233000D01*
X56820571Y-146233000D01*
X56677714Y-146304429D01*
X56606286Y-146375857D01*
X56534857Y-146518715D01*
X56534857Y-146804429D01*
X56606286Y-146947286D01*
X56677714Y-147018715D01*
X56820571Y-147090143D01*
X56963429Y-148375857D02*
X55963429Y-148375857D01*
X57534857Y-148018714D02*
X56463429Y-147661571D01*
X56463429Y-148590143D01*
X57463429Y-148947285D02*
X55963429Y-149447285D01*
X57463429Y-149947285D01*
X56534857Y-150447285D02*
X56534857Y-151590142D01*
X57463429Y-152590142D02*
X57463429Y-152875856D01*
X57392000Y-153018714D01*
X57249143Y-153161571D01*
X56963429Y-153232999D01*
X56463429Y-153232999D01*
X56177714Y-153161571D01*
X56034857Y-153018714D01*
X55963429Y-152875856D01*
X55963429Y-152590142D01*
X56034857Y-152447285D01*
X56177714Y-152304428D01*
X56463429Y-152232999D01*
X56963429Y-152232999D01*
X57249143Y-152304428D01*
X57392000Y-152447285D01*
X57463429Y-152590142D01*
X55963429Y-129048001D02*
X55963429Y-128333715D01*
X57463429Y-128333715D01*
X56034857Y-129476572D02*
X55963429Y-129690858D01*
X55963429Y-130048001D01*
X56034857Y-130190858D01*
X56106286Y-130262287D01*
X56249143Y-130333715D01*
X56392000Y-130333715D01*
X56534857Y-130262287D01*
X56606286Y-130190858D01*
X56677714Y-130048001D01*
X56749143Y-129762287D01*
X56820571Y-129619429D01*
X56892000Y-129548001D01*
X57034857Y-129476572D01*
X57177714Y-129476572D01*
X57320571Y-129548001D01*
X57392000Y-129619429D01*
X57463429Y-129762287D01*
X57463429Y-130119429D01*
X57392000Y-130333715D01*
X56106286Y-131833715D02*
X56034857Y-131762286D01*
X55963429Y-131548000D01*
X55963429Y-131405143D01*
X56034857Y-131190858D01*
X56177714Y-131048000D01*
X56320571Y-130976572D01*
X56606286Y-130905143D01*
X56820571Y-130905143D01*
X57106286Y-130976572D01*
X57249143Y-131048000D01*
X57392000Y-131190858D01*
X57463429Y-131405143D01*
X57463429Y-131548000D01*
X57392000Y-131762286D01*
X57320571Y-131833715D01*
X59630571Y-129826572D02*
X59702000Y-129683715D01*
X59844857Y-129540858D01*
X60059143Y-129326572D01*
X60130571Y-129183715D01*
X60130571Y-129040858D01*
X59773429Y-129112286D02*
X59844857Y-128969429D01*
X59987714Y-128826572D01*
X60273429Y-128755143D01*
X60773429Y-128755143D01*
X61059143Y-128826572D01*
X61202000Y-128969429D01*
X61273429Y-129112286D01*
X61273429Y-129398000D01*
X61202000Y-129540858D01*
X61059143Y-129683715D01*
X60773429Y-129755143D01*
X60273429Y-129755143D01*
X59987714Y-129683715D01*
X59844857Y-129540858D01*
X59773429Y-129398000D01*
X59773429Y-129112286D01*
X60202000Y-130326572D02*
X60202000Y-131040858D01*
X59773429Y-130183715D02*
X61273429Y-130683715D01*
X59773429Y-131183715D01*
X61273429Y-131969429D02*
X61273429Y-132255143D01*
X61202000Y-132398001D01*
X61059143Y-132540858D01*
X60773429Y-132612286D01*
X60273429Y-132612286D01*
X59987714Y-132540858D01*
X59844857Y-132398001D01*
X59773429Y-132255143D01*
X59773429Y-131969429D01*
X59844857Y-131826572D01*
X59987714Y-131683715D01*
X60273429Y-131612286D01*
X60773429Y-131612286D01*
X61059143Y-131683715D01*
X61202000Y-131826572D01*
X61273429Y-131969429D01*
X61273429Y-133540858D02*
X61273429Y-133826572D01*
X61202000Y-133969430D01*
X61059143Y-134112287D01*
X60773429Y-134183715D01*
X60273429Y-134183715D01*
X59987714Y-134112287D01*
X59844857Y-133969430D01*
X59773429Y-133826572D01*
X59773429Y-133540858D01*
X59844857Y-133398001D01*
X59987714Y-133255144D01*
X60273429Y-133183715D01*
X60773429Y-133183715D01*
X61059143Y-133255144D01*
X61202000Y-133398001D01*
X61273429Y-133540858D01*
X59773429Y-135612287D02*
X59773429Y-134755144D01*
X59773429Y-135183716D02*
X61273429Y-135183716D01*
X61059143Y-135040859D01*
X60916286Y-134898001D01*
X60844857Y-134755144D01*
X59773429Y-137040858D02*
X59773429Y-136183715D01*
X59773429Y-136612287D02*
X61273429Y-136612287D01*
X61059143Y-136469430D01*
X60916286Y-136326572D01*
X60844857Y-136183715D01*
X61273429Y-137755143D02*
X60987714Y-137612286D01*
X60630571Y-142040858D02*
X60702000Y-141898000D01*
X60773429Y-141826572D01*
X60916286Y-141755143D01*
X60987714Y-141755143D01*
X61130571Y-141826572D01*
X61202000Y-141898000D01*
X61273429Y-142040858D01*
X61273429Y-142326572D01*
X61202000Y-142469429D01*
X61130571Y-142540858D01*
X60987714Y-142612286D01*
X60916286Y-142612286D01*
X60773429Y-142540858D01*
X60702000Y-142469429D01*
X60630571Y-142326572D01*
X60630571Y-142040858D01*
X60559143Y-141898000D01*
X60487714Y-141826572D01*
X60344857Y-141755143D01*
X60059143Y-141755143D01*
X59916286Y-141826572D01*
X59844857Y-141898000D01*
X59773429Y-142040858D01*
X59773429Y-142326572D01*
X59844857Y-142469429D01*
X59916286Y-142540858D01*
X60059143Y-142612286D01*
X60344857Y-142612286D01*
X60487714Y-142540858D01*
X60559143Y-142469429D01*
X60630571Y-142326572D01*
X61273429Y-143898000D02*
X61273429Y-143612286D01*
X61202000Y-143469429D01*
X61130571Y-143398000D01*
X60916286Y-143255143D01*
X60630571Y-143183714D01*
X60059143Y-143183714D01*
X59916286Y-143255143D01*
X59844857Y-143326571D01*
X59773429Y-143469429D01*
X59773429Y-143755143D01*
X59844857Y-143898000D01*
X59916286Y-143969429D01*
X60059143Y-144040857D01*
X60416286Y-144040857D01*
X60559143Y-143969429D01*
X60630571Y-143898000D01*
X60702000Y-143755143D01*
X60702000Y-143469429D01*
X60630571Y-143326571D01*
X60559143Y-143255143D01*
X60416286Y-143183714D01*
D13*
X87122000Y-149733000D03*
X82122000Y-149733000D03*
X104902000Y-149733000D03*
X99902000Y-149733000D03*
X122047000Y-149733000D03*
X117047000Y-149733000D03*
X139192000Y-149733000D03*
X134192000Y-149733000D03*
X178562000Y-161798000D03*
X173562000Y-161798000D03*
X196342000Y-161798000D03*
X191342000Y-161798000D03*
X337312000Y-130683000D03*
X332312000Y-130683000D03*
X150622000Y-149733000D03*
X155622000Y-149733000D03*
D14*
X208407000Y-133858000D03*
D15*
X216027000Y-156718000D03*
X208407000Y-136398000D03*
X216027000Y-154178000D03*
X208407000Y-138938000D03*
X216027000Y-151638000D03*
X208407000Y-141478000D03*
X216027000Y-149098000D03*
X208407000Y-144018000D03*
X216027000Y-146558000D03*
X208407000Y-146558000D03*
X216027000Y-144018000D03*
X208407000Y-149098000D03*
X216027000Y-141478000D03*
X208407000Y-151638000D03*
X216027000Y-138938000D03*
X208407000Y-154178000D03*
X216027000Y-136398000D03*
X208407000Y-156718000D03*
X216027000Y-133858000D03*
D14*
X189992000Y-133858000D03*
D15*
X197612000Y-156718000D03*
X189992000Y-136398000D03*
X197612000Y-154178000D03*
X189992000Y-138938000D03*
X197612000Y-151638000D03*
X189992000Y-141478000D03*
X197612000Y-149098000D03*
X189992000Y-144018000D03*
X197612000Y-146558000D03*
X189992000Y-146558000D03*
X197612000Y-144018000D03*
X189992000Y-149098000D03*
X197612000Y-141478000D03*
X189992000Y-151638000D03*
X197612000Y-138938000D03*
X189992000Y-154178000D03*
X197612000Y-136398000D03*
X189992000Y-156718000D03*
X197612000Y-133858000D03*
D14*
X172212000Y-133858000D03*
D15*
X179832000Y-156718000D03*
X172212000Y-136398000D03*
X179832000Y-154178000D03*
X172212000Y-138938000D03*
X179832000Y-151638000D03*
X172212000Y-141478000D03*
X179832000Y-149098000D03*
X172212000Y-144018000D03*
X179832000Y-146558000D03*
X172212000Y-146558000D03*
X179832000Y-144018000D03*
X172212000Y-149098000D03*
X179832000Y-141478000D03*
X172212000Y-151638000D03*
X179832000Y-138938000D03*
X172212000Y-154178000D03*
X179832000Y-136398000D03*
X172212000Y-156718000D03*
X179832000Y-133858000D03*
D14*
X80772000Y-127508000D03*
D15*
X88392000Y-145288000D03*
X80772000Y-130048000D03*
X88392000Y-142748000D03*
X80772000Y-132588000D03*
X88392000Y-140208000D03*
X80772000Y-135128000D03*
X88392000Y-137668000D03*
X80772000Y-137668000D03*
X88392000Y-135128000D03*
X80772000Y-140208000D03*
X88392000Y-132588000D03*
X80772000Y-142748000D03*
X88392000Y-130048000D03*
X80772000Y-145288000D03*
X88392000Y-127508000D03*
D14*
X132842000Y-130048000D03*
D15*
X140462000Y-145288000D03*
X132842000Y-132588000D03*
X140462000Y-142748000D03*
X132842000Y-135128000D03*
X140462000Y-140208000D03*
X132842000Y-137668000D03*
X140462000Y-137668000D03*
X132842000Y-140208000D03*
X140462000Y-135128000D03*
X132842000Y-142748000D03*
X140462000Y-132588000D03*
X132842000Y-145288000D03*
X140462000Y-130048000D03*
D14*
X153797000Y-130048000D03*
D15*
X161417000Y-145288000D03*
X153797000Y-132588000D03*
X161417000Y-142748000D03*
X153797000Y-135128000D03*
X161417000Y-140208000D03*
X153797000Y-137668000D03*
X161417000Y-137668000D03*
X153797000Y-140208000D03*
X161417000Y-135128000D03*
X153797000Y-142748000D03*
X161417000Y-132588000D03*
X153797000Y-145288000D03*
X161417000Y-130048000D03*
D14*
X98552000Y-130048000D03*
D15*
X106172000Y-145288000D03*
X98552000Y-132588000D03*
X106172000Y-142748000D03*
X98552000Y-135128000D03*
X106172000Y-140208000D03*
X98552000Y-137668000D03*
X106172000Y-137668000D03*
X98552000Y-140208000D03*
X106172000Y-135128000D03*
X98552000Y-142748000D03*
X106172000Y-132588000D03*
X98552000Y-145288000D03*
X106172000Y-130048000D03*
D14*
X115697000Y-127508000D03*
D15*
X123317000Y-145288000D03*
X115697000Y-130048000D03*
X123317000Y-142748000D03*
X115697000Y-132588000D03*
X123317000Y-140208000D03*
X115697000Y-135128000D03*
X123317000Y-137668000D03*
X115697000Y-137668000D03*
X123317000Y-135128000D03*
X115697000Y-140208000D03*
X123317000Y-132588000D03*
X115697000Y-142748000D03*
X123317000Y-130048000D03*
X115697000Y-145288000D03*
X123317000Y-127508000D03*
D14*
X348742000Y-133858000D03*
D13*
X356362000Y-133858000D03*
X356362000Y-149098000D03*
X348742000Y-149098000D03*
D16*
X163322000Y-161798000D03*
D17*
X160782000Y-161798000D03*
X158242000Y-161798000D03*
X155702000Y-161798000D03*
X153162000Y-161798000D03*
X150622000Y-161798000D03*
X148082000Y-161798000D03*
X145542000Y-161798000D03*
X143002000Y-161798000D03*
X140462000Y-161798000D03*
X137922000Y-161798000D03*
X135382000Y-161798000D03*
X132842000Y-161798000D03*
X130302000Y-161798000D03*
X127762000Y-161798000D03*
X125222000Y-161798000D03*
X122682000Y-161798000D03*
X120142000Y-161798000D03*
X117602000Y-161798000D03*
X115062000Y-161798000D03*
D14*
X225552000Y-127508000D03*
D15*
X233172000Y-145288000D03*
X225552000Y-130048000D03*
X233172000Y-142748000D03*
X225552000Y-132588000D03*
X233172000Y-140208000D03*
X225552000Y-135128000D03*
X233172000Y-137668000D03*
X225552000Y-137668000D03*
X233172000Y-135128000D03*
X225552000Y-140208000D03*
X233172000Y-132588000D03*
X225552000Y-142748000D03*
X233172000Y-130048000D03*
X225552000Y-145288000D03*
X233172000Y-127508000D03*
D16*
X310007000Y-128778000D03*
D18*
X310007000Y-131318000D03*
X307467000Y-128778000D03*
X307467000Y-131318000D03*
X304927000Y-128778000D03*
X304927000Y-131318000D03*
X302387000Y-128778000D03*
X302387000Y-131318000D03*
X299847000Y-128778000D03*
X299847000Y-131318000D03*
X297307000Y-128778000D03*
X297307000Y-131318000D03*
X294767000Y-128778000D03*
X294767000Y-131318000D03*
X292227000Y-128778000D03*
X292227000Y-131318000D03*
X289687000Y-128778000D03*
X289687000Y-131318000D03*
X287147000Y-128778000D03*
X287147000Y-131318000D03*
X284607000Y-128778000D03*
X284607000Y-131318000D03*
X282067000Y-128778000D03*
X282067000Y-131318000D03*
X279527000Y-128778000D03*
X279527000Y-131318000D03*
X276987000Y-128778000D03*
X276987000Y-131318000D03*
X274447000Y-128778000D03*
X274447000Y-131318000D03*
X271907000Y-128778000D03*
X271907000Y-131318000D03*
X269367000Y-128778000D03*
X269367000Y-131318000D03*
X266827000Y-128778000D03*
X266827000Y-131318000D03*
X264287000Y-128778000D03*
X264287000Y-131318000D03*
X261747000Y-128778000D03*
X261747000Y-131318000D03*
X259207000Y-128778000D03*
X259207000Y-131318000D03*
X256667000Y-128778000D03*
X256667000Y-131318000D03*
X254127000Y-128778000D03*
X254127000Y-131318000D03*
X251587000Y-128778000D03*
X251587000Y-131318000D03*
X249047000Y-128778000D03*
X249047000Y-131318000D03*
D14*
X122047000Y-156718000D03*
D13*
X117047000Y-156718000D03*
D14*
X214757000Y-161798000D03*
D13*
X209757000Y-161798000D03*
D14*
X337312000Y-135763000D03*
D13*
X332312000Y-135763000D03*
D14*
X94742000Y-127508000D03*
D15*
X94742000Y-137668000D03*
D13*
X143637000Y-140208000D03*
D15*
X143637000Y-130048000D03*
D13*
X153797000Y-124968000D03*
D15*
X143637000Y-124968000D03*
D13*
X109347000Y-140208000D03*
D15*
X109347000Y-130048000D03*
D13*
X341122000Y-140843000D03*
D15*
X341122000Y-130683000D03*
D13*
X347472000Y-155448000D03*
D15*
X357632000Y-155448000D03*
D14*
X91567000Y-127508000D03*
D15*
X91567000Y-137668000D03*
D19*
X317627000Y-152908000D03*
X306197000Y-152908000D03*
X311912000Y-152908000D03*
D20*
X317627000Y-145923000D03*
X317627000Y-140843000D03*
X311912000Y-145923000D03*
X311912000Y-140843000D03*
D21*
X120777000Y-134493000D03*
X158877000Y-153543000D03*
X230632000Y-164338000D03*
X174117000Y-149098000D03*
X118237000Y-130048000D03*
X223012000Y-117983000D03*
X161417000Y-117983000D03*
X225552000Y-159893000D03*
X210947000Y-117983000D03*
X188722000Y-117983000D03*
X177292000Y-117983000D03*
X136652000Y-117983000D03*
X115697000Y-117983000D03*
X97282000Y-117983000D03*
X83312000Y-117983000D03*
X203962000Y-140208000D03*
X220472000Y-123063000D03*
X192532000Y-156718000D03*
X219202000Y-131953000D03*
X193802000Y-132588000D03*
X102362000Y-121793000D03*
X186817000Y-121793000D03*
X163322000Y-149733000D03*
X168402000Y-159893000D03*
X185547000Y-126873000D03*
X173482000Y-131318000D03*
X238252000Y-125603000D03*
X174752000Y-124333000D03*
X182372000Y-119253000D03*
X113157000Y-119253000D03*
X159512000Y-119253000D03*
X149352000Y-144018000D03*
X181102000Y-129413000D03*
X74422000Y-152908000D03*
X75692000Y-156718000D03*
X76962000Y-154178000D03*
X78232000Y-155448000D03*
X189992000Y-120523000D03*
X111887000Y-133858000D03*
X235077000Y-124333000D03*
X239522000Y-134493000D03*
X235077000Y-128778000D03*
X242062000Y-137033000D03*
X244602000Y-139573000D03*
D22*
X106172000Y-130048000D02*
X109347000Y-130048000D01*
X140462000Y-130048000D02*
X143637000Y-130048000D01*
X115697000Y-132588000D02*
X118872000Y-132588000D01*
X118872000Y-132588000D02*
X120777000Y-134493000D01*
X158877000Y-153544100D02*
X158877002Y-153544102D01*
X158877000Y-153543000D02*
X158877000Y-153544100D01*
X141732000Y-149733000D02*
X145541975Y-153543025D01*
X145541975Y-153543025D02*
X158877002Y-153544102D01*
X141732000Y-149733000D02*
X139192000Y-149733000D01*
D23*
X230632000Y-164338000D02*
X214757000Y-164338000D01*
X214757000Y-161798000D02*
X214757000Y-164338000D01*
X196342000Y-161798000D02*
X196342000Y-164338000D01*
X178562000Y-161798000D02*
X178562000Y-164338000D01*
X120142000Y-161798000D02*
X122682000Y-164338000D01*
X122682000Y-164338000D02*
X178562000Y-164338000D01*
X178562000Y-164338000D02*
X196342000Y-164338000D01*
X196342000Y-164338000D02*
X214757000Y-164338000D01*
D22*
X104902000Y-149733000D02*
X104902000Y-151638000D01*
X122047000Y-149733000D02*
X122047000Y-151638000D01*
X87122000Y-149733000D02*
X89027000Y-151638000D01*
X137287000Y-151638000D02*
X139192000Y-149733000D01*
X89027000Y-151638000D02*
X104902000Y-151638000D01*
X104902000Y-151638000D02*
X122047000Y-151638000D01*
X122047000Y-151638000D02*
X137287000Y-151638000D01*
X179832000Y-149098000D02*
X174117000Y-149098000D01*
X123317000Y-132588000D02*
X120777000Y-132588000D01*
X120777000Y-132588000D02*
X118237000Y-130048000D01*
X97282000Y-117983000D02*
X97282000Y-117348000D01*
X97282000Y-117348000D02*
X97282000Y-117983000D01*
X177292000Y-117983000D02*
X177292000Y-117348000D01*
X177292000Y-117348000D02*
X177292000Y-117983000D01*
X188722000Y-117983000D02*
X188722000Y-117348000D01*
X188722000Y-117348000D02*
X188722000Y-117983000D01*
X136652000Y-117983000D02*
X136652000Y-117348000D01*
X136652000Y-117348000D02*
X136652000Y-117983000D01*
X115697000Y-117983000D02*
X115697000Y-117348000D01*
X115697000Y-117348000D02*
X115697000Y-117983000D01*
X223012000Y-117983000D02*
X222377000Y-117348000D01*
X222377000Y-117348000D02*
X210947000Y-117348000D01*
X249047000Y-128778000D02*
X238252000Y-117983000D01*
X238252000Y-117983000D02*
X223012000Y-117983000D01*
X155622000Y-149733000D02*
X155622000Y-149813000D01*
X155622000Y-149813000D02*
X153797000Y-151638000D01*
X161417000Y-117983000D02*
X161417000Y-117348000D01*
X225552000Y-159893000D02*
X209677000Y-159893000D01*
X210947000Y-117983000D02*
X210947000Y-117348000D01*
X188722000Y-117983000D02*
X188722000Y-117983000D01*
X177292000Y-117983000D02*
X177292000Y-117983000D01*
X136652000Y-117983000D02*
X136652000Y-117983000D01*
X115697000Y-117983000D02*
X115697000Y-117983000D01*
X97282000Y-117983000D02*
X97282000Y-117983000D01*
X189357000Y-117348000D02*
X210947000Y-117348000D01*
X177292000Y-117348000D02*
X189357000Y-117348000D01*
X137287000Y-117348000D02*
X161417000Y-117348000D01*
X161417000Y-117348000D02*
X177292000Y-117348000D01*
X116332000Y-117348000D02*
X137287000Y-117348000D01*
X97917000Y-117348000D02*
X116332000Y-117348000D01*
X83947000Y-117348000D02*
X97917000Y-117348000D01*
X83312000Y-117983000D02*
X83947000Y-117348000D01*
X191342000Y-161798000D02*
X191262000Y-161718000D01*
X191262000Y-161718000D02*
X191262000Y-159893000D01*
X209757000Y-161798000D02*
X209677000Y-161718000D01*
X209677000Y-161718000D02*
X209677000Y-159893000D01*
X173562000Y-161798000D02*
X174832000Y-159893000D01*
X174832000Y-159893000D02*
X191262000Y-159893000D01*
X191262000Y-159893000D02*
X209677000Y-159893000D01*
X249047000Y-128778000D02*
X251587000Y-128778000D01*
X251587000Y-128778000D02*
X254127000Y-128778000D01*
X254127000Y-128778000D02*
X256667000Y-128778000D01*
X256667000Y-128778000D02*
X259207000Y-128778000D01*
X259207000Y-128778000D02*
X261747000Y-128778000D01*
X261747000Y-128778000D02*
X264287000Y-128778000D01*
X264287000Y-128778000D02*
X266827000Y-128778000D01*
X266827000Y-128778000D02*
X269367000Y-128778000D01*
X269367000Y-128778000D02*
X271907000Y-128778000D01*
X271907000Y-128778000D02*
X274447000Y-128778000D01*
X274447000Y-128778000D02*
X276987000Y-128778000D01*
X276987000Y-128778000D02*
X279527000Y-128778000D01*
X279527000Y-128778000D02*
X282067000Y-128778000D01*
X282067000Y-128778000D02*
X284607000Y-128778000D01*
X284607000Y-128778000D02*
X287147000Y-128778000D01*
X287147000Y-128778000D02*
X289687000Y-128778000D01*
X289687000Y-128778000D02*
X292227000Y-128778000D01*
X292227000Y-128778000D02*
X294767000Y-128778000D01*
X294767000Y-128778000D02*
X297307000Y-128778000D01*
X297307000Y-128778000D02*
X299847000Y-128778000D01*
X299847000Y-128778000D02*
X302387000Y-128778000D01*
X302387000Y-128778000D02*
X304927000Y-128778000D01*
X304927000Y-128778000D02*
X307467000Y-128778000D01*
X307467000Y-128778000D02*
X310007000Y-128778000D01*
X99902000Y-149733000D02*
X99902000Y-147828000D01*
X99902000Y-147828000D02*
X99822000Y-147828000D01*
X117047000Y-149733000D02*
X117047000Y-147828000D01*
X117047000Y-147828000D02*
X116967000Y-147828000D01*
X134192000Y-149733000D02*
X134192000Y-147828000D01*
X134192000Y-147828000D02*
X134112000Y-147828000D01*
X82122000Y-149733000D02*
X82122000Y-149018000D01*
X82122000Y-149018000D02*
X83312000Y-147828000D01*
X83312000Y-147828000D02*
X99822000Y-147828000D01*
X99822000Y-147828000D02*
X116967000Y-147828000D01*
X116967000Y-147828000D02*
X134112000Y-147828000D01*
X134112000Y-147828000D02*
X143002000Y-147828000D01*
X143002000Y-147828000D02*
X146812000Y-151638000D01*
X146812000Y-151638000D02*
X153797000Y-151638000D01*
D24*
X311912000Y-145923000D02*
X311912000Y-140843000D01*
X311912000Y-145923000D02*
X311912000Y-152908000D01*
D25*
X153797000Y-130048000D02*
X150622000Y-130048000D01*
X145542000Y-135128000D02*
X140462000Y-135128000D01*
X150622000Y-130048000D02*
X145542000Y-135128000D01*
X176022000Y-138938000D02*
X177292000Y-140208000D01*
X177292000Y-140208000D02*
X183642000Y-140208000D01*
X183642000Y-140208000D02*
X186182000Y-142748000D01*
X186182000Y-142748000D02*
X193802000Y-142748000D01*
X193802000Y-142748000D02*
X196342000Y-140208000D01*
X196342000Y-140208000D02*
X202057000Y-140208000D01*
X176022000Y-138938000D02*
X172212000Y-138938000D01*
X203962000Y-140208000D02*
X202057000Y-140208000D01*
X131572000Y-126873000D02*
X132207000Y-126238000D01*
X132207000Y-126238000D02*
X160147000Y-126238000D01*
X160147000Y-126238000D02*
X163957000Y-122428000D01*
X163957000Y-122428000D02*
X185547000Y-122428000D01*
X185547000Y-122428000D02*
X186182000Y-123063000D01*
X186182000Y-123063000D02*
X220472000Y-123063000D01*
X131572000Y-126873000D02*
X123317000Y-135128000D01*
X208407000Y-136398000D02*
X212217000Y-136398000D01*
X230632000Y-135128000D02*
X233172000Y-135128000D01*
X229362000Y-136398000D02*
X230632000Y-135128000D01*
X221742000Y-136398000D02*
X229362000Y-136398000D01*
X220472000Y-135128000D02*
X221742000Y-136398000D01*
X213487000Y-135128000D02*
X220472000Y-135128000D01*
X212217000Y-136398000D02*
X213487000Y-135128000D01*
X292227000Y-131318000D02*
X282702000Y-140843000D01*
X235712000Y-135128000D02*
X233172000Y-135128000D01*
X241427000Y-140843000D02*
X235712000Y-135128000D01*
X282702000Y-140843000D02*
X241427000Y-140843000D01*
X192532000Y-156718000D02*
X193802000Y-157988000D01*
X213487000Y-154178000D02*
X216027000Y-154178000D01*
X212217000Y-155448000D02*
X213487000Y-154178000D01*
X205232000Y-155448000D02*
X212217000Y-155448000D01*
X202692000Y-157988000D02*
X205232000Y-155448000D01*
X193802000Y-157988000D02*
X202692000Y-157988000D01*
X216027000Y-154178000D02*
X224282000Y-154178000D01*
X224282000Y-154178000D02*
X233172000Y-145288000D01*
X310007000Y-131318000D02*
X291592000Y-149733000D01*
X235712000Y-145288000D02*
X233172000Y-145288000D01*
X240157000Y-149733000D02*
X235712000Y-145288000D01*
X291592000Y-149733000D02*
X240157000Y-149733000D01*
X179832000Y-136398000D02*
X177292000Y-136398000D01*
X176022000Y-135128000D02*
X177292000Y-136398000D01*
X170942000Y-135128000D02*
X176022000Y-135128000D01*
X170307000Y-135763000D02*
X170942000Y-135128000D01*
X170307000Y-140843000D02*
X170307000Y-135763000D01*
X167132000Y-144018000D02*
X170307000Y-140843000D01*
X167132000Y-149098000D02*
X167132000Y-144018000D01*
X161417000Y-154813000D02*
X167132000Y-149098000D01*
X147447000Y-154813000D02*
X161417000Y-154813000D01*
X147447000Y-154813000D02*
X140462000Y-161798000D01*
X179832000Y-136398000D02*
X183642000Y-136398000D01*
X183642000Y-136398000D02*
X186182000Y-138938000D01*
X189992000Y-138938000D02*
X194437000Y-138938000D01*
X205867000Y-138938000D02*
X208407000Y-138938000D01*
X204597000Y-137668000D02*
X205867000Y-138938000D01*
X195707000Y-137668000D02*
X204597000Y-137668000D01*
X194437000Y-138938000D02*
X195707000Y-137668000D01*
X186182000Y-138938000D02*
X189992000Y-138938000D01*
X197612000Y-149098000D02*
X202692000Y-149098000D01*
X213487000Y-149098000D02*
X216027000Y-149098000D01*
X212217000Y-147828000D02*
X213487000Y-149098000D01*
X203962000Y-147828000D02*
X212217000Y-147828000D01*
X202692000Y-149098000D02*
X203962000Y-147828000D01*
X179832000Y-146558000D02*
X183642000Y-146558000D01*
X195707000Y-149098000D02*
X197612000Y-149098000D01*
X194437000Y-147828000D02*
X195707000Y-149098000D01*
X184912000Y-147828000D02*
X194437000Y-147828000D01*
X183642000Y-146558000D02*
X184912000Y-147828000D01*
X150622000Y-161798000D02*
X155067000Y-157353000D01*
X177292000Y-146558000D02*
X179832000Y-146558000D01*
X176022000Y-145288000D02*
X177292000Y-146558000D01*
X170942000Y-145288000D02*
X176022000Y-145288000D01*
X169672000Y-146558000D02*
X170942000Y-145288000D01*
X169672000Y-151638000D02*
X169672000Y-146558000D01*
X163957000Y-157353000D02*
X169672000Y-151638000D01*
X155067000Y-157353000D02*
X163957000Y-157353000D01*
X216027000Y-138938000D02*
X214122000Y-138938000D01*
X204597000Y-138938000D02*
X197612000Y-138938000D01*
X205867000Y-140208000D02*
X204597000Y-138938000D01*
X212852000Y-140208000D02*
X205867000Y-140208000D01*
X214122000Y-138938000D02*
X212852000Y-140208000D01*
X172212000Y-136398000D02*
X176022000Y-136398000D01*
X195707000Y-138938000D02*
X197612000Y-138938000D01*
X194437000Y-140208000D02*
X195707000Y-138938000D01*
X186182000Y-140208000D02*
X194437000Y-140208000D01*
X183642000Y-137668000D02*
X186182000Y-140208000D01*
X177292000Y-137668000D02*
X183642000Y-137668000D01*
X176022000Y-136398000D02*
X177292000Y-137668000D01*
X143002000Y-161798000D02*
X149352000Y-155448000D01*
X170942000Y-137668000D02*
X172212000Y-136398000D01*
X170942000Y-141478000D02*
X170942000Y-137668000D01*
X167767000Y-144653000D02*
X170942000Y-141478000D01*
X167767000Y-149733000D02*
X167767000Y-144653000D01*
X162052000Y-155448000D02*
X167767000Y-149733000D01*
X149352000Y-155448000D02*
X162052000Y-155448000D01*
X172212000Y-146558000D02*
X176022000Y-146558000D01*
X184912000Y-149098000D02*
X189992000Y-149098000D01*
X183642000Y-147828000D02*
X184912000Y-149098000D01*
X177292000Y-147828000D02*
X183642000Y-147828000D01*
X176022000Y-146558000D02*
X177292000Y-147828000D01*
X189992000Y-149098000D02*
X194437000Y-149098000D01*
X194437000Y-149098000D02*
X195707000Y-150368000D01*
X195707000Y-150368000D02*
X202692000Y-150368000D01*
X202692000Y-150368000D02*
X203962000Y-149098000D01*
X203962000Y-149098000D02*
X208407000Y-149098000D01*
X172212000Y-146558000D02*
X170307000Y-148463000D01*
X156972000Y-157988000D02*
X153162000Y-161798000D01*
X164592000Y-157988000D02*
X156972000Y-157988000D01*
X170307000Y-152273000D02*
X164592000Y-157988000D01*
X170307000Y-148463000D02*
X170307000Y-152273000D01*
X208407000Y-144018000D02*
X212217000Y-144018000D01*
X230632000Y-137668000D02*
X233172000Y-137668000D01*
X229362000Y-138938000D02*
X230632000Y-137668000D01*
X222377000Y-138938000D02*
X229362000Y-138938000D01*
X218567000Y-142748000D02*
X222377000Y-138938000D01*
X213487000Y-142748000D02*
X218567000Y-142748000D01*
X212217000Y-144018000D02*
X213487000Y-142748000D01*
X197612000Y-146558000D02*
X202692000Y-146558000D01*
X205232000Y-144018000D02*
X208407000Y-144018000D01*
X202692000Y-146558000D02*
X205232000Y-144018000D01*
X297307000Y-131318000D02*
X285242000Y-143383000D01*
X241427000Y-143383000D02*
X235712000Y-137668000D01*
X235712000Y-137668000D02*
X233172000Y-137668000D01*
X285242000Y-143383000D02*
X241427000Y-143383000D01*
X189992000Y-146558000D02*
X194437000Y-146558000D01*
X213487000Y-146558000D02*
X216027000Y-146558000D01*
X212217000Y-145288000D02*
X213487000Y-146558000D01*
X205232000Y-145288000D02*
X212217000Y-145288000D01*
X202692000Y-147828000D02*
X205232000Y-145288000D01*
X195707000Y-147828000D02*
X202692000Y-147828000D01*
X194437000Y-146558000D02*
X195707000Y-147828000D01*
X216027000Y-146558000D02*
X217297000Y-146558000D01*
X230632000Y-140208000D02*
X233172000Y-140208000D01*
X229362000Y-141478000D02*
X230632000Y-140208000D01*
X222377000Y-141478000D02*
X229362000Y-141478000D01*
X217297000Y-146558000D02*
X222377000Y-141478000D01*
X302387000Y-131318000D02*
X287782000Y-145923000D01*
X235712000Y-140208000D02*
X233172000Y-140208000D01*
X241427000Y-145923000D02*
X235712000Y-140208000D01*
X287782000Y-145923000D02*
X241427000Y-145923000D01*
X217932000Y-150368000D02*
X217932000Y-147828000D01*
X202692000Y-151638000D02*
X203962000Y-150368000D01*
X203962000Y-150368000D02*
X217932000Y-150368000D01*
X202692000Y-151638000D02*
X197612000Y-151638000D01*
X208407000Y-146558000D02*
X212217000Y-146558000D01*
X212217000Y-146558000D02*
X213487000Y-147828000D01*
X213487000Y-147828000D02*
X217932000Y-147828000D01*
X223647000Y-142748000D02*
X225552000Y-142748000D01*
X218567000Y-147828000D02*
X223647000Y-142748000D01*
X217932000Y-147828000D02*
X218567000Y-147828000D01*
X304927000Y-131318000D02*
X289052000Y-147193000D01*
X229362000Y-142748000D02*
X225552000Y-142748000D01*
X230632000Y-141478000D02*
X229362000Y-142748000D01*
X235712000Y-141478000D02*
X230632000Y-141478000D01*
X241427000Y-147193000D02*
X235712000Y-141478000D01*
X289052000Y-147193000D02*
X241427000Y-147193000D01*
X217297000Y-131953000D02*
X215392000Y-131953000D01*
X219202000Y-131953000D02*
X217297000Y-131953000D01*
X202692000Y-132588000D02*
X193802000Y-132588000D01*
X205232000Y-135128000D02*
X202692000Y-132588000D01*
X212217000Y-135128000D02*
X205232000Y-135128000D01*
X215392000Y-131953000D02*
X212217000Y-135128000D01*
X216027000Y-144018000D02*
X218567000Y-144018000D01*
X222377000Y-140208000D02*
X225552000Y-140208000D01*
X218567000Y-144018000D02*
X222377000Y-140208000D01*
X299847000Y-131318000D02*
X286512000Y-144653000D01*
X229362000Y-140208000D02*
X225552000Y-140208000D01*
X230632000Y-138938000D02*
X229362000Y-140208000D01*
X235712000Y-138938000D02*
X230632000Y-138938000D01*
X241427000Y-144653000D02*
X235712000Y-138938000D01*
X286512000Y-144653000D02*
X241427000Y-144653000D01*
X176022000Y-142748000D02*
X177292000Y-144018000D01*
X177292000Y-144018000D02*
X179832000Y-144018000D01*
X179832000Y-144018000D02*
X189992000Y-144018000D01*
X151257000Y-156083000D02*
X162687000Y-156083000D01*
X162687000Y-156083000D02*
X168402000Y-150368000D01*
X168402000Y-150368000D02*
X168402000Y-145288000D01*
X168402000Y-145288000D02*
X170942000Y-142748000D01*
X151257000Y-156083000D02*
X145542000Y-161798000D01*
X176022000Y-142748000D02*
X170942000Y-142748000D01*
X189992000Y-144018000D02*
X194437000Y-144018000D01*
X194437000Y-144018000D02*
X195707000Y-142748000D01*
X195707000Y-142748000D02*
X203327000Y-142748000D01*
X203327000Y-142748000D02*
X204597000Y-141478000D01*
X204597000Y-141478000D02*
X208407000Y-141478000D01*
X189992000Y-154178000D02*
X194437000Y-154178000D01*
X203962000Y-151638000D02*
X208407000Y-151638000D01*
X202692000Y-152908000D02*
X203962000Y-151638000D01*
X195707000Y-152908000D02*
X202692000Y-152908000D01*
X194437000Y-154178000D02*
X195707000Y-152908000D01*
X172212000Y-154178000D02*
X176022000Y-154178000D01*
X184912000Y-154178000D02*
X189992000Y-154178000D01*
X183642000Y-152908000D02*
X184912000Y-154178000D01*
X177292000Y-152908000D02*
X183642000Y-152908000D01*
X176022000Y-154178000D02*
X177292000Y-152908000D01*
X172212000Y-154178000D02*
X169672000Y-154178000D01*
X158877000Y-158623000D02*
X155702000Y-161798000D01*
X165227000Y-158623000D02*
X158877000Y-158623000D01*
X169672000Y-154178000D02*
X165227000Y-158623000D01*
X172212000Y-144018000D02*
X174752000Y-144018000D01*
X195707000Y-144018000D02*
X197612000Y-144018000D01*
X194437000Y-145288000D02*
X195707000Y-144018000D01*
X177292000Y-145288000D02*
X194437000Y-145288000D01*
X176022000Y-144018000D02*
X177292000Y-145288000D01*
X174752000Y-144018000D02*
X176022000Y-144018000D01*
X172212000Y-144018000D02*
X170942000Y-144018000D01*
X153162000Y-156718000D02*
X163322000Y-156718000D01*
X163322000Y-156718000D02*
X169037000Y-151003000D01*
X169037000Y-151003000D02*
X169037000Y-145923000D01*
X169037000Y-145923000D02*
X170942000Y-144018000D01*
X153162000Y-156718000D02*
X148082000Y-161798000D01*
X197612000Y-144018000D02*
X203327000Y-144018000D01*
X203327000Y-144018000D02*
X204597000Y-142748000D01*
X204597000Y-142748000D02*
X212217000Y-142748000D01*
X212217000Y-142748000D02*
X213487000Y-141478000D01*
X213487000Y-141478000D02*
X216027000Y-141478000D01*
X186817000Y-121793000D02*
X102362000Y-121793000D01*
X197612000Y-154178000D02*
X202692000Y-154178000D01*
X213487000Y-151638000D02*
X216027000Y-151638000D01*
X212217000Y-152908000D02*
X213487000Y-151638000D01*
X203962000Y-152908000D02*
X212217000Y-152908000D01*
X202692000Y-154178000D02*
X203962000Y-152908000D01*
X179832000Y-154178000D02*
X183642000Y-154178000D01*
X195707000Y-154178000D02*
X197612000Y-154178000D01*
X194437000Y-155448000D02*
X195707000Y-154178000D01*
X184912000Y-155448000D02*
X194437000Y-155448000D01*
X183642000Y-154178000D02*
X184912000Y-155448000D01*
X158242000Y-161798000D02*
X160782000Y-159258000D01*
X177292000Y-154178000D02*
X179832000Y-154178000D01*
X176022000Y-155448000D02*
X177292000Y-154178000D01*
X169672000Y-155448000D02*
X176022000Y-155448000D01*
X165862000Y-159258000D02*
X169672000Y-155448000D01*
X160782000Y-159258000D02*
X165862000Y-159258000D01*
X208407000Y-154178000D02*
X212217000Y-154178000D01*
X230632000Y-142748000D02*
X233172000Y-142748000D01*
X229362000Y-144018000D02*
X230632000Y-142748000D01*
X223647000Y-144018000D02*
X229362000Y-144018000D01*
X221742000Y-145923000D02*
X223647000Y-144018000D01*
X221742000Y-150368000D02*
X221742000Y-145923000D01*
X219202000Y-152908000D02*
X221742000Y-150368000D01*
X213487000Y-152908000D02*
X219202000Y-152908000D01*
X212217000Y-154178000D02*
X213487000Y-152908000D01*
X307467000Y-131318000D02*
X290322000Y-148463000D01*
X290322000Y-148463000D02*
X241427000Y-148463000D01*
X241427000Y-148463000D02*
X235712000Y-142748000D01*
X235712000Y-142748000D02*
X233172000Y-142748000D01*
X197612000Y-156718000D02*
X202057000Y-156718000D01*
X204597000Y-154178000D02*
X208407000Y-154178000D01*
X202057000Y-156718000D02*
X204597000Y-154178000D01*
X186817000Y-131953000D02*
X191262000Y-131953000D01*
X188087000Y-136398000D02*
X186817000Y-135128000D01*
X186817000Y-135128000D02*
X186817000Y-131953000D01*
X189992000Y-136398000D02*
X188087000Y-136398000D01*
X213487000Y-136398000D02*
X216027000Y-136398000D01*
X212217000Y-137668000D02*
X213487000Y-136398000D01*
X205867000Y-137668000D02*
X212217000Y-137668000D01*
X203327000Y-135128000D02*
X205867000Y-137668000D01*
X194437000Y-135128000D02*
X203327000Y-135128000D01*
X191262000Y-131953000D02*
X194437000Y-135128000D01*
X216027000Y-136398000D02*
X219837000Y-136398000D01*
X221107000Y-137668000D02*
X225552000Y-137668000D01*
X219837000Y-136398000D02*
X221107000Y-137668000D01*
X294767000Y-131318000D02*
X283972000Y-142113000D01*
X229362000Y-137668000D02*
X225552000Y-137668000D01*
X230632000Y-136398000D02*
X229362000Y-137668000D01*
X235712000Y-136398000D02*
X230632000Y-136398000D01*
X241427000Y-142113000D02*
X235712000Y-136398000D01*
X283972000Y-142113000D02*
X241427000Y-142113000D01*
X88392000Y-130048000D02*
X89027000Y-130048000D01*
X89027000Y-130048000D02*
X91567000Y-127508000D01*
X91567000Y-127508000D02*
X92837000Y-128778000D01*
X92837000Y-128778000D02*
X119507000Y-128778000D01*
X119507000Y-128778000D02*
X120777000Y-130048000D01*
X120777000Y-130048000D02*
X123317000Y-130048000D01*
X179832000Y-156718000D02*
X177292000Y-156718000D01*
X169672000Y-158623000D02*
X168402000Y-159893000D01*
X175387000Y-158623000D02*
X169672000Y-158623000D01*
X177292000Y-156718000D02*
X175387000Y-158623000D01*
X158877000Y-148463000D02*
X145542000Y-148463000D01*
X145542000Y-148463000D02*
X143637000Y-146558000D01*
X88392000Y-142748000D02*
X90932000Y-142748000D01*
X94742000Y-146558000D02*
X143637000Y-146558000D01*
X90932000Y-142748000D02*
X94742000Y-146558000D01*
X170942000Y-133858000D02*
X172212000Y-133858000D01*
X169672000Y-135128000D02*
X170942000Y-133858000D01*
X169672000Y-140208000D02*
X169672000Y-135128000D01*
X166497000Y-143383000D02*
X169672000Y-140208000D01*
X166497000Y-146558000D02*
X166497000Y-143383000D01*
X163322000Y-149733000D02*
X166497000Y-146558000D01*
X160147000Y-149733000D02*
X163322000Y-149733000D01*
X158877000Y-148463000D02*
X160147000Y-149733000D01*
X162052000Y-135128000D02*
X170307000Y-126873000D01*
X170307000Y-126873000D02*
X171577000Y-126873000D01*
X185547000Y-126873000D02*
X171577000Y-126873000D01*
X162052000Y-135128000D02*
X161417000Y-135128000D01*
X163957000Y-147193000D02*
X146812000Y-147193000D01*
X146812000Y-147193000D02*
X145542000Y-147193000D01*
X145542000Y-147193000D02*
X141097000Y-142748000D01*
X165862000Y-145288000D02*
X163957000Y-147193000D01*
X165862000Y-142748000D02*
X165862000Y-145288000D01*
X169037000Y-139573000D02*
X165862000Y-142748000D01*
X169037000Y-134493000D02*
X169037000Y-139573000D01*
X172212000Y-131318000D02*
X169037000Y-134493000D01*
X173482000Y-131318000D02*
X172212000Y-131318000D01*
X141097000Y-142748000D02*
X140462000Y-142748000D01*
X115697000Y-142748000D02*
X119507000Y-142748000D01*
X137922000Y-142748000D02*
X140462000Y-142748000D01*
X134112000Y-138938000D02*
X137922000Y-142748000D01*
X130937000Y-138938000D02*
X134112000Y-138938000D01*
X125857000Y-144018000D02*
X130937000Y-138938000D01*
X120777000Y-144018000D02*
X125857000Y-144018000D01*
X119507000Y-142748000D02*
X120777000Y-144018000D01*
X162052000Y-131318000D02*
X169037000Y-124333000D01*
X169037000Y-124333000D02*
X170307000Y-124333000D01*
X184277000Y-124333000D02*
X188087000Y-124333000D01*
X188087000Y-124333000D02*
X189357000Y-125603000D01*
X233807000Y-125603000D02*
X189357000Y-125603000D01*
X238252000Y-125603000D02*
X233807000Y-125603000D01*
X184277000Y-124333000D02*
X174752000Y-124333000D01*
X174752000Y-124333000D02*
X170307000Y-124333000D01*
X143002000Y-137668000D02*
X146812000Y-137668000D01*
X146812000Y-137668000D02*
X150622000Y-133858000D01*
X150622000Y-133858000D02*
X156337000Y-133858000D01*
X156337000Y-133858000D02*
X158877000Y-131318000D01*
X158877000Y-131318000D02*
X162052000Y-131318000D01*
X140462000Y-140208000D02*
X143002000Y-137668000D01*
X182372000Y-119253000D02*
X159512000Y-119253000D01*
X113157000Y-119253000D02*
X123952000Y-119253000D01*
X159512000Y-119253000D02*
X123952000Y-119253000D01*
X106172000Y-132588000D02*
X111252000Y-132588000D01*
X113792000Y-130048000D02*
X115697000Y-130048000D01*
X111252000Y-132588000D02*
X113792000Y-130048000D01*
X161417000Y-145288000D02*
X157607000Y-145288000D01*
X156337000Y-144018000D02*
X149352000Y-144018000D01*
X157607000Y-145288000D02*
X156337000Y-144018000D01*
X179197000Y-129413000D02*
X171577000Y-129413000D01*
X181102000Y-129413000D02*
X179197000Y-129413000D01*
X156337000Y-142748000D02*
X153797000Y-142748000D01*
X157607000Y-141478000D02*
X156337000Y-142748000D01*
X164592000Y-141478000D02*
X157607000Y-141478000D01*
X167767000Y-138303000D02*
X164592000Y-141478000D01*
X167767000Y-133223000D02*
X167767000Y-138303000D01*
X171577000Y-129413000D02*
X167767000Y-133223000D01*
X135382000Y-161798000D02*
X127127000Y-153543000D01*
X77597000Y-130683000D02*
X80772000Y-127508000D01*
X77597000Y-151003000D02*
X77597000Y-130683000D01*
X80137000Y-153543000D02*
X77597000Y-151003000D01*
X127127000Y-153543000D02*
X80137000Y-153543000D01*
X79502000Y-154178000D02*
X78232000Y-152908000D01*
X78232000Y-152908000D02*
X74422000Y-152908000D01*
X125222000Y-154178000D02*
X132842000Y-161798000D01*
X125222000Y-154178000D02*
X85852000Y-154178000D01*
X85852000Y-154178000D02*
X79502000Y-154178000D01*
X120142000Y-159258000D02*
X122682000Y-161798000D01*
X105537000Y-156718000D02*
X85852000Y-156718000D01*
X108077000Y-159258000D02*
X105537000Y-156718000D01*
X120142000Y-159258000D02*
X108077000Y-159258000D01*
X75692000Y-156718000D02*
X85852000Y-156718000D01*
X78867000Y-154813000D02*
X78232000Y-154178000D01*
X78232000Y-154178000D02*
X76962000Y-154178000D01*
X123317000Y-154813000D02*
X85852000Y-154813000D01*
X123317000Y-154813000D02*
X130302000Y-161798000D01*
X85852000Y-154813000D02*
X78867000Y-154813000D01*
X88392000Y-137668000D02*
X90932000Y-135128000D01*
X90932000Y-135128000D02*
X98552000Y-135128000D01*
X137922000Y-161798000D02*
X129032000Y-152908000D01*
X78232000Y-140208000D02*
X80772000Y-137668000D01*
X78232000Y-150368000D02*
X78232000Y-140208000D01*
X80772000Y-152908000D02*
X78232000Y-150368000D01*
X129032000Y-152908000D02*
X80772000Y-152908000D01*
X88392000Y-135128000D02*
X89662000Y-135128000D01*
X119507000Y-138938000D02*
X123317000Y-142748000D01*
X111887000Y-138938000D02*
X119507000Y-138938000D01*
X109347000Y-136398000D02*
X111887000Y-138938000D01*
X103632000Y-136398000D02*
X109347000Y-136398000D01*
X101092000Y-133858000D02*
X103632000Y-136398000D01*
X90932000Y-133858000D02*
X101092000Y-133858000D01*
X89662000Y-135128000D02*
X90932000Y-133858000D01*
X122047000Y-158623000D02*
X108712000Y-158623000D01*
X108712000Y-158623000D02*
X105537000Y-155448000D01*
X105537000Y-155448000D02*
X78232000Y-155448000D01*
X122047000Y-158623000D02*
X125222000Y-161798000D01*
X94742000Y-127508000D02*
X101727000Y-120523000D01*
X101727000Y-120523000D02*
X189992000Y-120523000D01*
X189992000Y-133858000D02*
X191897000Y-133858000D01*
X194437000Y-136398000D02*
X197612000Y-136398000D01*
X191897000Y-133858000D02*
X194437000Y-136398000D01*
X113157000Y-133858000D02*
X118237000Y-133858000D01*
X111887000Y-133858000D02*
X113157000Y-133858000D01*
X130937000Y-130048000D02*
X132842000Y-130048000D01*
X124587000Y-136398000D02*
X130937000Y-130048000D01*
X120777000Y-136398000D02*
X124587000Y-136398000D01*
X118237000Y-133858000D02*
X120777000Y-136398000D01*
X184277000Y-123698000D02*
X188722000Y-123698000D01*
X188722000Y-123698000D02*
X189357000Y-124333000D01*
X177927000Y-123063000D02*
X183642000Y-123063000D01*
X165227000Y-123063000D02*
X177927000Y-123063000D01*
X132842000Y-132588000D02*
X134747000Y-132588000D01*
X159512000Y-128778000D02*
X163957000Y-124333000D01*
X138557000Y-128778000D02*
X159512000Y-128778000D01*
X134747000Y-132588000D02*
X138557000Y-128778000D01*
X163957000Y-124333000D02*
X165227000Y-123063000D01*
X189357000Y-124333000D02*
X235077000Y-124333000D01*
X183642000Y-123063000D02*
X184277000Y-123698000D01*
X132842000Y-137668000D02*
X140462000Y-137668000D01*
X123317000Y-140208000D02*
X126492000Y-140208000D01*
X129032000Y-137668000D02*
X132842000Y-137668000D01*
X126492000Y-140208000D02*
X129032000Y-137668000D01*
X98552000Y-130048000D02*
X100457000Y-130048000D01*
X119507000Y-136398000D02*
X123317000Y-140208000D01*
X111887000Y-136398000D02*
X119507000Y-136398000D01*
X109347000Y-133858000D02*
X111887000Y-136398000D01*
X104267000Y-133858000D02*
X109347000Y-133858000D01*
X100457000Y-130048000D02*
X104267000Y-133858000D01*
X123317000Y-145288000D02*
X126492000Y-145288000D01*
X131572000Y-140208000D02*
X132842000Y-140208000D01*
X126492000Y-145288000D02*
X131572000Y-140208000D01*
X123317000Y-137668000D02*
X126492000Y-137668000D01*
X150622000Y-132588000D02*
X153797000Y-132588000D01*
X146812000Y-136398000D02*
X150622000Y-132588000D01*
X127762000Y-136398000D02*
X146812000Y-136398000D01*
X126492000Y-137668000D02*
X127762000Y-136398000D01*
X176022000Y-130683000D02*
X174752000Y-130683000D01*
X161417000Y-142748000D02*
X164592000Y-142748000D01*
X164592000Y-142748000D02*
X168402000Y-138938000D01*
X168402000Y-138938000D02*
X168402000Y-133858000D01*
X168402000Y-133858000D02*
X172212000Y-130048000D01*
X172212000Y-130048000D02*
X174117000Y-130048000D01*
X174117000Y-130048000D02*
X174752000Y-130683000D01*
X221107000Y-132588000D02*
X225552000Y-132588000D01*
X219202000Y-130683000D02*
X221107000Y-132588000D01*
X176022000Y-130683000D02*
X219202000Y-130683000D01*
X266827000Y-131318000D02*
X259842000Y-138303000D01*
X229362000Y-132588000D02*
X225552000Y-132588000D01*
X230632000Y-133858000D02*
X229362000Y-132588000D01*
X235712000Y-133858000D02*
X230632000Y-133858000D01*
X240157000Y-138303000D02*
X235712000Y-133858000D01*
X259842000Y-138303000D02*
X240157000Y-138303000D01*
X242062000Y-134493000D02*
X239522000Y-134493000D01*
X248412000Y-134493000D02*
X242062000Y-134493000D01*
X251587000Y-131318000D02*
X248412000Y-134493000D01*
X162052000Y-133858000D02*
X169672000Y-126238000D01*
X169672000Y-126238000D02*
X170942000Y-126238000D01*
X170942000Y-126238000D02*
X184277000Y-126238000D01*
X184277000Y-126238000D02*
X184912000Y-125603000D01*
X184912000Y-125603000D02*
X186182000Y-125603000D01*
X186182000Y-125603000D02*
X189357000Y-128778000D01*
X189357000Y-128778000D02*
X229362000Y-128778000D01*
X229362000Y-128778000D02*
X230632000Y-130048000D01*
X230632000Y-130048000D02*
X233172000Y-130048000D01*
X156337000Y-135128000D02*
X157607000Y-133858000D01*
X157607000Y-133858000D02*
X162052000Y-133858000D01*
X153797000Y-135128000D02*
X156337000Y-135128000D01*
X162687000Y-137668000D02*
X166497000Y-133858000D01*
X162687000Y-137668000D02*
X161417000Y-137668000D01*
X166497000Y-133858000D02*
X166497000Y-131953000D01*
X221107000Y-130048000D02*
X225552000Y-130048000D01*
X220472000Y-129413000D02*
X221107000Y-130048000D01*
X186182000Y-129413000D02*
X220472000Y-129413000D01*
X185547000Y-128778000D02*
X186182000Y-129413000D01*
X184277000Y-127508000D02*
X185547000Y-128778000D01*
X172212000Y-127508000D02*
X184277000Y-127508000D01*
X172212000Y-127508000D02*
X170942000Y-127508000D01*
X166497000Y-131953000D02*
X170942000Y-127508000D01*
X249047000Y-131318000D02*
X242697000Y-131318000D01*
X229362000Y-130048000D02*
X225552000Y-130048000D01*
X230632000Y-131318000D02*
X242697000Y-131318000D01*
X229362000Y-130048000D02*
X230632000Y-131318000D01*
X172847000Y-128143000D02*
X171577000Y-128143000D01*
X167132000Y-132588000D02*
X167132000Y-135128000D01*
X171577000Y-128143000D02*
X167132000Y-132588000D01*
X153797000Y-140208000D02*
X156337000Y-140208000D01*
X156337000Y-140208000D02*
X157607000Y-138938000D01*
X157607000Y-138938000D02*
X163322000Y-138938000D01*
X163322000Y-138938000D02*
X167132000Y-135128000D01*
X230632000Y-132588000D02*
X233172000Y-132588000D01*
X229362000Y-131318000D02*
X230632000Y-132588000D01*
X221107000Y-131318000D02*
X229362000Y-131318000D01*
X219837000Y-130048000D02*
X221107000Y-131318000D01*
X185547000Y-130048000D02*
X219837000Y-130048000D01*
X183642000Y-128143000D02*
X185547000Y-130048000D01*
X172847000Y-128143000D02*
X183642000Y-128143000D01*
X254127000Y-131318000D02*
X249682000Y-135763000D01*
X235712000Y-132588000D02*
X233172000Y-132588000D01*
X238887000Y-135763000D02*
X235712000Y-132588000D01*
X249682000Y-135763000D02*
X238887000Y-135763000D01*
X244602000Y-137033000D02*
X242062000Y-137033000D01*
X253492000Y-137033000D02*
X244602000Y-137033000D01*
X259207000Y-131318000D02*
X253492000Y-137033000D01*
X229362000Y-127508000D02*
X225552000Y-127508000D01*
X235077000Y-128778000D02*
X230632000Y-128778000D01*
X230632000Y-128778000D02*
X229362000Y-127508000D01*
X162052000Y-132588000D02*
X169037000Y-125603000D01*
X169037000Y-125603000D02*
X170307000Y-125603000D01*
X225552000Y-127508000D02*
X189992000Y-127508000D01*
X162052000Y-132588000D02*
X161417000Y-132588000D01*
X182372000Y-125603000D02*
X170307000Y-125603000D01*
X183007000Y-124968000D02*
X182372000Y-125603000D01*
X187452000Y-124968000D02*
X183007000Y-124968000D01*
X188087000Y-125603000D02*
X187452000Y-124968000D01*
X189992000Y-127508000D02*
X188087000Y-125603000D01*
X94742000Y-137668000D02*
X96012000Y-138938000D01*
X101727000Y-137668000D02*
X106172000Y-137668000D01*
X100457000Y-138938000D02*
X101727000Y-137668000D01*
X96012000Y-138938000D02*
X100457000Y-138938000D01*
X91567000Y-137668000D02*
X94742000Y-137668000D01*
X98552000Y-140208000D02*
X100457000Y-140208000D01*
X111887000Y-140208000D02*
X115697000Y-140208000D01*
X110617000Y-138938000D02*
X111887000Y-140208000D01*
X101727000Y-138938000D02*
X110617000Y-138938000D01*
X100457000Y-140208000D02*
X101727000Y-138938000D01*
D24*
X317627000Y-145923000D02*
X317627000Y-140843000D01*
X317627000Y-145923000D02*
X317627000Y-152908000D01*
D25*
X244602000Y-139573000D02*
X245872000Y-139573000D01*
X269367000Y-131318000D02*
X261112000Y-139573000D01*
X261112000Y-139573000D02*
X245872000Y-139573000D01*
M02*
