M48
;DRILL file {KiCad 4.0.7} date 07/01/18 22:05:06
;FORMAT={-:-/ absolute / inch / decimal}
FMAT,2
INCH,TZ
T1C0.024
T2C0.031
T3C0.039
T4C0.051
T5C0.067
%
G90
G05
M72
T1
X2.93Y-6.02
X2.98Y-6.17
X3.03Y-6.07
X3.08Y-6.12
X3.28Y-4.645
X3.83Y-4.645
X4.03Y-4.795
X4.405Y-5.27
X4.455Y-4.695
X4.555Y-4.645
X4.655Y-5.12
X4.755Y-5.295
X5.38Y-4.645
X5.88Y-5.67
X6.255Y-6.045
X6.28Y-4.695
X6.355Y-4.645
X6.43Y-5.895
X6.63Y-6.295
X6.83Y-5.17
X6.855Y-5.87
X6.88Y-4.895
X6.98Y-4.645
X7.13Y-5.095
X7.18Y-4.695
X7.305Y-4.995
X7.355Y-4.795
X7.43Y-4.645
X7.48Y-4.745
X7.58Y-6.17
X7.63Y-5.22
X8.03Y-5.52
X8.305Y-4.645
X8.63Y-5.195
X8.68Y-4.845
X8.78Y-4.645
X8.88Y-6.295
X9.08Y-6.47
X9.255Y-4.895
X9.255Y-5.07
X9.38Y-4.945
X9.43Y-5.295
X9.53Y-5.395
X9.63Y-5.495
T2
X3.18Y-5.02
X3.18Y-5.12
X3.18Y-5.22
X3.18Y-5.32
X3.18Y-5.42
X3.18Y-5.52
X3.18Y-5.62
X3.18Y-5.72
X3.2331Y-5.895
X3.43Y-5.895
X3.48Y-5.02
X3.48Y-5.12
X3.48Y-5.22
X3.48Y-5.32
X3.48Y-5.42
X3.48Y-5.52
X3.48Y-5.62
X3.48Y-5.72
X3.605Y-5.02
X3.605Y-5.42
X3.73Y-5.02
X3.73Y-5.42
X3.88Y-5.12
X3.88Y-5.22
X3.88Y-5.32
X3.88Y-5.42
X3.88Y-5.52
X3.88Y-5.62
X3.88Y-5.72
X3.9331Y-5.895
X4.13Y-5.895
X4.18Y-5.12
X4.18Y-5.22
X4.18Y-5.32
X4.18Y-5.42
X4.18Y-5.52
X4.18Y-5.62
X4.18Y-5.72
X4.305Y-5.12
X4.305Y-5.52
X4.555Y-5.02
X4.555Y-5.12
X4.555Y-5.22
X4.555Y-5.32
X4.555Y-5.42
X4.555Y-5.52
X4.555Y-5.62
X4.555Y-5.72
X4.6081Y-5.895
X4.6081Y-6.17
X4.805Y-5.895
X4.805Y-6.17
X4.855Y-5.02
X4.855Y-5.12
X4.855Y-5.22
X4.855Y-5.32
X4.855Y-5.42
X4.855Y-5.52
X4.855Y-5.62
X4.855Y-5.72
X5.23Y-5.12
X5.23Y-5.22
X5.23Y-5.32
X5.23Y-5.42
X5.23Y-5.52
X5.23Y-5.62
X5.23Y-5.72
X5.2831Y-5.895
X5.48Y-5.895
X5.53Y-5.12
X5.53Y-5.22
X5.53Y-5.32
X5.53Y-5.42
X5.53Y-5.52
X5.53Y-5.62
X5.53Y-5.72
X5.655Y-4.92
X5.655Y-5.12
X5.655Y-5.52
X5.93Y-5.895
X6.055Y-4.92
X6.055Y-5.12
X6.055Y-5.22
X6.055Y-5.32
X6.055Y-5.42
X6.055Y-5.52
X6.055Y-5.62
X6.055Y-5.72
X6.1269Y-5.895
X6.355Y-5.12
X6.355Y-5.22
X6.355Y-5.32
X6.355Y-5.42
X6.355Y-5.52
X6.355Y-5.62
X6.355Y-5.72
X6.78Y-5.27
X6.78Y-5.37
X6.78Y-5.47
X6.78Y-5.57
X6.78Y-5.67
X6.78Y-5.77
X6.78Y-5.87
X6.78Y-5.97
X6.78Y-6.07
X6.78Y-6.17
X6.8331Y-6.37
X7.03Y-6.37
X7.08Y-5.27
X7.08Y-5.37
X7.08Y-5.47
X7.08Y-5.57
X7.08Y-5.67
X7.08Y-5.77
X7.08Y-5.87
X7.08Y-5.97
X7.08Y-6.07
X7.08Y-6.17
X7.48Y-5.27
X7.48Y-5.37
X7.48Y-5.47
X7.48Y-5.57
X7.48Y-5.67
X7.48Y-5.77
X7.48Y-5.87
X7.48Y-5.97
X7.48Y-6.07
X7.48Y-6.17
X7.5331Y-6.37
X7.73Y-6.37
X7.78Y-5.27
X7.78Y-5.37
X7.78Y-5.47
X7.78Y-5.57
X7.78Y-5.67
X7.78Y-5.77
X7.78Y-5.87
X7.78Y-5.97
X7.78Y-6.07
X7.78Y-6.17
X8.205Y-5.27
X8.205Y-5.37
X8.205Y-5.47
X8.205Y-5.57
X8.205Y-5.67
X8.205Y-5.77
X8.205Y-5.87
X8.205Y-5.97
X8.205Y-6.07
X8.205Y-6.17
X8.2581Y-6.37
X8.455Y-6.37
X8.505Y-5.27
X8.505Y-5.37
X8.505Y-5.47
X8.505Y-5.57
X8.505Y-5.67
X8.505Y-5.77
X8.505Y-5.87
X8.505Y-5.97
X8.505Y-6.07
X8.505Y-6.17
X8.88Y-5.02
X8.88Y-5.12
X8.88Y-5.22
X8.88Y-5.32
X8.88Y-5.42
X8.88Y-5.52
X8.88Y-5.62
X8.88Y-5.72
X9.18Y-5.02
X9.18Y-5.12
X9.18Y-5.22
X9.18Y-5.32
X9.18Y-5.42
X9.18Y-5.52
X9.18Y-5.62
X9.18Y-5.72
X13.0831Y-5.145
X13.0831Y-5.345
X13.28Y-5.145
X13.28Y-5.345
X13.43Y-5.145
X13.43Y-5.545
X13.68Y-6.12
X13.73Y-5.27
X13.73Y-5.87
X14.03Y-5.27
X14.03Y-5.87
X14.08Y-6.12
T3
X4.53Y-6.37
X4.63Y-6.37
X4.73Y-6.37
X4.83Y-6.37
X4.93Y-6.37
X5.03Y-6.37
X5.13Y-6.37
X5.23Y-6.37
X5.33Y-6.37
X5.43Y-6.37
X5.53Y-6.37
X5.63Y-6.37
X5.73Y-6.37
X5.83Y-6.37
X5.93Y-6.37
X6.03Y-6.37
X6.13Y-6.37
X6.23Y-6.37
X6.33Y-6.37
X6.43Y-6.37
X9.805Y-5.07
X9.805Y-5.17
X9.905Y-5.07
X9.905Y-5.17
X10.005Y-5.07
X10.005Y-5.17
X10.105Y-5.07
X10.105Y-5.17
X10.205Y-5.07
X10.205Y-5.17
X10.305Y-5.07
X10.305Y-5.17
X10.405Y-5.07
X10.405Y-5.17
X10.505Y-5.07
X10.505Y-5.17
X10.605Y-5.07
X10.605Y-5.17
X10.705Y-5.07
X10.705Y-5.17
X10.805Y-5.07
X10.805Y-5.17
X10.905Y-5.07
X10.905Y-5.17
X11.005Y-5.07
X11.005Y-5.17
X11.105Y-5.07
X11.105Y-5.17
X11.205Y-5.07
X11.205Y-5.17
X11.305Y-5.07
X11.305Y-5.17
X11.405Y-5.07
X11.405Y-5.17
X11.505Y-5.07
X11.505Y-5.17
X11.605Y-5.07
X11.605Y-5.17
X11.705Y-5.07
X11.705Y-5.17
X11.805Y-5.07
X11.805Y-5.17
X11.905Y-5.07
X11.905Y-5.17
X12.005Y-5.07
X12.005Y-5.17
X12.105Y-5.07
X12.105Y-5.17
X12.205Y-5.07
X12.205Y-5.17
T4
X12.055Y-6.02
X12.28Y-6.02
X12.505Y-6.02
T5
X12.28Y-5.545
X12.28Y-5.745
X12.505Y-5.545
X12.505Y-5.745
T0
M30
