G04 #@! TF.FileFunction,Soldermask,Bot*
%FSLAX46Y46*%
G04 Gerber Fmt 4.6, Leading zero omitted, Abs format (unit mm)*
G04 Created by KiCad (PCBNEW 4.0.7) date 05/27/18 19:53:15*
%MOMM*%
%LPD*%
G01*
G04 APERTURE LIST*
%ADD10C,0.100000*%
%ADD11C,2.000000*%
%ADD12R,2.000000X2.000000*%
%ADD13O,2.000000X2.000000*%
%ADD14R,2.100000X2.100000*%
%ADD15O,2.100000X2.100000*%
%ADD16C,2.100000*%
%ADD17C,3.000000*%
%ADD18C,3.400000*%
%ADD19C,3.600000*%
G04 APERTURE END LIST*
D10*
D11*
X87122000Y-149733000D03*
X82122000Y-149733000D03*
X104902000Y-149733000D03*
X99902000Y-149733000D03*
X122047000Y-149733000D03*
X117047000Y-149733000D03*
X139192000Y-149733000D03*
X134192000Y-149733000D03*
X178562000Y-161798000D03*
X173562000Y-161798000D03*
X196342000Y-161798000D03*
X191342000Y-161798000D03*
X337312000Y-130683000D03*
X332312000Y-130683000D03*
X150622000Y-149733000D03*
X155622000Y-149733000D03*
D12*
X208407000Y-133858000D03*
D13*
X216027000Y-156718000D03*
X208407000Y-136398000D03*
X216027000Y-154178000D03*
X208407000Y-138938000D03*
X216027000Y-151638000D03*
X208407000Y-141478000D03*
X216027000Y-149098000D03*
X208407000Y-144018000D03*
X216027000Y-146558000D03*
X208407000Y-146558000D03*
X216027000Y-144018000D03*
X208407000Y-149098000D03*
X216027000Y-141478000D03*
X208407000Y-151638000D03*
X216027000Y-138938000D03*
X208407000Y-154178000D03*
X216027000Y-136398000D03*
X208407000Y-156718000D03*
X216027000Y-133858000D03*
D12*
X189992000Y-133858000D03*
D13*
X197612000Y-156718000D03*
X189992000Y-136398000D03*
X197612000Y-154178000D03*
X189992000Y-138938000D03*
X197612000Y-151638000D03*
X189992000Y-141478000D03*
X197612000Y-149098000D03*
X189992000Y-144018000D03*
X197612000Y-146558000D03*
X189992000Y-146558000D03*
X197612000Y-144018000D03*
X189992000Y-149098000D03*
X197612000Y-141478000D03*
X189992000Y-151638000D03*
X197612000Y-138938000D03*
X189992000Y-154178000D03*
X197612000Y-136398000D03*
X189992000Y-156718000D03*
X197612000Y-133858000D03*
D12*
X172212000Y-133858000D03*
D13*
X179832000Y-156718000D03*
X172212000Y-136398000D03*
X179832000Y-154178000D03*
X172212000Y-138938000D03*
X179832000Y-151638000D03*
X172212000Y-141478000D03*
X179832000Y-149098000D03*
X172212000Y-144018000D03*
X179832000Y-146558000D03*
X172212000Y-146558000D03*
X179832000Y-144018000D03*
X172212000Y-149098000D03*
X179832000Y-141478000D03*
X172212000Y-151638000D03*
X179832000Y-138938000D03*
X172212000Y-154178000D03*
X179832000Y-136398000D03*
X172212000Y-156718000D03*
X179832000Y-133858000D03*
D12*
X80772000Y-127508000D03*
D13*
X88392000Y-145288000D03*
X80772000Y-130048000D03*
X88392000Y-142748000D03*
X80772000Y-132588000D03*
X88392000Y-140208000D03*
X80772000Y-135128000D03*
X88392000Y-137668000D03*
X80772000Y-137668000D03*
X88392000Y-135128000D03*
X80772000Y-140208000D03*
X88392000Y-132588000D03*
X80772000Y-142748000D03*
X88392000Y-130048000D03*
X80772000Y-145288000D03*
X88392000Y-127508000D03*
D12*
X132842000Y-130048000D03*
D13*
X140462000Y-145288000D03*
X132842000Y-132588000D03*
X140462000Y-142748000D03*
X132842000Y-135128000D03*
X140462000Y-140208000D03*
X132842000Y-137668000D03*
X140462000Y-137668000D03*
X132842000Y-140208000D03*
X140462000Y-135128000D03*
X132842000Y-142748000D03*
X140462000Y-132588000D03*
X132842000Y-145288000D03*
X140462000Y-130048000D03*
D12*
X153797000Y-130048000D03*
D13*
X161417000Y-145288000D03*
X153797000Y-132588000D03*
X161417000Y-142748000D03*
X153797000Y-135128000D03*
X161417000Y-140208000D03*
X153797000Y-137668000D03*
X161417000Y-137668000D03*
X153797000Y-140208000D03*
X161417000Y-135128000D03*
X153797000Y-142748000D03*
X161417000Y-132588000D03*
X153797000Y-145288000D03*
X161417000Y-130048000D03*
D12*
X98552000Y-130048000D03*
D13*
X106172000Y-145288000D03*
X98552000Y-132588000D03*
X106172000Y-142748000D03*
X98552000Y-135128000D03*
X106172000Y-140208000D03*
X98552000Y-137668000D03*
X106172000Y-137668000D03*
X98552000Y-140208000D03*
X106172000Y-135128000D03*
X98552000Y-142748000D03*
X106172000Y-132588000D03*
X98552000Y-145288000D03*
X106172000Y-130048000D03*
D12*
X115697000Y-127508000D03*
D13*
X123317000Y-145288000D03*
X115697000Y-130048000D03*
X123317000Y-142748000D03*
X115697000Y-132588000D03*
X123317000Y-140208000D03*
X115697000Y-135128000D03*
X123317000Y-137668000D03*
X115697000Y-137668000D03*
X123317000Y-135128000D03*
X115697000Y-140208000D03*
X123317000Y-132588000D03*
X115697000Y-142748000D03*
X123317000Y-130048000D03*
X115697000Y-145288000D03*
X123317000Y-127508000D03*
D12*
X348742000Y-133858000D03*
D11*
X356362000Y-133858000D03*
X356362000Y-149098000D03*
X348742000Y-149098000D03*
D14*
X163322000Y-161798000D03*
D15*
X160782000Y-161798000D03*
X158242000Y-161798000D03*
X155702000Y-161798000D03*
X153162000Y-161798000D03*
X150622000Y-161798000D03*
X148082000Y-161798000D03*
X145542000Y-161798000D03*
X143002000Y-161798000D03*
X140462000Y-161798000D03*
X137922000Y-161798000D03*
X135382000Y-161798000D03*
X132842000Y-161798000D03*
X130302000Y-161798000D03*
X127762000Y-161798000D03*
X125222000Y-161798000D03*
X122682000Y-161798000D03*
X120142000Y-161798000D03*
X117602000Y-161798000D03*
X115062000Y-161798000D03*
D12*
X225552000Y-127508000D03*
D13*
X233172000Y-145288000D03*
X225552000Y-130048000D03*
X233172000Y-142748000D03*
X225552000Y-132588000D03*
X233172000Y-140208000D03*
X225552000Y-135128000D03*
X233172000Y-137668000D03*
X225552000Y-137668000D03*
X233172000Y-135128000D03*
X225552000Y-140208000D03*
X233172000Y-132588000D03*
X225552000Y-142748000D03*
X233172000Y-130048000D03*
X225552000Y-145288000D03*
X233172000Y-127508000D03*
D14*
X310007000Y-128778000D03*
D16*
X310007000Y-131318000D03*
X307467000Y-128778000D03*
X307467000Y-131318000D03*
X304927000Y-128778000D03*
X304927000Y-131318000D03*
X302387000Y-128778000D03*
X302387000Y-131318000D03*
X299847000Y-128778000D03*
X299847000Y-131318000D03*
X297307000Y-128778000D03*
X297307000Y-131318000D03*
X294767000Y-128778000D03*
X294767000Y-131318000D03*
X292227000Y-128778000D03*
X292227000Y-131318000D03*
X289687000Y-128778000D03*
X289687000Y-131318000D03*
X287147000Y-128778000D03*
X287147000Y-131318000D03*
X284607000Y-128778000D03*
X284607000Y-131318000D03*
X282067000Y-128778000D03*
X282067000Y-131318000D03*
X279527000Y-128778000D03*
X279527000Y-131318000D03*
X276987000Y-128778000D03*
X276987000Y-131318000D03*
X274447000Y-128778000D03*
X274447000Y-131318000D03*
X271907000Y-128778000D03*
X271907000Y-131318000D03*
X269367000Y-128778000D03*
X269367000Y-131318000D03*
X266827000Y-128778000D03*
X266827000Y-131318000D03*
X264287000Y-128778000D03*
X264287000Y-131318000D03*
X261747000Y-128778000D03*
X261747000Y-131318000D03*
X259207000Y-128778000D03*
X259207000Y-131318000D03*
X256667000Y-128778000D03*
X256667000Y-131318000D03*
X254127000Y-128778000D03*
X254127000Y-131318000D03*
X251587000Y-128778000D03*
X251587000Y-131318000D03*
X249047000Y-128778000D03*
X249047000Y-131318000D03*
D12*
X122047000Y-156718000D03*
D11*
X117047000Y-156718000D03*
D12*
X214757000Y-161798000D03*
D11*
X209757000Y-161798000D03*
D12*
X337312000Y-135763000D03*
D11*
X332312000Y-135763000D03*
D12*
X94742000Y-127508000D03*
D13*
X94742000Y-137668000D03*
D11*
X143637000Y-140208000D03*
D13*
X143637000Y-130048000D03*
D11*
X153797000Y-124968000D03*
D13*
X143637000Y-124968000D03*
D11*
X109347000Y-140208000D03*
D13*
X109347000Y-130048000D03*
D11*
X341122000Y-140843000D03*
D13*
X341122000Y-130683000D03*
D11*
X347472000Y-155448000D03*
D13*
X357632000Y-155448000D03*
D12*
X91567000Y-127508000D03*
D13*
X91567000Y-137668000D03*
D17*
X317627000Y-152908000D03*
X306197000Y-152908000D03*
X311912000Y-152908000D03*
D18*
X317627000Y-145923000D03*
X317627000Y-140843000D03*
X311912000Y-145923000D03*
X311912000Y-140843000D03*
D19*
X59690000Y-120904000D03*
X59690000Y-156464000D03*
X321056000Y-161798000D03*
X262382000Y-120904000D03*
X358648000Y-120904000D03*
M02*
