G04 #@! TF.FileFunction,Legend,Top*
%FSLAX46Y46*%
G04 Gerber Fmt 4.6, Leading zero omitted, Abs format (unit mm)*
G04 Created by KiCad (PCBNEW 4.0.7) date 05/04/18 04:30:26*
%MOMM*%
%LPD*%
G01*
G04 APERTURE LIST*
%ADD10C,0.100000*%
%ADD11C,0.150000*%
%ADD12C,0.300000*%
%ADD13C,0.200000*%
%ADD14C,0.400000*%
%ADD15C,0.120000*%
%ADD16C,0.010000*%
G04 APERTURE END LIST*
D10*
D11*
X148883666Y-127055619D02*
X149217000Y-127531810D01*
X149455095Y-127055619D02*
X149455095Y-128055619D01*
X149074142Y-128055619D01*
X148978904Y-128008000D01*
X148931285Y-127960381D01*
X148883666Y-127865143D01*
X148883666Y-127722286D01*
X148931285Y-127627048D01*
X148978904Y-127579429D01*
X149074142Y-127531810D01*
X149455095Y-127531810D01*
X148502714Y-127960381D02*
X148455095Y-128008000D01*
X148359857Y-128055619D01*
X148121761Y-128055619D01*
X148026523Y-128008000D01*
X147978904Y-127960381D01*
X147931285Y-127865143D01*
X147931285Y-127769905D01*
X147978904Y-127627048D01*
X148550333Y-127055619D01*
X147931285Y-127055619D01*
X111434619Y-135596334D02*
X111910810Y-135263000D01*
X111434619Y-135024905D02*
X112434619Y-135024905D01*
X112434619Y-135405858D01*
X112387000Y-135501096D01*
X112339381Y-135548715D01*
X112244143Y-135596334D01*
X112101286Y-135596334D01*
X112006048Y-135548715D01*
X111958429Y-135501096D01*
X111910810Y-135405858D01*
X111910810Y-135024905D01*
X112434619Y-135929667D02*
X112434619Y-136548715D01*
X112053667Y-136215381D01*
X112053667Y-136358239D01*
X112006048Y-136453477D01*
X111958429Y-136501096D01*
X111863190Y-136548715D01*
X111625095Y-136548715D01*
X111529857Y-136501096D01*
X111482238Y-136453477D01*
X111434619Y-136358239D01*
X111434619Y-136072524D01*
X111482238Y-135977286D01*
X111529857Y-135929667D01*
X94289619Y-131849905D02*
X95289619Y-131849905D01*
X95289619Y-132088000D01*
X95242000Y-132230858D01*
X95146762Y-132326096D01*
X95051524Y-132373715D01*
X94861048Y-132421334D01*
X94718190Y-132421334D01*
X94527714Y-132373715D01*
X94432476Y-132326096D01*
X94337238Y-132230858D01*
X94289619Y-132088000D01*
X94289619Y-131849905D01*
X94289619Y-133373715D02*
X94289619Y-132802286D01*
X94289619Y-133088000D02*
X95289619Y-133088000D01*
X95146762Y-132992762D01*
X95051524Y-132897524D01*
X95003905Y-132802286D01*
X91114619Y-131849905D02*
X92114619Y-131849905D01*
X92114619Y-132088000D01*
X92067000Y-132230858D01*
X91971762Y-132326096D01*
X91876524Y-132373715D01*
X91686048Y-132421334D01*
X91543190Y-132421334D01*
X91352714Y-132373715D01*
X91257476Y-132326096D01*
X91162238Y-132230858D01*
X91114619Y-132088000D01*
X91114619Y-131849905D01*
X92019381Y-132802286D02*
X92067000Y-132849905D01*
X92114619Y-132945143D01*
X92114619Y-133183239D01*
X92067000Y-133278477D01*
X92019381Y-133326096D01*
X91924143Y-133373715D01*
X91828905Y-133373715D01*
X91686048Y-133326096D01*
X91114619Y-132754667D01*
X91114619Y-133373715D01*
X140009619Y-156845143D02*
X141009619Y-156845143D01*
X141009619Y-157226096D01*
X140962000Y-157321334D01*
X140914381Y-157368953D01*
X140819143Y-157416572D01*
X140676286Y-157416572D01*
X140581048Y-157368953D01*
X140533429Y-157321334D01*
X140485810Y-157226096D01*
X140485810Y-156845143D01*
X140009619Y-158321334D02*
X140009619Y-157845143D01*
X141009619Y-157845143D01*
X140914381Y-158607048D02*
X140962000Y-158654667D01*
X141009619Y-158749905D01*
X141009619Y-158988001D01*
X140962000Y-159083239D01*
X140914381Y-159130858D01*
X140819143Y-159178477D01*
X140723905Y-159178477D01*
X140581048Y-159130858D01*
X140009619Y-158559429D01*
X140009619Y-159178477D01*
X114704857Y-156551334D02*
X114657238Y-156503715D01*
X114609619Y-156360858D01*
X114609619Y-156265620D01*
X114657238Y-156122762D01*
X114752476Y-156027524D01*
X114847714Y-155979905D01*
X115038190Y-155932286D01*
X115181048Y-155932286D01*
X115371524Y-155979905D01*
X115466762Y-156027524D01*
X115562000Y-156122762D01*
X115609619Y-156265620D01*
X115609619Y-156360858D01*
X115562000Y-156503715D01*
X115514381Y-156551334D01*
X114609619Y-157503715D02*
X114609619Y-156932286D01*
X114609619Y-157218000D02*
X115609619Y-157218000D01*
X115466762Y-157122762D01*
X115371524Y-157027524D01*
X115323905Y-156932286D01*
X222559619Y-127476334D02*
X223035810Y-127143000D01*
X222559619Y-126904905D02*
X223559619Y-126904905D01*
X223559619Y-127285858D01*
X223512000Y-127381096D01*
X223464381Y-127428715D01*
X223369143Y-127476334D01*
X223226286Y-127476334D01*
X223131048Y-127428715D01*
X223083429Y-127381096D01*
X223035810Y-127285858D01*
X223035810Y-126904905D01*
X222559619Y-127904905D02*
X223559619Y-127904905D01*
X223559619Y-128285858D01*
X223512000Y-128381096D01*
X223464381Y-128428715D01*
X223369143Y-128476334D01*
X223226286Y-128476334D01*
X223131048Y-128428715D01*
X223083429Y-128381096D01*
X223035810Y-128285858D01*
X223035810Y-127904905D01*
X222559619Y-129428715D02*
X222559619Y-128857286D01*
X222559619Y-129143000D02*
X223559619Y-129143000D01*
X223416762Y-129047762D01*
X223321524Y-128952524D01*
X223273905Y-128857286D01*
X205414619Y-133516810D02*
X206414619Y-133516810D01*
X205509857Y-134564429D02*
X205462238Y-134516810D01*
X205414619Y-134373953D01*
X205414619Y-134278715D01*
X205462238Y-134135857D01*
X205557476Y-134040619D01*
X205652714Y-133993000D01*
X205843190Y-133945381D01*
X205986048Y-133945381D01*
X206176524Y-133993000D01*
X206271762Y-134040619D01*
X206367000Y-134135857D01*
X206414619Y-134278715D01*
X206414619Y-134373953D01*
X206367000Y-134516810D01*
X206319381Y-134564429D01*
X205414619Y-135516810D02*
X205414619Y-134945381D01*
X205414619Y-135231095D02*
X206414619Y-135231095D01*
X206271762Y-135135857D01*
X206176524Y-135040619D01*
X206128905Y-134945381D01*
X186999619Y-133516810D02*
X187999619Y-133516810D01*
X187094857Y-134564429D02*
X187047238Y-134516810D01*
X186999619Y-134373953D01*
X186999619Y-134278715D01*
X187047238Y-134135857D01*
X187142476Y-134040619D01*
X187237714Y-133993000D01*
X187428190Y-133945381D01*
X187571048Y-133945381D01*
X187761524Y-133993000D01*
X187856762Y-134040619D01*
X187952000Y-134135857D01*
X187999619Y-134278715D01*
X187999619Y-134373953D01*
X187952000Y-134516810D01*
X187904381Y-134564429D01*
X187904381Y-134945381D02*
X187952000Y-134993000D01*
X187999619Y-135088238D01*
X187999619Y-135326334D01*
X187952000Y-135421572D01*
X187904381Y-135469191D01*
X187809143Y-135516810D01*
X187713905Y-135516810D01*
X187571048Y-135469191D01*
X186999619Y-134897762D01*
X186999619Y-135516810D01*
X169219619Y-133516810D02*
X170219619Y-133516810D01*
X169314857Y-134564429D02*
X169267238Y-134516810D01*
X169219619Y-134373953D01*
X169219619Y-134278715D01*
X169267238Y-134135857D01*
X169362476Y-134040619D01*
X169457714Y-133993000D01*
X169648190Y-133945381D01*
X169791048Y-133945381D01*
X169981524Y-133993000D01*
X170076762Y-134040619D01*
X170172000Y-134135857D01*
X170219619Y-134278715D01*
X170219619Y-134373953D01*
X170172000Y-134516810D01*
X170124381Y-134564429D01*
X170219619Y-134897762D02*
X170219619Y-135516810D01*
X169838667Y-135183476D01*
X169838667Y-135326334D01*
X169791048Y-135421572D01*
X169743429Y-135469191D01*
X169648190Y-135516810D01*
X169410095Y-135516810D01*
X169314857Y-135469191D01*
X169267238Y-135421572D01*
X169219619Y-135326334D01*
X169219619Y-135040619D01*
X169267238Y-134945381D01*
X169314857Y-134897762D01*
X150804619Y-129706810D02*
X151804619Y-129706810D01*
X150899857Y-130754429D02*
X150852238Y-130706810D01*
X150804619Y-130563953D01*
X150804619Y-130468715D01*
X150852238Y-130325857D01*
X150947476Y-130230619D01*
X151042714Y-130183000D01*
X151233190Y-130135381D01*
X151376048Y-130135381D01*
X151566524Y-130183000D01*
X151661762Y-130230619D01*
X151757000Y-130325857D01*
X151804619Y-130468715D01*
X151804619Y-130563953D01*
X151757000Y-130706810D01*
X151709381Y-130754429D01*
X151804619Y-131611572D02*
X151804619Y-131421095D01*
X151757000Y-131325857D01*
X151709381Y-131278238D01*
X151566524Y-131183000D01*
X151376048Y-131135381D01*
X150995095Y-131135381D01*
X150899857Y-131183000D01*
X150852238Y-131230619D01*
X150804619Y-131325857D01*
X150804619Y-131516334D01*
X150852238Y-131611572D01*
X150899857Y-131659191D01*
X150995095Y-131706810D01*
X151233190Y-131706810D01*
X151328429Y-131659191D01*
X151376048Y-131611572D01*
X151423667Y-131516334D01*
X151423667Y-131325857D01*
X151376048Y-131230619D01*
X151328429Y-131183000D01*
X151233190Y-131135381D01*
X129849619Y-129706810D02*
X130849619Y-129706810D01*
X129944857Y-130754429D02*
X129897238Y-130706810D01*
X129849619Y-130563953D01*
X129849619Y-130468715D01*
X129897238Y-130325857D01*
X129992476Y-130230619D01*
X130087714Y-130183000D01*
X130278190Y-130135381D01*
X130421048Y-130135381D01*
X130611524Y-130183000D01*
X130706762Y-130230619D01*
X130802000Y-130325857D01*
X130849619Y-130468715D01*
X130849619Y-130563953D01*
X130802000Y-130706810D01*
X130754381Y-130754429D01*
X130849619Y-131659191D02*
X130849619Y-131183000D01*
X130373429Y-131135381D01*
X130421048Y-131183000D01*
X130468667Y-131278238D01*
X130468667Y-131516334D01*
X130421048Y-131611572D01*
X130373429Y-131659191D01*
X130278190Y-131706810D01*
X130040095Y-131706810D01*
X129944857Y-131659191D01*
X129897238Y-131611572D01*
X129849619Y-131516334D01*
X129849619Y-131278238D01*
X129897238Y-131183000D01*
X129944857Y-131135381D01*
X112704619Y-127166810D02*
X113704619Y-127166810D01*
X112799857Y-128214429D02*
X112752238Y-128166810D01*
X112704619Y-128023953D01*
X112704619Y-127928715D01*
X112752238Y-127785857D01*
X112847476Y-127690619D01*
X112942714Y-127643000D01*
X113133190Y-127595381D01*
X113276048Y-127595381D01*
X113466524Y-127643000D01*
X113561762Y-127690619D01*
X113657000Y-127785857D01*
X113704619Y-127928715D01*
X113704619Y-128023953D01*
X113657000Y-128166810D01*
X113609381Y-128214429D01*
X113276048Y-128785857D02*
X113323667Y-128690619D01*
X113371286Y-128643000D01*
X113466524Y-128595381D01*
X113514143Y-128595381D01*
X113609381Y-128643000D01*
X113657000Y-128690619D01*
X113704619Y-128785857D01*
X113704619Y-128976334D01*
X113657000Y-129071572D01*
X113609381Y-129119191D01*
X113514143Y-129166810D01*
X113466524Y-129166810D01*
X113371286Y-129119191D01*
X113323667Y-129071572D01*
X113276048Y-128976334D01*
X113276048Y-128785857D01*
X113228429Y-128690619D01*
X113180810Y-128643000D01*
X113085571Y-128595381D01*
X112895095Y-128595381D01*
X112799857Y-128643000D01*
X112752238Y-128690619D01*
X112704619Y-128785857D01*
X112704619Y-128976334D01*
X112752238Y-129071572D01*
X112799857Y-129119191D01*
X112895095Y-129166810D01*
X113085571Y-129166810D01*
X113180810Y-129119191D01*
X113228429Y-129071572D01*
X113276048Y-128976334D01*
X95559619Y-143676810D02*
X96559619Y-143676810D01*
X95654857Y-144724429D02*
X95607238Y-144676810D01*
X95559619Y-144533953D01*
X95559619Y-144438715D01*
X95607238Y-144295857D01*
X95702476Y-144200619D01*
X95797714Y-144153000D01*
X95988190Y-144105381D01*
X96131048Y-144105381D01*
X96321524Y-144153000D01*
X96416762Y-144200619D01*
X96512000Y-144295857D01*
X96559619Y-144438715D01*
X96559619Y-144533953D01*
X96512000Y-144676810D01*
X96464381Y-144724429D01*
X96464381Y-145105381D02*
X96512000Y-145153000D01*
X96559619Y-145248238D01*
X96559619Y-145486334D01*
X96512000Y-145581572D01*
X96464381Y-145629191D01*
X96369143Y-145676810D01*
X96273905Y-145676810D01*
X96131048Y-145629191D01*
X95559619Y-145057762D01*
X95559619Y-145676810D01*
X77779619Y-127166810D02*
X78779619Y-127166810D01*
X77874857Y-128214429D02*
X77827238Y-128166810D01*
X77779619Y-128023953D01*
X77779619Y-127928715D01*
X77827238Y-127785857D01*
X77922476Y-127690619D01*
X78017714Y-127643000D01*
X78208190Y-127595381D01*
X78351048Y-127595381D01*
X78541524Y-127643000D01*
X78636762Y-127690619D01*
X78732000Y-127785857D01*
X78779619Y-127928715D01*
X78779619Y-128023953D01*
X78732000Y-128166810D01*
X78684381Y-128214429D01*
X78446286Y-129071572D02*
X77779619Y-129071572D01*
X78827238Y-128833476D02*
X78112952Y-128595381D01*
X78112952Y-129214429D01*
X207414857Y-161631334D02*
X207367238Y-161583715D01*
X207319619Y-161440858D01*
X207319619Y-161345620D01*
X207367238Y-161202762D01*
X207462476Y-161107524D01*
X207557714Y-161059905D01*
X207748190Y-161012286D01*
X207891048Y-161012286D01*
X208081524Y-161059905D01*
X208176762Y-161107524D01*
X208272000Y-161202762D01*
X208319619Y-161345620D01*
X208319619Y-161440858D01*
X208272000Y-161583715D01*
X208224381Y-161631334D01*
X208224381Y-162012286D02*
X208272000Y-162059905D01*
X208319619Y-162155143D01*
X208319619Y-162393239D01*
X208272000Y-162488477D01*
X208224381Y-162536096D01*
X208129143Y-162583715D01*
X208033905Y-162583715D01*
X207891048Y-162536096D01*
X207319619Y-161964667D01*
X207319619Y-162583715D01*
X189190333Y-161559905D02*
X189190333Y-162036096D01*
X188904619Y-161464667D02*
X189904619Y-161798000D01*
X188904619Y-162131334D01*
X171410333Y-161559905D02*
X171410333Y-162036096D01*
X171124619Y-161464667D02*
X172124619Y-161798000D01*
X171124619Y-162131334D01*
X148359857Y-149566334D02*
X148312238Y-149518715D01*
X148264619Y-149375858D01*
X148264619Y-149280620D01*
X148312238Y-149137762D01*
X148407476Y-149042524D01*
X148502714Y-148994905D01*
X148693190Y-148947286D01*
X148836048Y-148947286D01*
X149026524Y-148994905D01*
X149121762Y-149042524D01*
X149217000Y-149137762D01*
X149264619Y-149280620D01*
X149264619Y-149375858D01*
X149217000Y-149518715D01*
X149169381Y-149566334D01*
X149264619Y-149899667D02*
X149264619Y-150518715D01*
X148883667Y-150185381D01*
X148883667Y-150328239D01*
X148836048Y-150423477D01*
X148788429Y-150471096D01*
X148693190Y-150518715D01*
X148455095Y-150518715D01*
X148359857Y-150471096D01*
X148312238Y-150423477D01*
X148264619Y-150328239D01*
X148264619Y-150042524D01*
X148312238Y-149947286D01*
X148359857Y-149899667D01*
X132040333Y-149494905D02*
X132040333Y-149971096D01*
X131754619Y-149399667D02*
X132754619Y-149733000D01*
X131754619Y-150066334D01*
X114895333Y-149494905D02*
X114895333Y-149971096D01*
X114609619Y-149399667D02*
X115609619Y-149733000D01*
X114609619Y-150066334D01*
X97750333Y-149494905D02*
X97750333Y-149971096D01*
X97464619Y-149399667D02*
X98464619Y-149733000D01*
X97464619Y-150066334D01*
X79970333Y-149494905D02*
X79970333Y-149971096D01*
X79684619Y-149399667D02*
X80684619Y-149733000D01*
X79684619Y-150066334D01*
X329969857Y-135596334D02*
X329922238Y-135548715D01*
X329874619Y-135405858D01*
X329874619Y-135310620D01*
X329922238Y-135167762D01*
X330017476Y-135072524D01*
X330112714Y-135024905D01*
X330303190Y-134977286D01*
X330446048Y-134977286D01*
X330636524Y-135024905D01*
X330731762Y-135072524D01*
X330827000Y-135167762D01*
X330874619Y-135310620D01*
X330874619Y-135405858D01*
X330827000Y-135548715D01*
X330779381Y-135596334D01*
X330541286Y-136453477D02*
X329874619Y-136453477D01*
X330922238Y-136215381D02*
X330207952Y-135977286D01*
X330207952Y-136596334D01*
X330160333Y-130444905D02*
X330160333Y-130921096D01*
X329874619Y-130349667D02*
X330874619Y-130683000D01*
X329874619Y-131016334D01*
X343209619Y-135596334D02*
X343685810Y-135263000D01*
X343209619Y-135024905D02*
X344209619Y-135024905D01*
X344209619Y-135405858D01*
X344162000Y-135501096D01*
X344114381Y-135548715D01*
X344019143Y-135596334D01*
X343876286Y-135596334D01*
X343781048Y-135548715D01*
X343733429Y-135501096D01*
X343685810Y-135405858D01*
X343685810Y-135024905D01*
X343876286Y-136453477D02*
X343209619Y-136453477D01*
X344257238Y-136215381D02*
X343542952Y-135977286D01*
X343542952Y-136596334D01*
X345479619Y-148923476D02*
X344479619Y-149590143D01*
X345479619Y-149590143D02*
X344479619Y-148923476D01*
X344479619Y-150494905D02*
X344479619Y-149923476D01*
X344479619Y-150209190D02*
X345479619Y-150209190D01*
X345336762Y-150113952D01*
X345241524Y-150018714D01*
X345193905Y-149923476D01*
X355258666Y-157535619D02*
X355592000Y-158011810D01*
X355830095Y-157535619D02*
X355830095Y-158535619D01*
X355449142Y-158535619D01*
X355353904Y-158488000D01*
X355306285Y-158440381D01*
X355258666Y-158345143D01*
X355258666Y-158202286D01*
X355306285Y-158107048D01*
X355353904Y-158059429D01*
X355449142Y-158011810D01*
X355830095Y-158011810D01*
X354353904Y-158535619D02*
X354830095Y-158535619D01*
X354877714Y-158059429D01*
X354830095Y-158107048D01*
X354734857Y-158154667D01*
X354496761Y-158154667D01*
X354401523Y-158107048D01*
X354353904Y-158059429D01*
X354306285Y-157964190D01*
X354306285Y-157726095D01*
X354353904Y-157630857D01*
X354401523Y-157583238D01*
X354496761Y-157535619D01*
X354734857Y-157535619D01*
X354830095Y-157583238D01*
X354877714Y-157630857D01*
X320984619Y-143192524D02*
X321460810Y-142859190D01*
X320984619Y-142621095D02*
X321984619Y-142621095D01*
X321984619Y-143002048D01*
X321937000Y-143097286D01*
X321889381Y-143144905D01*
X321794143Y-143192524D01*
X321651286Y-143192524D01*
X321556048Y-143144905D01*
X321508429Y-143097286D01*
X321460810Y-143002048D01*
X321460810Y-142621095D01*
X320984619Y-143621095D02*
X321984619Y-143621095D01*
X321984619Y-143859190D01*
X321937000Y-144002048D01*
X321841762Y-144097286D01*
X321746524Y-144144905D01*
X321556048Y-144192524D01*
X321413190Y-144192524D01*
X321222714Y-144144905D01*
X321127476Y-144097286D01*
X321032238Y-144002048D01*
X320984619Y-143859190D01*
X320984619Y-143621095D01*
X308173429Y-142954429D02*
X308125810Y-143097286D01*
X308078190Y-143144905D01*
X307982952Y-143192524D01*
X307840095Y-143192524D01*
X307744857Y-143144905D01*
X307697238Y-143097286D01*
X307649619Y-143002048D01*
X307649619Y-142621095D01*
X308649619Y-142621095D01*
X308649619Y-142954429D01*
X308602000Y-143049667D01*
X308554381Y-143097286D01*
X308459143Y-143144905D01*
X308363905Y-143144905D01*
X308268667Y-143097286D01*
X308221048Y-143049667D01*
X308173429Y-142954429D01*
X308173429Y-142621095D01*
X307649619Y-143621095D02*
X308649619Y-143621095D01*
X307649619Y-144192524D02*
X308221048Y-143763952D01*
X308649619Y-144192524D02*
X308078190Y-143621095D01*
X112339381Y-161036095D02*
X112387000Y-161083714D01*
X112434619Y-161178952D01*
X112434619Y-161417048D01*
X112387000Y-161512286D01*
X112339381Y-161559905D01*
X112244143Y-161607524D01*
X112148905Y-161607524D01*
X112006048Y-161559905D01*
X111434619Y-160988476D01*
X111434619Y-161607524D01*
X112434619Y-162226571D02*
X112434619Y-162321810D01*
X112387000Y-162417048D01*
X112339381Y-162464667D01*
X112244143Y-162512286D01*
X112053667Y-162559905D01*
X111815571Y-162559905D01*
X111625095Y-162512286D01*
X111529857Y-162464667D01*
X111482238Y-162417048D01*
X111434619Y-162321810D01*
X111434619Y-162226571D01*
X111482238Y-162131333D01*
X111529857Y-162083714D01*
X111625095Y-162036095D01*
X111815571Y-161988476D01*
X112053667Y-161988476D01*
X112244143Y-162036095D01*
X112339381Y-162083714D01*
X112387000Y-162131333D01*
X112434619Y-162226571D01*
X166044619Y-162083715D02*
X166044619Y-161512286D01*
X166044619Y-161798000D02*
X167044619Y-161798000D01*
X166901762Y-161702762D01*
X166806524Y-161607524D01*
X166758905Y-161512286D01*
X249594619Y-136159905D02*
X249594619Y-135683714D01*
X249118429Y-135636095D01*
X249166048Y-135683714D01*
X249213667Y-135778952D01*
X249213667Y-136017048D01*
X249166048Y-136112286D01*
X249118429Y-136159905D01*
X249023190Y-136207524D01*
X248785095Y-136207524D01*
X248689857Y-136159905D01*
X248642238Y-136112286D01*
X248594619Y-136017048D01*
X248594619Y-135778952D01*
X248642238Y-135683714D01*
X248689857Y-135636095D01*
X249594619Y-136826571D02*
X249594619Y-136921810D01*
X249547000Y-137017048D01*
X249499381Y-137064667D01*
X249404143Y-137112286D01*
X249213667Y-137159905D01*
X248975571Y-137159905D01*
X248785095Y-137112286D01*
X248689857Y-137064667D01*
X248642238Y-137017048D01*
X248594619Y-136921810D01*
X248594619Y-136826571D01*
X248642238Y-136731333D01*
X248689857Y-136683714D01*
X248785095Y-136636095D01*
X248975571Y-136588476D01*
X249213667Y-136588476D01*
X249404143Y-136636095D01*
X249499381Y-136683714D01*
X249547000Y-136731333D01*
X249594619Y-136826571D01*
X309554619Y-123983715D02*
X309554619Y-123412286D01*
X309554619Y-123698000D02*
X310554619Y-123698000D01*
X310411762Y-123602762D01*
X310316524Y-123507524D01*
X310268905Y-123412286D01*
X281614619Y-121920143D02*
X282614619Y-121920143D01*
X282614619Y-122301096D01*
X282567000Y-122396334D01*
X282519381Y-122443953D01*
X282424143Y-122491572D01*
X282281286Y-122491572D01*
X282186048Y-122443953D01*
X282138429Y-122396334D01*
X282090810Y-122301096D01*
X282090810Y-121920143D01*
X281614619Y-123396334D02*
X281614619Y-122920143D01*
X282614619Y-122920143D01*
X281614619Y-124253477D02*
X281614619Y-123682048D01*
X281614619Y-123967762D02*
X282614619Y-123967762D01*
X282471762Y-123872524D01*
X282376524Y-123777286D01*
X282328905Y-123682048D01*
X303045810Y-152908000D02*
X302569619Y-152908000D01*
X303569619Y-152574667D02*
X303045810Y-152908000D01*
X303569619Y-153241334D01*
D12*
X57324571Y-133953714D02*
X55991238Y-133953714D01*
X58086476Y-133477524D02*
X56657905Y-133001333D01*
X56657905Y-134239429D01*
X57991238Y-135953714D02*
X57991238Y-135001333D01*
X57038857Y-134906095D01*
X57134095Y-135001333D01*
X57229333Y-135191810D01*
X57229333Y-135668000D01*
X57134095Y-135858476D01*
X57038857Y-135953714D01*
X56848381Y-136048953D01*
X56372190Y-136048953D01*
X56181714Y-135953714D01*
X56086476Y-135858476D01*
X55991238Y-135668000D01*
X55991238Y-135191810D01*
X56086476Y-135001333D01*
X56181714Y-134906095D01*
X56753143Y-136906095D02*
X56753143Y-138429905D01*
X57324571Y-140239428D02*
X55991238Y-140239428D01*
X58086476Y-139763238D02*
X56657905Y-139287047D01*
X56657905Y-140525143D01*
X57324571Y-142144190D02*
X55991238Y-142144190D01*
X58086476Y-141668000D02*
X56657905Y-141191809D01*
X56657905Y-142429905D01*
D13*
X284064143Y-155988000D02*
X285264143Y-155988000D01*
X284121286Y-156502286D02*
X284064143Y-156673715D01*
X284064143Y-156959429D01*
X284121286Y-157073715D01*
X284178429Y-157130858D01*
X284292714Y-157188001D01*
X284407000Y-157188001D01*
X284521286Y-157130858D01*
X284578429Y-157073715D01*
X284635571Y-156959429D01*
X284692714Y-156730858D01*
X284749857Y-156616572D01*
X284807000Y-156559429D01*
X284921286Y-156502286D01*
X285035571Y-156502286D01*
X285149857Y-156559429D01*
X285207000Y-156616572D01*
X285264143Y-156730858D01*
X285264143Y-157016572D01*
X285207000Y-157188001D01*
X284121286Y-157645143D02*
X284064143Y-157816572D01*
X284064143Y-158102286D01*
X284121286Y-158216572D01*
X284178429Y-158273715D01*
X284292714Y-158330858D01*
X284407000Y-158330858D01*
X284521286Y-158273715D01*
X284578429Y-158216572D01*
X284635571Y-158102286D01*
X284692714Y-157873715D01*
X284749857Y-157759429D01*
X284807000Y-157702286D01*
X284921286Y-157645143D01*
X285035571Y-157645143D01*
X285149857Y-157702286D01*
X285207000Y-157759429D01*
X285264143Y-157873715D01*
X285264143Y-158159429D01*
X285207000Y-158330858D01*
X284178429Y-158845143D02*
X284121286Y-158902286D01*
X284064143Y-158845143D01*
X284121286Y-158788000D01*
X284178429Y-158845143D01*
X284064143Y-158845143D01*
X285149857Y-159359429D02*
X285207000Y-159416572D01*
X285264143Y-159530858D01*
X285264143Y-159816572D01*
X285207000Y-159930858D01*
X285149857Y-159988001D01*
X285035571Y-160045144D01*
X284921286Y-160045144D01*
X284749857Y-159988001D01*
X284064143Y-159302287D01*
X284064143Y-160045144D01*
X285264143Y-142980287D02*
X285264143Y-143104096D01*
X285207000Y-143227906D01*
X285149857Y-143289811D01*
X285035571Y-143351715D01*
X284807000Y-143413620D01*
X284521286Y-143413620D01*
X284292714Y-143351715D01*
X284178429Y-143289811D01*
X284121286Y-143227906D01*
X284064143Y-143104096D01*
X284064143Y-142980287D01*
X284121286Y-142856477D01*
X284178429Y-142794573D01*
X284292714Y-142732668D01*
X284521286Y-142670763D01*
X284807000Y-142670763D01*
X285035571Y-142732668D01*
X285149857Y-142794573D01*
X285207000Y-142856477D01*
X285264143Y-142980287D01*
X284064143Y-144651715D02*
X284064143Y-143908858D01*
X284064143Y-144280287D02*
X285264143Y-144280287D01*
X285092714Y-144156477D01*
X284978429Y-144032668D01*
X284921286Y-143908858D01*
X285264143Y-145766001D02*
X285264143Y-145518382D01*
X285207000Y-145394572D01*
X285149857Y-145332667D01*
X284978429Y-145208858D01*
X284749857Y-145146953D01*
X284292714Y-145146953D01*
X284178429Y-145208858D01*
X284121286Y-145270763D01*
X284064143Y-145394572D01*
X284064143Y-145642191D01*
X284121286Y-145766001D01*
X284178429Y-145827905D01*
X284292714Y-145889810D01*
X284578429Y-145889810D01*
X284692714Y-145827905D01*
X284749857Y-145766001D01*
X284807000Y-145642191D01*
X284807000Y-145394572D01*
X284749857Y-145270763D01*
X284692714Y-145208858D01*
X284578429Y-145146953D01*
X284064143Y-147127905D02*
X284064143Y-146385048D01*
X284064143Y-146756477D02*
X285264143Y-146756477D01*
X285092714Y-146632667D01*
X284978429Y-146508858D01*
X284921286Y-146385048D01*
X284121286Y-147746953D02*
X284064143Y-147746953D01*
X283949857Y-147685048D01*
X283892714Y-147623143D01*
X285264143Y-148551715D02*
X285264143Y-148675524D01*
X285207000Y-148799334D01*
X285149857Y-148861239D01*
X285035571Y-148923143D01*
X284807000Y-148985048D01*
X284521286Y-148985048D01*
X284292714Y-148923143D01*
X284178429Y-148861239D01*
X284121286Y-148799334D01*
X284064143Y-148675524D01*
X284064143Y-148551715D01*
X284121286Y-148427905D01*
X284178429Y-148366001D01*
X284292714Y-148304096D01*
X284521286Y-148242191D01*
X284807000Y-148242191D01*
X285035571Y-148304096D01*
X285149857Y-148366001D01*
X285207000Y-148427905D01*
X285264143Y-148551715D01*
X285264143Y-149789810D02*
X285264143Y-149913619D01*
X285207000Y-150037429D01*
X285149857Y-150099334D01*
X285035571Y-150161238D01*
X284807000Y-150223143D01*
X284521286Y-150223143D01*
X284292714Y-150161238D01*
X284178429Y-150099334D01*
X284121286Y-150037429D01*
X284064143Y-149913619D01*
X284064143Y-149789810D01*
X284121286Y-149666000D01*
X284178429Y-149604096D01*
X284292714Y-149542191D01*
X284521286Y-149480286D01*
X284807000Y-149480286D01*
X285035571Y-149542191D01*
X285149857Y-149604096D01*
X285207000Y-149666000D01*
X285264143Y-149789810D01*
X285264143Y-151027905D02*
X285264143Y-151151714D01*
X285207000Y-151275524D01*
X285149857Y-151337429D01*
X285035571Y-151399333D01*
X284807000Y-151461238D01*
X284521286Y-151461238D01*
X284292714Y-151399333D01*
X284178429Y-151337429D01*
X284121286Y-151275524D01*
X284064143Y-151151714D01*
X284064143Y-151027905D01*
X284121286Y-150904095D01*
X284178429Y-150842191D01*
X284292714Y-150780286D01*
X284521286Y-150718381D01*
X284807000Y-150718381D01*
X285035571Y-150780286D01*
X285149857Y-150842191D01*
X285207000Y-150904095D01*
X285264143Y-151027905D01*
D14*
X286972476Y-142686763D02*
X286877238Y-143001048D01*
X286877238Y-143524858D01*
X286972476Y-143734382D01*
X287067714Y-143839144D01*
X287258190Y-143943905D01*
X287448667Y-143943905D01*
X287639143Y-143839144D01*
X287734381Y-143734382D01*
X287829619Y-143524858D01*
X287924857Y-143105810D01*
X288020095Y-142896286D01*
X288115333Y-142791525D01*
X288305810Y-142686763D01*
X288496286Y-142686763D01*
X288686762Y-142791525D01*
X288782000Y-142896286D01*
X288877238Y-143105810D01*
X288877238Y-143629620D01*
X288782000Y-143943905D01*
X287067714Y-144886763D02*
X286972476Y-144991524D01*
X286877238Y-144886763D01*
X286972476Y-144782001D01*
X287067714Y-144886763D01*
X286877238Y-144886763D01*
X287067714Y-147191524D02*
X286972476Y-147086762D01*
X286877238Y-146772477D01*
X286877238Y-146562953D01*
X286972476Y-146248667D01*
X287162952Y-146039143D01*
X287353429Y-145934382D01*
X287734381Y-145829620D01*
X288020095Y-145829620D01*
X288401048Y-145934382D01*
X288591524Y-146039143D01*
X288782000Y-146248667D01*
X288877238Y-146562953D01*
X288877238Y-146772477D01*
X288782000Y-147086762D01*
X288686762Y-147191524D01*
X287067714Y-148134382D02*
X286972476Y-148239143D01*
X286877238Y-148134382D01*
X286972476Y-148029620D01*
X287067714Y-148134382D01*
X286877238Y-148134382D01*
X286972476Y-149077239D02*
X286877238Y-149391524D01*
X286877238Y-149915334D01*
X286972476Y-150124858D01*
X287067714Y-150229620D01*
X287258190Y-150334381D01*
X287448667Y-150334381D01*
X287639143Y-150229620D01*
X287734381Y-150124858D01*
X287829619Y-149915334D01*
X287924857Y-149496286D01*
X288020095Y-149286762D01*
X288115333Y-149182001D01*
X288305810Y-149077239D01*
X288496286Y-149077239D01*
X288686762Y-149182001D01*
X288782000Y-149286762D01*
X288877238Y-149496286D01*
X288877238Y-150020096D01*
X288782000Y-150334381D01*
X287067714Y-151277239D02*
X286972476Y-151382000D01*
X286877238Y-151277239D01*
X286972476Y-151172477D01*
X287067714Y-151277239D01*
X286877238Y-151277239D01*
X286877238Y-152324858D02*
X288877238Y-152324858D01*
X287067714Y-153372477D02*
X286972476Y-153477238D01*
X286877238Y-153372477D01*
X286972476Y-153267715D01*
X287067714Y-153372477D01*
X286877238Y-153372477D01*
D15*
X87182000Y-151043000D02*
X82062000Y-151043000D01*
X87182000Y-148423000D02*
X82062000Y-148423000D01*
X87182000Y-151043000D02*
X87182000Y-150729000D01*
X87182000Y-148737000D02*
X87182000Y-148423000D01*
X82062000Y-151043000D02*
X82062000Y-150729000D01*
X82062000Y-148737000D02*
X82062000Y-148423000D01*
X104962000Y-151043000D02*
X99842000Y-151043000D01*
X104962000Y-148423000D02*
X99842000Y-148423000D01*
X104962000Y-151043000D02*
X104962000Y-150729000D01*
X104962000Y-148737000D02*
X104962000Y-148423000D01*
X99842000Y-151043000D02*
X99842000Y-150729000D01*
X99842000Y-148737000D02*
X99842000Y-148423000D01*
X122107000Y-151043000D02*
X116987000Y-151043000D01*
X122107000Y-148423000D02*
X116987000Y-148423000D01*
X122107000Y-151043000D02*
X122107000Y-150729000D01*
X122107000Y-148737000D02*
X122107000Y-148423000D01*
X116987000Y-151043000D02*
X116987000Y-150729000D01*
X116987000Y-148737000D02*
X116987000Y-148423000D01*
X139252000Y-151043000D02*
X134132000Y-151043000D01*
X139252000Y-148423000D02*
X134132000Y-148423000D01*
X139252000Y-151043000D02*
X139252000Y-150729000D01*
X139252000Y-148737000D02*
X139252000Y-148423000D01*
X134132000Y-151043000D02*
X134132000Y-150729000D01*
X134132000Y-148737000D02*
X134132000Y-148423000D01*
X178622000Y-163108000D02*
X173502000Y-163108000D01*
X178622000Y-160488000D02*
X173502000Y-160488000D01*
X178622000Y-163108000D02*
X178622000Y-162794000D01*
X178622000Y-160802000D02*
X178622000Y-160488000D01*
X173502000Y-163108000D02*
X173502000Y-162794000D01*
X173502000Y-160802000D02*
X173502000Y-160488000D01*
X196402000Y-163108000D02*
X191282000Y-163108000D01*
X196402000Y-160488000D02*
X191282000Y-160488000D01*
X196402000Y-163108000D02*
X196402000Y-162794000D01*
X196402000Y-160802000D02*
X196402000Y-160488000D01*
X191282000Y-163108000D02*
X191282000Y-162794000D01*
X191282000Y-160802000D02*
X191282000Y-160488000D01*
X337372000Y-131993000D02*
X332252000Y-131993000D01*
X337372000Y-129373000D02*
X332252000Y-129373000D01*
X337372000Y-131993000D02*
X337372000Y-131679000D01*
X337372000Y-129687000D02*
X337372000Y-129373000D01*
X332252000Y-131993000D02*
X332252000Y-131679000D01*
X332252000Y-129687000D02*
X332252000Y-129373000D01*
X150562000Y-148423000D02*
X155682000Y-148423000D01*
X150562000Y-151043000D02*
X155682000Y-151043000D01*
X150562000Y-148423000D02*
X150562000Y-148737000D01*
X150562000Y-150729000D02*
X150562000Y-151043000D01*
X155682000Y-148423000D02*
X155682000Y-148737000D01*
X155682000Y-150729000D02*
X155682000Y-151043000D01*
X213217000Y-132528000D02*
G75*
G02X211217000Y-132528000I-1000000J0D01*
G01*
X211217000Y-132528000D02*
X209567000Y-132528000D01*
X209567000Y-132528000D02*
X209567000Y-158048000D01*
X209567000Y-158048000D02*
X214867000Y-158048000D01*
X214867000Y-158048000D02*
X214867000Y-132528000D01*
X214867000Y-132528000D02*
X213217000Y-132528000D01*
X194802000Y-132528000D02*
G75*
G02X192802000Y-132528000I-1000000J0D01*
G01*
X192802000Y-132528000D02*
X191152000Y-132528000D01*
X191152000Y-132528000D02*
X191152000Y-158048000D01*
X191152000Y-158048000D02*
X196452000Y-158048000D01*
X196452000Y-158048000D02*
X196452000Y-132528000D01*
X196452000Y-132528000D02*
X194802000Y-132528000D01*
X177022000Y-132528000D02*
G75*
G02X175022000Y-132528000I-1000000J0D01*
G01*
X175022000Y-132528000D02*
X173372000Y-132528000D01*
X173372000Y-132528000D02*
X173372000Y-158048000D01*
X173372000Y-158048000D02*
X178672000Y-158048000D01*
X178672000Y-158048000D02*
X178672000Y-132528000D01*
X178672000Y-132528000D02*
X177022000Y-132528000D01*
X85582000Y-126178000D02*
G75*
G02X83582000Y-126178000I-1000000J0D01*
G01*
X83582000Y-126178000D02*
X81932000Y-126178000D01*
X81932000Y-126178000D02*
X81932000Y-146618000D01*
X81932000Y-146618000D02*
X87232000Y-146618000D01*
X87232000Y-146618000D02*
X87232000Y-126178000D01*
X87232000Y-126178000D02*
X85582000Y-126178000D01*
X137652000Y-128718000D02*
G75*
G02X135652000Y-128718000I-1000000J0D01*
G01*
X135652000Y-128718000D02*
X134002000Y-128718000D01*
X134002000Y-128718000D02*
X134002000Y-146618000D01*
X134002000Y-146618000D02*
X139302000Y-146618000D01*
X139302000Y-146618000D02*
X139302000Y-128718000D01*
X139302000Y-128718000D02*
X137652000Y-128718000D01*
X158607000Y-128718000D02*
G75*
G02X156607000Y-128718000I-1000000J0D01*
G01*
X156607000Y-128718000D02*
X154957000Y-128718000D01*
X154957000Y-128718000D02*
X154957000Y-146618000D01*
X154957000Y-146618000D02*
X160257000Y-146618000D01*
X160257000Y-146618000D02*
X160257000Y-128718000D01*
X160257000Y-128718000D02*
X158607000Y-128718000D01*
X103362000Y-128718000D02*
G75*
G02X101362000Y-128718000I-1000000J0D01*
G01*
X101362000Y-128718000D02*
X99712000Y-128718000D01*
X99712000Y-128718000D02*
X99712000Y-146618000D01*
X99712000Y-146618000D02*
X105012000Y-146618000D01*
X105012000Y-146618000D02*
X105012000Y-128718000D01*
X105012000Y-128718000D02*
X103362000Y-128718000D01*
X120507000Y-126178000D02*
G75*
G02X118507000Y-126178000I-1000000J0D01*
G01*
X118507000Y-126178000D02*
X116857000Y-126178000D01*
X116857000Y-126178000D02*
X116857000Y-146618000D01*
X116857000Y-146618000D02*
X122157000Y-146618000D01*
X122157000Y-146618000D02*
X122157000Y-126178000D01*
X122157000Y-126178000D02*
X120507000Y-126178000D01*
X358252000Y-131028000D02*
X346102000Y-131028000D01*
X359002000Y-151178000D02*
X359002000Y-131778000D01*
X346852000Y-151928000D02*
X358252000Y-151928000D01*
X346102000Y-131028000D02*
X346102000Y-151178000D01*
X346102000Y-151178000D02*
G75*
G03X346852000Y-151928000I750000J0D01*
G01*
X358252000Y-151928000D02*
G75*
G03X359002000Y-151178000I0J750000D01*
G01*
X359002000Y-131778000D02*
G75*
G03X358252000Y-131028000I-750000J0D01*
G01*
X113732000Y-160468000D02*
X113732000Y-163128000D01*
X162052000Y-160468000D02*
X113732000Y-160468000D01*
X162052000Y-163128000D02*
X113732000Y-163128000D01*
X162052000Y-160468000D02*
X162052000Y-163128000D01*
X163322000Y-160468000D02*
X164652000Y-160468000D01*
X164652000Y-160468000D02*
X164652000Y-161798000D01*
X230362000Y-126178000D02*
G75*
G02X228362000Y-126178000I-1000000J0D01*
G01*
X228362000Y-126178000D02*
X226712000Y-126178000D01*
X226712000Y-126178000D02*
X226712000Y-146618000D01*
X226712000Y-146618000D02*
X232012000Y-146618000D01*
X232012000Y-146618000D02*
X232012000Y-126178000D01*
X232012000Y-126178000D02*
X230362000Y-126178000D01*
D11*
X315077000Y-125578000D02*
X315077000Y-134518000D01*
X315077000Y-134518000D02*
X243977000Y-134518000D01*
X243977000Y-134518000D02*
X243977000Y-125578000D01*
X243977000Y-125578000D02*
X315077000Y-125578000D01*
X281752000Y-125578000D02*
X281752000Y-126878000D01*
X281752000Y-126878000D02*
X313877000Y-126878000D01*
X313877000Y-126878000D02*
X313877000Y-133218000D01*
X313877000Y-133218000D02*
X245177000Y-133218000D01*
X245177000Y-133218000D02*
X245177000Y-126878000D01*
X245177000Y-126878000D02*
X277302000Y-126878000D01*
X277302000Y-126878000D02*
X277302000Y-125578000D01*
X279777000Y-134518000D02*
X279777000Y-134718000D01*
X279777000Y-134718000D02*
X279277000Y-134718000D01*
X279277000Y-134718000D02*
X279277000Y-134518000D01*
X279777000Y-134618000D02*
X279277000Y-134618000D01*
X246897000Y-134518000D02*
X246897000Y-134718000D01*
X246897000Y-134718000D02*
X246397000Y-134718000D01*
X246397000Y-134718000D02*
X246397000Y-134518000D01*
X246897000Y-134618000D02*
X246397000Y-134618000D01*
X312657000Y-134518000D02*
X312657000Y-134718000D01*
X312657000Y-134718000D02*
X312157000Y-134718000D01*
X312157000Y-134718000D02*
X312157000Y-134518000D01*
X312657000Y-134618000D02*
X312157000Y-134618000D01*
X312207000Y-128178000D02*
X312207000Y-129378000D01*
X312207000Y-129378000D02*
X311607000Y-128778000D01*
X311607000Y-128778000D02*
X312207000Y-128178000D01*
D15*
X117241278Y-157897723D02*
G75*
G03X121852580Y-157898000I2305722J1179723D01*
G01*
X117241278Y-155538277D02*
G75*
G02X121852580Y-155538000I2305722J-1179723D01*
G01*
X124247000Y-156718000D02*
X123047000Y-156718000D01*
X123647000Y-157368000D02*
X123647000Y-156068000D01*
X209951278Y-162977723D02*
G75*
G03X214562580Y-162978000I2305722J1179723D01*
G01*
X209951278Y-160618277D02*
G75*
G02X214562580Y-160618000I2305722J-1179723D01*
G01*
X216957000Y-161798000D02*
X215757000Y-161798000D01*
X216357000Y-162448000D02*
X216357000Y-161148000D01*
X332506278Y-136942723D02*
G75*
G03X337117580Y-136943000I2305722J1179723D01*
G01*
X332506278Y-134583277D02*
G75*
G02X337117580Y-134583000I2305722J-1179723D01*
G01*
X339512000Y-135763000D02*
X338312000Y-135763000D01*
X338912000Y-136413000D02*
X338912000Y-135113000D01*
X95802000Y-130528000D02*
X93682000Y-130528000D01*
X93682000Y-130528000D02*
X93682000Y-134648000D01*
X93682000Y-134648000D02*
X95802000Y-134648000D01*
X95802000Y-134648000D02*
X95802000Y-130528000D01*
X94742000Y-128488000D02*
X94742000Y-130528000D01*
X94742000Y-136688000D02*
X94742000Y-134648000D01*
X95802000Y-131188000D02*
X93682000Y-131188000D01*
X142327000Y-138338000D02*
X144947000Y-138338000D01*
X144947000Y-138338000D02*
X144947000Y-131918000D01*
X144947000Y-131918000D02*
X142327000Y-131918000D01*
X142327000Y-131918000D02*
X142327000Y-138338000D01*
X143637000Y-139228000D02*
X143637000Y-138338000D01*
X143637000Y-131028000D02*
X143637000Y-131918000D01*
X151927000Y-126278000D02*
X151927000Y-123658000D01*
X151927000Y-123658000D02*
X145507000Y-123658000D01*
X145507000Y-123658000D02*
X145507000Y-126278000D01*
X145507000Y-126278000D02*
X151927000Y-126278000D01*
X152817000Y-124968000D02*
X151927000Y-124968000D01*
X144617000Y-124968000D02*
X145507000Y-124968000D01*
X108037000Y-138338000D02*
X110657000Y-138338000D01*
X110657000Y-138338000D02*
X110657000Y-131918000D01*
X110657000Y-131918000D02*
X108037000Y-131918000D01*
X108037000Y-131918000D02*
X108037000Y-138338000D01*
X109347000Y-139228000D02*
X109347000Y-138338000D01*
X109347000Y-131028000D02*
X109347000Y-131918000D01*
X339812000Y-138973000D02*
X342432000Y-138973000D01*
X342432000Y-138973000D02*
X342432000Y-132553000D01*
X342432000Y-132553000D02*
X339812000Y-132553000D01*
X339812000Y-132553000D02*
X339812000Y-138973000D01*
X341122000Y-139863000D02*
X341122000Y-138973000D01*
X341122000Y-131663000D02*
X341122000Y-132553000D01*
X349342000Y-154138000D02*
X349342000Y-156758000D01*
X349342000Y-156758000D02*
X355762000Y-156758000D01*
X355762000Y-156758000D02*
X355762000Y-154138000D01*
X355762000Y-154138000D02*
X349342000Y-154138000D01*
X348452000Y-155448000D02*
X349342000Y-155448000D01*
X356652000Y-155448000D02*
X355762000Y-155448000D01*
X92627000Y-130528000D02*
X90507000Y-130528000D01*
X90507000Y-130528000D02*
X90507000Y-134648000D01*
X90507000Y-134648000D02*
X92627000Y-134648000D01*
X92627000Y-134648000D02*
X92627000Y-130528000D01*
X91567000Y-128488000D02*
X91567000Y-130528000D01*
X91567000Y-136688000D02*
X91567000Y-134648000D01*
X92627000Y-131188000D02*
X90507000Y-131188000D01*
X316127000Y-151508000D02*
X319127000Y-151508000D01*
X319127000Y-151508000D02*
X319127000Y-154358000D01*
X316127000Y-151508000D02*
X316127000Y-154358000D01*
X316127000Y-154358000D02*
X319127000Y-154358000D01*
X304697000Y-151508000D02*
X307697000Y-151508000D01*
X307697000Y-151508000D02*
X307697000Y-154358000D01*
X304697000Y-151508000D02*
X304697000Y-154358000D01*
X304697000Y-154358000D02*
X307697000Y-154358000D01*
X310412000Y-151508000D02*
X313412000Y-151508000D01*
X313412000Y-151508000D02*
X313412000Y-154358000D01*
X310412000Y-151508000D02*
X310412000Y-154358000D01*
X310412000Y-154358000D02*
X313412000Y-154358000D01*
D11*
X315087000Y-148463000D02*
X315087000Y-138303000D01*
X315087000Y-138303000D02*
X320167000Y-138303000D01*
X320167000Y-138303000D02*
X320167000Y-148463000D01*
X320167000Y-148463000D02*
X315087000Y-148463000D01*
X309372000Y-148463000D02*
X309372000Y-138303000D01*
X309372000Y-138303000D02*
X314452000Y-138303000D01*
X314452000Y-138303000D02*
X314452000Y-148463000D01*
X314452000Y-148463000D02*
X309372000Y-148463000D01*
D16*
G36*
X292837792Y-145719159D02*
X292745831Y-145908425D01*
X292664683Y-146009396D01*
X292459936Y-146187790D01*
X292200046Y-146305841D01*
X291860592Y-146371044D01*
X291421533Y-146390895D01*
X290965166Y-146350382D01*
X290591517Y-146235224D01*
X290309536Y-146054998D01*
X290128175Y-145819278D01*
X290056386Y-145537638D01*
X290103120Y-145219653D01*
X290171709Y-145054053D01*
X290370951Y-144802065D01*
X290675702Y-144624668D01*
X291078426Y-144525092D01*
X291448925Y-144503954D01*
X291448925Y-145014646D01*
X291153531Y-145052057D01*
X290893590Y-145131289D01*
X290698377Y-145242366D01*
X290597167Y-145375315D01*
X290589368Y-145424639D01*
X290628501Y-145534411D01*
X290706342Y-145651582D01*
X290880246Y-145777502D01*
X291143226Y-145863244D01*
X291454255Y-145899352D01*
X291719007Y-145884925D01*
X292034546Y-145812965D01*
X292231399Y-145698675D01*
X292319892Y-145534757D01*
X292327263Y-145455106D01*
X292275263Y-145265518D01*
X292113935Y-145130213D01*
X291835286Y-145043286D01*
X291750496Y-145029030D01*
X291448925Y-145014646D01*
X291448925Y-144503954D01*
X291456367Y-144503529D01*
X291958642Y-144545667D01*
X292349962Y-144662082D01*
X292630693Y-144853028D01*
X292801199Y-145118758D01*
X292861844Y-145459525D01*
X292862000Y-145479803D01*
X292837792Y-145719159D01*
X292837792Y-145719159D01*
G37*
X292837792Y-145719159D02*
X292745831Y-145908425D01*
X292664683Y-146009396D01*
X292459936Y-146187790D01*
X292200046Y-146305841D01*
X291860592Y-146371044D01*
X291421533Y-146390895D01*
X290965166Y-146350382D01*
X290591517Y-146235224D01*
X290309536Y-146054998D01*
X290128175Y-145819278D01*
X290056386Y-145537638D01*
X290103120Y-145219653D01*
X290171709Y-145054053D01*
X290370951Y-144802065D01*
X290675702Y-144624668D01*
X291078426Y-144525092D01*
X291448925Y-144503954D01*
X291448925Y-145014646D01*
X291153531Y-145052057D01*
X290893590Y-145131289D01*
X290698377Y-145242366D01*
X290597167Y-145375315D01*
X290589368Y-145424639D01*
X290628501Y-145534411D01*
X290706342Y-145651582D01*
X290880246Y-145777502D01*
X291143226Y-145863244D01*
X291454255Y-145899352D01*
X291719007Y-145884925D01*
X292034546Y-145812965D01*
X292231399Y-145698675D01*
X292319892Y-145534757D01*
X292327263Y-145455106D01*
X292275263Y-145265518D01*
X292113935Y-145130213D01*
X291835286Y-145043286D01*
X291750496Y-145029030D01*
X291448925Y-145014646D01*
X291448925Y-144503954D01*
X291456367Y-144503529D01*
X291958642Y-144545667D01*
X292349962Y-144662082D01*
X292630693Y-144853028D01*
X292801199Y-145118758D01*
X292861844Y-145459525D01*
X292862000Y-145479803D01*
X292837792Y-145719159D01*
G36*
X292906826Y-143437294D02*
X292811734Y-143753819D01*
X292602511Y-144009902D01*
X292288205Y-144197046D01*
X292005616Y-144283540D01*
X291784232Y-144331233D01*
X291805090Y-144049323D01*
X291830046Y-143865491D01*
X291892304Y-143766389D01*
X292026776Y-143703084D01*
X292059895Y-143692180D01*
X292223483Y-143618751D01*
X292296328Y-143509926D01*
X292314507Y-143403472D01*
X292308080Y-143241973D01*
X292225281Y-143139398D01*
X292134011Y-143085972D01*
X291911097Y-143015618D01*
X291630367Y-142989646D01*
X291328472Y-143003678D01*
X291042066Y-143053333D01*
X290807800Y-143134233D01*
X290662328Y-143241998D01*
X290648642Y-143263458D01*
X290609624Y-143451625D01*
X290688292Y-143613539D01*
X290868650Y-143723773D01*
X290951727Y-143745233D01*
X291106200Y-143784741D01*
X291174041Y-143855136D01*
X291190651Y-144002176D01*
X291190947Y-144054450D01*
X291181676Y-144225381D01*
X291137715Y-144300863D01*
X291034849Y-144318717D01*
X291021695Y-144318790D01*
X290762528Y-144271026D01*
X290485727Y-144146761D01*
X290271868Y-143989833D01*
X290181390Y-143875264D01*
X290135607Y-143725585D01*
X290121627Y-143495070D01*
X290121474Y-143456353D01*
X290130895Y-143217857D01*
X290169947Y-143061425D01*
X290254809Y-142936114D01*
X290302695Y-142885798D01*
X290524669Y-142704118D01*
X290779905Y-142584037D01*
X291099726Y-142515641D01*
X291515455Y-142489019D01*
X291558579Y-142488334D01*
X291893708Y-142491810D01*
X292135081Y-142516005D01*
X292321755Y-142566396D01*
X292418707Y-142608966D01*
X292701396Y-142809916D01*
X292866480Y-143071128D01*
X292910674Y-143387028D01*
X292906826Y-143437294D01*
X292906826Y-143437294D01*
G37*
X292906826Y-143437294D02*
X292811734Y-143753819D01*
X292602511Y-144009902D01*
X292288205Y-144197046D01*
X292005616Y-144283540D01*
X291784232Y-144331233D01*
X291805090Y-144049323D01*
X291830046Y-143865491D01*
X291892304Y-143766389D01*
X292026776Y-143703084D01*
X292059895Y-143692180D01*
X292223483Y-143618751D01*
X292296328Y-143509926D01*
X292314507Y-143403472D01*
X292308080Y-143241973D01*
X292225281Y-143139398D01*
X292134011Y-143085972D01*
X291911097Y-143015618D01*
X291630367Y-142989646D01*
X291328472Y-143003678D01*
X291042066Y-143053333D01*
X290807800Y-143134233D01*
X290662328Y-143241998D01*
X290648642Y-143263458D01*
X290609624Y-143451625D01*
X290688292Y-143613539D01*
X290868650Y-143723773D01*
X290951727Y-143745233D01*
X291106200Y-143784741D01*
X291174041Y-143855136D01*
X291190651Y-144002176D01*
X291190947Y-144054450D01*
X291181676Y-144225381D01*
X291137715Y-144300863D01*
X291034849Y-144318717D01*
X291021695Y-144318790D01*
X290762528Y-144271026D01*
X290485727Y-144146761D01*
X290271868Y-143989833D01*
X290181390Y-143875264D01*
X290135607Y-143725585D01*
X290121627Y-143495070D01*
X290121474Y-143456353D01*
X290130895Y-143217857D01*
X290169947Y-143061425D01*
X290254809Y-142936114D01*
X290302695Y-142885798D01*
X290524669Y-142704118D01*
X290779905Y-142584037D01*
X291099726Y-142515641D01*
X291515455Y-142489019D01*
X291558579Y-142488334D01*
X291893708Y-142491810D01*
X292135081Y-142516005D01*
X292321755Y-142566396D01*
X292418707Y-142608966D01*
X292701396Y-142809916D01*
X292866480Y-143071128D01*
X292910674Y-143387028D01*
X292906826Y-143437294D01*
G36*
X292848863Y-148381618D02*
X292828579Y-148696948D01*
X292126737Y-148730369D01*
X291735059Y-148742887D01*
X291299747Y-148747270D01*
X290895856Y-148743021D01*
X290773184Y-148739305D01*
X290121474Y-148714820D01*
X290121474Y-148529864D01*
X290137544Y-148417799D01*
X290199682Y-148341913D01*
X290328781Y-148295438D01*
X290545734Y-148271608D01*
X290871433Y-148263656D01*
X290944234Y-148263387D01*
X291220290Y-148255074D01*
X291384126Y-148232262D01*
X291425357Y-148196414D01*
X291424895Y-148195632D01*
X291329077Y-148136172D01*
X291275107Y-148128790D01*
X291161980Y-148112054D01*
X290959375Y-148067679D01*
X290706451Y-148004416D01*
X290644052Y-147987783D01*
X290375181Y-147909160D01*
X290214183Y-147843677D01*
X290137642Y-147779291D01*
X290121474Y-147718982D01*
X290177534Y-147597556D01*
X290271868Y-147532412D01*
X290490226Y-147455435D01*
X290744416Y-147377769D01*
X290990252Y-147311584D01*
X291183547Y-147269049D01*
X291261521Y-147259842D01*
X291386002Y-147230043D01*
X291423984Y-147164897D01*
X291354863Y-147100780D01*
X291352202Y-147099741D01*
X291239207Y-147081039D01*
X291031566Y-147066924D01*
X290768299Y-147059758D01*
X290684165Y-147059316D01*
X290121474Y-147059316D01*
X290121474Y-146600994D01*
X292779410Y-146587630D01*
X292825720Y-146896441D01*
X292844805Y-147088492D01*
X292840082Y-147221070D01*
X292829253Y-147249258D01*
X292750135Y-147284209D01*
X292571406Y-147342967D01*
X292322945Y-147416118D01*
X292139108Y-147466684D01*
X291867053Y-147545182D01*
X291651343Y-147618116D01*
X291519481Y-147675555D01*
X291491737Y-147700423D01*
X291552164Y-147741776D01*
X291712217Y-147796811D01*
X291940047Y-147854983D01*
X291993761Y-147866661D01*
X292347066Y-147940739D01*
X292590172Y-147995814D01*
X292742929Y-148043842D01*
X292825188Y-148096778D01*
X292856802Y-148166575D01*
X292857619Y-148265190D01*
X292848863Y-148381618D01*
X292848863Y-148381618D01*
G37*
X292848863Y-148381618D02*
X292828579Y-148696948D01*
X292126737Y-148730369D01*
X291735059Y-148742887D01*
X291299747Y-148747270D01*
X290895856Y-148743021D01*
X290773184Y-148739305D01*
X290121474Y-148714820D01*
X290121474Y-148529864D01*
X290137544Y-148417799D01*
X290199682Y-148341913D01*
X290328781Y-148295438D01*
X290545734Y-148271608D01*
X290871433Y-148263656D01*
X290944234Y-148263387D01*
X291220290Y-148255074D01*
X291384126Y-148232262D01*
X291425357Y-148196414D01*
X291424895Y-148195632D01*
X291329077Y-148136172D01*
X291275107Y-148128790D01*
X291161980Y-148112054D01*
X290959375Y-148067679D01*
X290706451Y-148004416D01*
X290644052Y-147987783D01*
X290375181Y-147909160D01*
X290214183Y-147843677D01*
X290137642Y-147779291D01*
X290121474Y-147718982D01*
X290177534Y-147597556D01*
X290271868Y-147532412D01*
X290490226Y-147455435D01*
X290744416Y-147377769D01*
X290990252Y-147311584D01*
X291183547Y-147269049D01*
X291261521Y-147259842D01*
X291386002Y-147230043D01*
X291423984Y-147164897D01*
X291354863Y-147100780D01*
X291352202Y-147099741D01*
X291239207Y-147081039D01*
X291031566Y-147066924D01*
X290768299Y-147059758D01*
X290684165Y-147059316D01*
X290121474Y-147059316D01*
X290121474Y-146600994D01*
X292779410Y-146587630D01*
X292825720Y-146896441D01*
X292844805Y-147088492D01*
X292840082Y-147221070D01*
X292829253Y-147249258D01*
X292750135Y-147284209D01*
X292571406Y-147342967D01*
X292322945Y-147416118D01*
X292139108Y-147466684D01*
X291867053Y-147545182D01*
X291651343Y-147618116D01*
X291519481Y-147675555D01*
X291491737Y-147700423D01*
X291552164Y-147741776D01*
X291712217Y-147796811D01*
X291940047Y-147854983D01*
X291993761Y-147866661D01*
X292347066Y-147940739D01*
X292590172Y-147995814D01*
X292742929Y-148043842D01*
X292825188Y-148096778D01*
X292856802Y-148166575D01*
X292857619Y-148265190D01*
X292848863Y-148381618D01*
G36*
X292831906Y-149838908D02*
X292736218Y-150141631D01*
X292566830Y-150348397D01*
X292315636Y-150471571D01*
X292155388Y-150505894D01*
X291827708Y-150508216D01*
X291535691Y-150424407D01*
X291304638Y-150269945D01*
X291159852Y-150060310D01*
X291123082Y-149874381D01*
X291096117Y-149673670D01*
X291002135Y-149562736D01*
X290817075Y-149522271D01*
X290684400Y-149522374D01*
X290402987Y-149520966D01*
X290230348Y-149484105D01*
X290144013Y-149401786D01*
X290121474Y-149271742D01*
X290136127Y-149120332D01*
X290166035Y-149042299D01*
X290243637Y-149028653D01*
X290433916Y-149016696D01*
X290715869Y-149007112D01*
X291068490Y-149000582D01*
X291470778Y-148997791D01*
X291536298Y-148997737D01*
X292064905Y-148997737D01*
X292064905Y-149479750D01*
X291837551Y-149490416D01*
X291816908Y-149495349D01*
X291693884Y-149556395D01*
X291668265Y-149680288D01*
X291671338Y-149711879D01*
X291725477Y-149869398D01*
X291798891Y-149953338D01*
X291941306Y-149988320D01*
X292082970Y-149975517D01*
X292215314Y-149911943D01*
X292259049Y-149783149D01*
X292260421Y-149736231D01*
X292209649Y-149563745D01*
X292064905Y-149479750D01*
X292064905Y-148997737D01*
X292862000Y-148997737D01*
X292862000Y-149427859D01*
X292831906Y-149838908D01*
X292831906Y-149838908D01*
G37*
X292831906Y-149838908D02*
X292736218Y-150141631D01*
X292566830Y-150348397D01*
X292315636Y-150471571D01*
X292155388Y-150505894D01*
X291827708Y-150508216D01*
X291535691Y-150424407D01*
X291304638Y-150269945D01*
X291159852Y-150060310D01*
X291123082Y-149874381D01*
X291096117Y-149673670D01*
X291002135Y-149562736D01*
X290817075Y-149522271D01*
X290684400Y-149522374D01*
X290402987Y-149520966D01*
X290230348Y-149484105D01*
X290144013Y-149401786D01*
X290121474Y-149271742D01*
X290136127Y-149120332D01*
X290166035Y-149042299D01*
X290243637Y-149028653D01*
X290433916Y-149016696D01*
X290715869Y-149007112D01*
X291068490Y-149000582D01*
X291470778Y-148997791D01*
X291536298Y-148997737D01*
X292064905Y-148997737D01*
X292064905Y-149479750D01*
X291837551Y-149490416D01*
X291816908Y-149495349D01*
X291693884Y-149556395D01*
X291668265Y-149680288D01*
X291671338Y-149711879D01*
X291725477Y-149869398D01*
X291798891Y-149953338D01*
X291941306Y-149988320D01*
X292082970Y-149975517D01*
X292215314Y-149911943D01*
X292259049Y-149783149D01*
X292260421Y-149736231D01*
X292209649Y-149563745D01*
X292064905Y-149479750D01*
X292064905Y-148997737D01*
X292862000Y-148997737D01*
X292862000Y-149427859D01*
X292831906Y-149838908D01*
G36*
X291762250Y-152273000D02*
X291291308Y-152269463D01*
X290934773Y-152256010D01*
X290673489Y-152228378D01*
X290488298Y-152182305D01*
X290360044Y-152113527D01*
X290269569Y-152017782D01*
X290216724Y-151929096D01*
X290136032Y-151673155D01*
X290120480Y-151381903D01*
X290167250Y-151107677D01*
X290271868Y-150904699D01*
X290427039Y-150780368D01*
X290654423Y-150699778D01*
X290804865Y-150670812D01*
X291031746Y-150644774D01*
X291325046Y-150625623D01*
X291654453Y-150613585D01*
X291989656Y-150608888D01*
X292300343Y-150611758D01*
X292556201Y-150622422D01*
X292726920Y-150641108D01*
X292775561Y-150656065D01*
X292828805Y-150752807D01*
X292841047Y-150904898D01*
X292825867Y-151103263D01*
X291775907Y-151121664D01*
X291375983Y-151130018D01*
X291089208Y-151140601D01*
X290895049Y-151156058D01*
X290772973Y-151179031D01*
X290702446Y-151212164D01*
X290662934Y-151258099D01*
X290658836Y-151265463D01*
X290628632Y-151451915D01*
X290663927Y-151597984D01*
X290736130Y-151805106D01*
X292862000Y-151805106D01*
X292862000Y-152273000D01*
X291762250Y-152273000D01*
X291762250Y-152273000D01*
G37*
X291762250Y-152273000D02*
X291291308Y-152269463D01*
X290934773Y-152256010D01*
X290673489Y-152228378D01*
X290488298Y-152182305D01*
X290360044Y-152113527D01*
X290269569Y-152017782D01*
X290216724Y-151929096D01*
X290136032Y-151673155D01*
X290120480Y-151381903D01*
X290167250Y-151107677D01*
X290271868Y-150904699D01*
X290427039Y-150780368D01*
X290654423Y-150699778D01*
X290804865Y-150670812D01*
X291031746Y-150644774D01*
X291325046Y-150625623D01*
X291654453Y-150613585D01*
X291989656Y-150608888D01*
X292300343Y-150611758D01*
X292556201Y-150622422D01*
X292726920Y-150641108D01*
X292775561Y-150656065D01*
X292828805Y-150752807D01*
X292841047Y-150904898D01*
X292825867Y-151103263D01*
X291775907Y-151121664D01*
X291375983Y-151130018D01*
X291089208Y-151140601D01*
X290895049Y-151156058D01*
X290772973Y-151179031D01*
X290702446Y-151212164D01*
X290662934Y-151258099D01*
X290658836Y-151265463D01*
X290628632Y-151451915D01*
X290663927Y-151597984D01*
X290736130Y-151805106D01*
X292862000Y-151805106D01*
X292862000Y-152273000D01*
X291762250Y-152273000D01*
G36*
X292604332Y-153877211D02*
X292432578Y-153867344D01*
X292348420Y-153814383D01*
X292306011Y-153683287D01*
X292298252Y-153643263D01*
X292254363Y-153409316D01*
X291538840Y-153402154D01*
X291220419Y-153397526D01*
X290932287Y-153390757D01*
X290713007Y-153382886D01*
X290622790Y-153377427D01*
X290420610Y-153361250D01*
X290271868Y-153351168D01*
X290168862Y-153322583D01*
X290127191Y-153227064D01*
X290121474Y-153108527D01*
X290121474Y-152874579D01*
X292260421Y-152874579D01*
X292260421Y-152398998D01*
X292828579Y-152440106D01*
X292847551Y-153158658D01*
X292866523Y-153877211D01*
X292604332Y-153877211D01*
X292604332Y-153877211D01*
G37*
X292604332Y-153877211D02*
X292432578Y-153867344D01*
X292348420Y-153814383D01*
X292306011Y-153683287D01*
X292298252Y-153643263D01*
X292254363Y-153409316D01*
X291538840Y-153402154D01*
X291220419Y-153397526D01*
X290932287Y-153390757D01*
X290713007Y-153382886D01*
X290622790Y-153377427D01*
X290420610Y-153361250D01*
X290271868Y-153351168D01*
X290168862Y-153322583D01*
X290127191Y-153227064D01*
X290121474Y-153108527D01*
X290121474Y-152874579D01*
X292260421Y-152874579D01*
X292260421Y-152398998D01*
X292828579Y-152440106D01*
X292847551Y-153158658D01*
X292866523Y-153877211D01*
X292604332Y-153877211D01*
G36*
X292327263Y-155347737D02*
X292327263Y-155026302D01*
X292297386Y-154728799D01*
X292207614Y-154550602D01*
X292057732Y-154491397D01*
X291973741Y-154502697D01*
X291875899Y-154536972D01*
X291825657Y-154600432D01*
X291809501Y-154729011D01*
X291812946Y-154930316D01*
X291825947Y-155314316D01*
X291575290Y-155335062D01*
X291412028Y-155341377D01*
X291340294Y-155299345D01*
X291320199Y-155172698D01*
X291317969Y-155101114D01*
X291299089Y-154814815D01*
X291250813Y-154637419D01*
X291158317Y-154544940D01*
X291006776Y-154513393D01*
X290953987Y-154512211D01*
X290689632Y-154512211D01*
X290669552Y-154936889D01*
X290655486Y-155166065D01*
X290632936Y-155288966D01*
X290590030Y-155332957D01*
X290514898Y-155325404D01*
X290502447Y-155322144D01*
X290329253Y-155289115D01*
X290238447Y-155281808D01*
X290182169Y-155266293D01*
X290147284Y-155204172D01*
X290128887Y-155070476D01*
X290122072Y-154840236D01*
X290121474Y-154686467D01*
X290125943Y-154390075D01*
X290142124Y-154202164D01*
X290174179Y-154097746D01*
X290226267Y-154051832D01*
X290227204Y-154051467D01*
X290325068Y-154038695D01*
X290533682Y-154027572D01*
X290830117Y-154018779D01*
X291191444Y-154012994D01*
X291594731Y-154010895D01*
X292862000Y-154010895D01*
X292862000Y-155347737D01*
X292327263Y-155347737D01*
X292327263Y-155347737D01*
G37*
X292327263Y-155347737D02*
X292327263Y-155026302D01*
X292297386Y-154728799D01*
X292207614Y-154550602D01*
X292057732Y-154491397D01*
X291973741Y-154502697D01*
X291875899Y-154536972D01*
X291825657Y-154600432D01*
X291809501Y-154729011D01*
X291812946Y-154930316D01*
X291825947Y-155314316D01*
X291575290Y-155335062D01*
X291412028Y-155341377D01*
X291340294Y-155299345D01*
X291320199Y-155172698D01*
X291317969Y-155101114D01*
X291299089Y-154814815D01*
X291250813Y-154637419D01*
X291158317Y-154544940D01*
X291006776Y-154513393D01*
X290953987Y-154512211D01*
X290689632Y-154512211D01*
X290669552Y-154936889D01*
X290655486Y-155166065D01*
X290632936Y-155288966D01*
X290590030Y-155332957D01*
X290514898Y-155325404D01*
X290502447Y-155322144D01*
X290329253Y-155289115D01*
X290238447Y-155281808D01*
X290182169Y-155266293D01*
X290147284Y-155204172D01*
X290128887Y-155070476D01*
X290122072Y-154840236D01*
X290121474Y-154686467D01*
X290125943Y-154390075D01*
X290142124Y-154202164D01*
X290174179Y-154097746D01*
X290226267Y-154051832D01*
X290227204Y-154051467D01*
X290325068Y-154038695D01*
X290533682Y-154027572D01*
X290830117Y-154018779D01*
X291191444Y-154012994D01*
X291594731Y-154010895D01*
X292862000Y-154010895D01*
X292862000Y-155347737D01*
X292327263Y-155347737D01*
G36*
X292838929Y-156393961D02*
X292762875Y-156664876D01*
X292623579Y-156855325D01*
X292437080Y-156976355D01*
X292088936Y-157075534D01*
X291751457Y-157046649D01*
X291445017Y-156893602D01*
X291297188Y-156758027D01*
X291169798Y-156617262D01*
X290682205Y-156884868D01*
X290454322Y-157007684D01*
X290273722Y-157100805D01*
X290170209Y-157149014D01*
X290158043Y-157152474D01*
X290125224Y-157096202D01*
X290119997Y-156961833D01*
X290137837Y-156801040D01*
X290174218Y-156665496D01*
X290205026Y-156615964D01*
X290306252Y-156544508D01*
X290481914Y-156435896D01*
X290641798Y-156343296D01*
X290821135Y-156229429D01*
X290933592Y-156132468D01*
X290955353Y-156080336D01*
X290872148Y-156046010D01*
X290697071Y-156022722D01*
X290518582Y-156016158D01*
X290121474Y-156016158D01*
X290121474Y-155548263D01*
X291954323Y-155548263D01*
X291954323Y-156016158D01*
X291650772Y-156016158D01*
X291671518Y-156265599D01*
X291706135Y-156445171D01*
X291792240Y-156542161D01*
X291877522Y-156579799D01*
X292072115Y-156589293D01*
X292226714Y-156496422D01*
X292307479Y-156332360D01*
X292301341Y-156189345D01*
X292258976Y-156081699D01*
X292176085Y-156030970D01*
X292011318Y-156016521D01*
X291954323Y-156016158D01*
X291954323Y-155548263D01*
X292862000Y-155548263D01*
X292862000Y-156019478D01*
X292838929Y-156393961D01*
X292838929Y-156393961D01*
G37*
X292838929Y-156393961D02*
X292762875Y-156664876D01*
X292623579Y-156855325D01*
X292437080Y-156976355D01*
X292088936Y-157075534D01*
X291751457Y-157046649D01*
X291445017Y-156893602D01*
X291297188Y-156758027D01*
X291169798Y-156617262D01*
X290682205Y-156884868D01*
X290454322Y-157007684D01*
X290273722Y-157100805D01*
X290170209Y-157149014D01*
X290158043Y-157152474D01*
X290125224Y-157096202D01*
X290119997Y-156961833D01*
X290137837Y-156801040D01*
X290174218Y-156665496D01*
X290205026Y-156615964D01*
X290306252Y-156544508D01*
X290481914Y-156435896D01*
X290641798Y-156343296D01*
X290821135Y-156229429D01*
X290933592Y-156132468D01*
X290955353Y-156080336D01*
X290872148Y-156046010D01*
X290697071Y-156022722D01*
X290518582Y-156016158D01*
X290121474Y-156016158D01*
X290121474Y-155548263D01*
X291954323Y-155548263D01*
X291954323Y-156016158D01*
X291650772Y-156016158D01*
X291671518Y-156265599D01*
X291706135Y-156445171D01*
X291792240Y-156542161D01*
X291877522Y-156579799D01*
X292072115Y-156589293D01*
X292226714Y-156496422D01*
X292307479Y-156332360D01*
X292301341Y-156189345D01*
X292258976Y-156081699D01*
X292176085Y-156030970D01*
X292011318Y-156016521D01*
X291954323Y-156016158D01*
X291954323Y-155548263D01*
X292862000Y-155548263D01*
X292862000Y-156019478D01*
X292838929Y-156393961D01*
G36*
X297071766Y-146101634D02*
X297068080Y-146683169D01*
X297062253Y-147206583D01*
X297054546Y-147658622D01*
X297045219Y-148026035D01*
X297034530Y-148295567D01*
X297022739Y-148453967D01*
X297013950Y-148491638D01*
X296896238Y-148506340D01*
X296688730Y-148480205D01*
X296425953Y-148421538D01*
X296142436Y-148338643D01*
X295872707Y-148239825D01*
X295760235Y-148190107D01*
X295231943Y-147867389D01*
X294772573Y-147441486D01*
X294399274Y-146932468D01*
X294129194Y-146360403D01*
X294086298Y-146231227D01*
X293981241Y-145957062D01*
X293864657Y-145801923D01*
X293721678Y-145751194D01*
X293612956Y-145765845D01*
X293516248Y-145834043D01*
X293409220Y-145999295D01*
X293282322Y-146276908D01*
X293260050Y-146331502D01*
X293128460Y-146641488D01*
X293032654Y-146827151D01*
X292969588Y-146892085D01*
X292936217Y-146839888D01*
X292928842Y-146722793D01*
X292900982Y-146555853D01*
X292805434Y-146480009D01*
X292795158Y-146477105D01*
X292690131Y-146431546D01*
X292668213Y-146399810D01*
X292696970Y-146325199D01*
X292769690Y-146155663D01*
X292874765Y-145917863D01*
X292977642Y-145689053D01*
X293076483Y-145456864D01*
X293198482Y-145148911D01*
X293335782Y-144787385D01*
X293480522Y-144394475D01*
X293624845Y-143992372D01*
X293760891Y-143603265D01*
X293880800Y-143249344D01*
X293976714Y-142952799D01*
X294040774Y-142735821D01*
X294065121Y-142620598D01*
X294065158Y-142618461D01*
X294101884Y-142491051D01*
X294186423Y-142382405D01*
X294280313Y-142332511D01*
X294325513Y-142347777D01*
X294336859Y-142441908D01*
X294307172Y-142656535D01*
X294237879Y-142985392D01*
X294130409Y-143422213D01*
X293986192Y-143960733D01*
X293838041Y-144485895D01*
X293771680Y-144729392D01*
X293714969Y-144958716D01*
X293697717Y-145037342D01*
X293677723Y-145185294D01*
X293716438Y-145244410D01*
X293820024Y-145254579D01*
X293932584Y-145234363D01*
X293994721Y-145149357D01*
X294031068Y-144991173D01*
X294126313Y-144656604D01*
X294295116Y-144277866D01*
X294512632Y-143901278D01*
X294754016Y-143573160D01*
X294846191Y-143471477D01*
X295153568Y-143210588D01*
X295538584Y-142964494D01*
X295958491Y-142754787D01*
X296370542Y-142603061D01*
X296703068Y-142533536D01*
X297073053Y-142495350D01*
X297073053Y-145475230D01*
X297071766Y-146101634D01*
X297071766Y-146101634D01*
G37*
X297071766Y-146101634D02*
X297068080Y-146683169D01*
X297062253Y-147206583D01*
X297054546Y-147658622D01*
X297045219Y-148026035D01*
X297034530Y-148295567D01*
X297022739Y-148453967D01*
X297013950Y-148491638D01*
X296896238Y-148506340D01*
X296688730Y-148480205D01*
X296425953Y-148421538D01*
X296142436Y-148338643D01*
X295872707Y-148239825D01*
X295760235Y-148190107D01*
X295231943Y-147867389D01*
X294772573Y-147441486D01*
X294399274Y-146932468D01*
X294129194Y-146360403D01*
X294086298Y-146231227D01*
X293981241Y-145957062D01*
X293864657Y-145801923D01*
X293721678Y-145751194D01*
X293612956Y-145765845D01*
X293516248Y-145834043D01*
X293409220Y-145999295D01*
X293282322Y-146276908D01*
X293260050Y-146331502D01*
X293128460Y-146641488D01*
X293032654Y-146827151D01*
X292969588Y-146892085D01*
X292936217Y-146839888D01*
X292928842Y-146722793D01*
X292900982Y-146555853D01*
X292805434Y-146480009D01*
X292795158Y-146477105D01*
X292690131Y-146431546D01*
X292668213Y-146399810D01*
X292696970Y-146325199D01*
X292769690Y-146155663D01*
X292874765Y-145917863D01*
X292977642Y-145689053D01*
X293076483Y-145456864D01*
X293198482Y-145148911D01*
X293335782Y-144787385D01*
X293480522Y-144394475D01*
X293624845Y-143992372D01*
X293760891Y-143603265D01*
X293880800Y-143249344D01*
X293976714Y-142952799D01*
X294040774Y-142735821D01*
X294065121Y-142620598D01*
X294065158Y-142618461D01*
X294101884Y-142491051D01*
X294186423Y-142382405D01*
X294280313Y-142332511D01*
X294325513Y-142347777D01*
X294336859Y-142441908D01*
X294307172Y-142656535D01*
X294237879Y-142985392D01*
X294130409Y-143422213D01*
X293986192Y-143960733D01*
X293838041Y-144485895D01*
X293771680Y-144729392D01*
X293714969Y-144958716D01*
X293697717Y-145037342D01*
X293677723Y-145185294D01*
X293716438Y-145244410D01*
X293820024Y-145254579D01*
X293932584Y-145234363D01*
X293994721Y-145149357D01*
X294031068Y-144991173D01*
X294126313Y-144656604D01*
X294295116Y-144277866D01*
X294512632Y-143901278D01*
X294754016Y-143573160D01*
X294846191Y-143471477D01*
X295153568Y-143210588D01*
X295538584Y-142964494D01*
X295958491Y-142754787D01*
X296370542Y-142603061D01*
X296703068Y-142533536D01*
X297073053Y-142495350D01*
X297073053Y-145475230D01*
X297071766Y-146101634D01*
G36*
X296107183Y-150641068D02*
X296007807Y-150862887D01*
X295817274Y-151073330D01*
X295575756Y-151236037D01*
X295370511Y-151307837D01*
X295141189Y-151331798D01*
X295015838Y-151289478D01*
X294977280Y-151171118D01*
X294983991Y-151088225D01*
X295043875Y-150929783D01*
X295189740Y-150840578D01*
X295218310Y-150831376D01*
X295430962Y-150721671D01*
X295522996Y-150555940D01*
X295511434Y-150380741D01*
X295408158Y-150231941D01*
X295196096Y-150130823D01*
X294893189Y-150082504D01*
X294517377Y-150092104D01*
X294504244Y-150093435D01*
X294161504Y-150156310D01*
X293926963Y-150260030D01*
X293809798Y-150399708D01*
X293797790Y-150469804D01*
X293856260Y-150640942D01*
X294000587Y-150787089D01*
X294184145Y-150865370D01*
X294232263Y-150869316D01*
X294345270Y-150886795D01*
X294391532Y-150965451D01*
X294399368Y-151103263D01*
X294388254Y-151260406D01*
X294331472Y-151324861D01*
X294196695Y-151337211D01*
X293908873Y-151290008D01*
X293629083Y-151166920D01*
X293441204Y-151017414D01*
X293320960Y-150791706D01*
X293285002Y-150510866D01*
X293337118Y-150226490D01*
X293376526Y-150136327D01*
X293539401Y-149915625D01*
X293775913Y-149757825D01*
X294106961Y-149651972D01*
X294390586Y-149604844D01*
X294850241Y-149585260D01*
X295280910Y-149638362D01*
X295644978Y-149758047D01*
X295772642Y-149829089D01*
X295958024Y-150020700D01*
X296080243Y-150284102D01*
X296116350Y-150563596D01*
X296107183Y-150641068D01*
X296107183Y-150641068D01*
G37*
X296107183Y-150641068D02*
X296007807Y-150862887D01*
X295817274Y-151073330D01*
X295575756Y-151236037D01*
X295370511Y-151307837D01*
X295141189Y-151331798D01*
X295015838Y-151289478D01*
X294977280Y-151171118D01*
X294983991Y-151088225D01*
X295043875Y-150929783D01*
X295189740Y-150840578D01*
X295218310Y-150831376D01*
X295430962Y-150721671D01*
X295522996Y-150555940D01*
X295511434Y-150380741D01*
X295408158Y-150231941D01*
X295196096Y-150130823D01*
X294893189Y-150082504D01*
X294517377Y-150092104D01*
X294504244Y-150093435D01*
X294161504Y-150156310D01*
X293926963Y-150260030D01*
X293809798Y-150399708D01*
X293797790Y-150469804D01*
X293856260Y-150640942D01*
X294000587Y-150787089D01*
X294184145Y-150865370D01*
X294232263Y-150869316D01*
X294345270Y-150886795D01*
X294391532Y-150965451D01*
X294399368Y-151103263D01*
X294388254Y-151260406D01*
X294331472Y-151324861D01*
X294196695Y-151337211D01*
X293908873Y-151290008D01*
X293629083Y-151166920D01*
X293441204Y-151017414D01*
X293320960Y-150791706D01*
X293285002Y-150510866D01*
X293337118Y-150226490D01*
X293376526Y-150136327D01*
X293539401Y-149915625D01*
X293775913Y-149757825D01*
X294106961Y-149651972D01*
X294390586Y-149604844D01*
X294850241Y-149585260D01*
X295280910Y-149638362D01*
X295644978Y-149758047D01*
X295772642Y-149829089D01*
X295958024Y-150020700D01*
X296080243Y-150284102D01*
X296116350Y-150563596D01*
X296107183Y-150641068D01*
G36*
X296050302Y-152658836D02*
X295925305Y-152927869D01*
X295703398Y-153155513D01*
X295396384Y-153321594D01*
X295201474Y-153378128D01*
X294870827Y-153418759D01*
X294500641Y-153417773D01*
X294147977Y-153378260D01*
X293877573Y-153306432D01*
X293574476Y-153127500D01*
X293367293Y-152884699D01*
X293265242Y-152601320D01*
X293277539Y-152300653D01*
X293381805Y-152053662D01*
X293574301Y-151858822D01*
X293865650Y-151709193D01*
X294226694Y-151611457D01*
X294628273Y-151572298D01*
X294683940Y-151575816D01*
X294683940Y-152073485D01*
X294385844Y-152081279D01*
X294129145Y-152123026D01*
X294007846Y-152167809D01*
X293841841Y-152311389D01*
X293797841Y-152491565D01*
X293879500Y-152682767D01*
X293926656Y-152736077D01*
X294115890Y-152846779D01*
X294388839Y-152911625D01*
X294703293Y-152929651D01*
X295017046Y-152899893D01*
X295287890Y-152821386D01*
X295385290Y-152769397D01*
X295509639Y-152621076D01*
X295521566Y-152437762D01*
X295420360Y-152257893D01*
X295395188Y-152233415D01*
X295231755Y-152151593D01*
X294980291Y-152097603D01*
X294683940Y-152073485D01*
X294683940Y-151575816D01*
X295041229Y-151598398D01*
X295219693Y-151632435D01*
X295539913Y-151726818D01*
X295760947Y-151844893D01*
X295917256Y-152007306D01*
X295962372Y-152077293D01*
X296066591Y-152368586D01*
X296050302Y-152658836D01*
X296050302Y-152658836D01*
G37*
X296050302Y-152658836D02*
X295925305Y-152927869D01*
X295703398Y-153155513D01*
X295396384Y-153321594D01*
X295201474Y-153378128D01*
X294870827Y-153418759D01*
X294500641Y-153417773D01*
X294147977Y-153378260D01*
X293877573Y-153306432D01*
X293574476Y-153127500D01*
X293367293Y-152884699D01*
X293265242Y-152601320D01*
X293277539Y-152300653D01*
X293381805Y-152053662D01*
X293574301Y-151858822D01*
X293865650Y-151709193D01*
X294226694Y-151611457D01*
X294628273Y-151572298D01*
X294683940Y-151575816D01*
X294683940Y-152073485D01*
X294385844Y-152081279D01*
X294129145Y-152123026D01*
X294007846Y-152167809D01*
X293841841Y-152311389D01*
X293797841Y-152491565D01*
X293879500Y-152682767D01*
X293926656Y-152736077D01*
X294115890Y-152846779D01*
X294388839Y-152911625D01*
X294703293Y-152929651D01*
X295017046Y-152899893D01*
X295287890Y-152821386D01*
X295385290Y-152769397D01*
X295509639Y-152621076D01*
X295521566Y-152437762D01*
X295420360Y-152257893D01*
X295395188Y-152233415D01*
X295231755Y-152151593D01*
X294980291Y-152097603D01*
X294683940Y-152073485D01*
X294683940Y-151575816D01*
X295041229Y-151598398D01*
X295219693Y-151632435D01*
X295539913Y-151726818D01*
X295760947Y-151844893D01*
X295917256Y-152007306D01*
X295962372Y-152077293D01*
X296066591Y-152368586D01*
X296050302Y-152658836D01*
G36*
X296060136Y-149233509D02*
X296007463Y-149301785D01*
X295875943Y-149339057D01*
X295760302Y-149356283D01*
X295584672Y-149371127D01*
X295307386Y-149383711D01*
X294960463Y-149393046D01*
X294575926Y-149398141D01*
X294386004Y-149398790D01*
X293321825Y-149398790D01*
X293342570Y-149148132D01*
X293375956Y-148983391D01*
X293432507Y-148894037D01*
X293446868Y-148889119D01*
X293582550Y-148877963D01*
X293664105Y-148872408D01*
X293751816Y-148843053D01*
X293790524Y-148745837D01*
X293797790Y-148594430D01*
X293782108Y-148407231D01*
X293711396Y-148289289D01*
X293563842Y-148186775D01*
X293408915Y-148076755D01*
X293342792Y-147955551D01*
X293329895Y-147787977D01*
X293339096Y-147622937D01*
X293362014Y-147532853D01*
X293370385Y-147527211D01*
X293438988Y-147556554D01*
X293608764Y-147638757D01*
X293862244Y-147765074D01*
X294181954Y-147926763D01*
X294465142Y-148071493D01*
X294465142Y-148636234D01*
X294409148Y-148644717D01*
X294408605Y-148726659D01*
X294411607Y-148748425D01*
X294461417Y-148859313D01*
X294593403Y-148910904D01*
X294657186Y-148918954D01*
X294813926Y-148912483D01*
X294853924Y-148861589D01*
X294780267Y-148781117D01*
X294609925Y-148691670D01*
X294465142Y-148636234D01*
X294465142Y-148071493D01*
X294550426Y-148115080D01*
X294739440Y-148212342D01*
X295169557Y-148434783D01*
X295495192Y-148606123D01*
X295730889Y-148736128D01*
X295891186Y-148834569D01*
X295990628Y-148911213D01*
X296043754Y-148975829D01*
X296065106Y-149038184D01*
X296069213Y-149105625D01*
X296060136Y-149233509D01*
X296060136Y-149233509D01*
G37*
X296060136Y-149233509D02*
X296007463Y-149301785D01*
X295875943Y-149339057D01*
X295760302Y-149356283D01*
X295584672Y-149371127D01*
X295307386Y-149383711D01*
X294960463Y-149393046D01*
X294575926Y-149398141D01*
X294386004Y-149398790D01*
X293321825Y-149398790D01*
X293342570Y-149148132D01*
X293375956Y-148983391D01*
X293432507Y-148894037D01*
X293446868Y-148889119D01*
X293582550Y-148877963D01*
X293664105Y-148872408D01*
X293751816Y-148843053D01*
X293790524Y-148745837D01*
X293797790Y-148594430D01*
X293782108Y-148407231D01*
X293711396Y-148289289D01*
X293563842Y-148186775D01*
X293408915Y-148076755D01*
X293342792Y-147955551D01*
X293329895Y-147787977D01*
X293339096Y-147622937D01*
X293362014Y-147532853D01*
X293370385Y-147527211D01*
X293438988Y-147556554D01*
X293608764Y-147638757D01*
X293862244Y-147765074D01*
X294181954Y-147926763D01*
X294465142Y-148071493D01*
X294465142Y-148636234D01*
X294409148Y-148644717D01*
X294408605Y-148726659D01*
X294411607Y-148748425D01*
X294461417Y-148859313D01*
X294593403Y-148910904D01*
X294657186Y-148918954D01*
X294813926Y-148912483D01*
X294853924Y-148861589D01*
X294780267Y-148781117D01*
X294609925Y-148691670D01*
X294465142Y-148636234D01*
X294465142Y-148071493D01*
X294550426Y-148115080D01*
X294739440Y-148212342D01*
X295169557Y-148434783D01*
X295495192Y-148606123D01*
X295730889Y-148736128D01*
X295891186Y-148834569D01*
X295990628Y-148911213D01*
X296043754Y-148975829D01*
X296065106Y-149038184D01*
X296069213Y-149105625D01*
X296060136Y-149233509D01*
G36*
X296008293Y-153995619D02*
X296004194Y-154242487D01*
X296004146Y-154244842D01*
X295992219Y-154506375D01*
X295961382Y-154677705D01*
X295899343Y-154802149D01*
X295819058Y-154896976D01*
X295553290Y-155086780D01*
X295244431Y-155166299D01*
X294925443Y-155135190D01*
X294629289Y-154993109D01*
X294530064Y-154910400D01*
X294341474Y-154729719D01*
X293835684Y-155002539D01*
X293329895Y-155275358D01*
X293330931Y-154994048D01*
X293337847Y-154838300D01*
X293375327Y-154734140D01*
X293470603Y-154646805D01*
X293650906Y-154541535D01*
X293710673Y-154509301D01*
X293963105Y-154363081D01*
X294091015Y-154258994D01*
X294094793Y-154191546D01*
X293974828Y-154155241D01*
X293736518Y-154144579D01*
X293329895Y-154144579D01*
X293329895Y-153917362D01*
X293337128Y-153779878D01*
X293382338Y-153709424D01*
X293500791Y-153677813D01*
X293647395Y-153663601D01*
X293828323Y-153652890D01*
X294109460Y-153641519D01*
X294457344Y-153630618D01*
X294838512Y-153621319D01*
X294984237Y-153618456D01*
X295164018Y-153616192D01*
X295164018Y-154144579D01*
X294859193Y-154144579D01*
X294879939Y-154394681D01*
X294918864Y-154581525D01*
X295002979Y-154662851D01*
X295022945Y-154667969D01*
X295184836Y-154670285D01*
X295307024Y-154650541D01*
X295419999Y-154596086D01*
X295464141Y-154480876D01*
X295468842Y-154377253D01*
X295462524Y-154234959D01*
X295419474Y-154167119D01*
X295303553Y-154146146D01*
X295164018Y-154144579D01*
X295164018Y-153616192D01*
X295388632Y-153613363D01*
X295676327Y-153615944D01*
X295864145Y-153627347D01*
X295968909Y-153648720D01*
X296007445Y-153681214D01*
X296008651Y-153688401D01*
X296009894Y-153796629D01*
X296008293Y-153995619D01*
X296008293Y-153995619D01*
G37*
X296008293Y-153995619D02*
X296004194Y-154242487D01*
X296004146Y-154244842D01*
X295992219Y-154506375D01*
X295961382Y-154677705D01*
X295899343Y-154802149D01*
X295819058Y-154896976D01*
X295553290Y-155086780D01*
X295244431Y-155166299D01*
X294925443Y-155135190D01*
X294629289Y-154993109D01*
X294530064Y-154910400D01*
X294341474Y-154729719D01*
X293835684Y-155002539D01*
X293329895Y-155275358D01*
X293330931Y-154994048D01*
X293337847Y-154838300D01*
X293375327Y-154734140D01*
X293470603Y-154646805D01*
X293650906Y-154541535D01*
X293710673Y-154509301D01*
X293963105Y-154363081D01*
X294091015Y-154258994D01*
X294094793Y-154191546D01*
X293974828Y-154155241D01*
X293736518Y-154144579D01*
X293329895Y-154144579D01*
X293329895Y-153917362D01*
X293337128Y-153779878D01*
X293382338Y-153709424D01*
X293500791Y-153677813D01*
X293647395Y-153663601D01*
X293828323Y-153652890D01*
X294109460Y-153641519D01*
X294457344Y-153630618D01*
X294838512Y-153621319D01*
X294984237Y-153618456D01*
X295164018Y-153616192D01*
X295164018Y-154144579D01*
X294859193Y-154144579D01*
X294879939Y-154394681D01*
X294918864Y-154581525D01*
X295002979Y-154662851D01*
X295022945Y-154667969D01*
X295184836Y-154670285D01*
X295307024Y-154650541D01*
X295419999Y-154596086D01*
X295464141Y-154480876D01*
X295468842Y-154377253D01*
X295462524Y-154234959D01*
X295419474Y-154167119D01*
X295303553Y-154146146D01*
X295164018Y-154144579D01*
X295164018Y-153616192D01*
X295388632Y-153613363D01*
X295676327Y-153615944D01*
X295864145Y-153627347D01*
X295968909Y-153648720D01*
X296007445Y-153681214D01*
X296008651Y-153688401D01*
X296009894Y-153796629D01*
X296008293Y-153995619D01*
G36*
X295435421Y-156213190D02*
X295173549Y-156339570D01*
X294964183Y-156449985D01*
X294832687Y-156530475D01*
X294800421Y-156562717D01*
X294862413Y-156586359D01*
X295029039Y-156604912D01*
X295271272Y-156615861D01*
X295435421Y-156617737D01*
X296070421Y-156617737D01*
X296070421Y-157085632D01*
X293329895Y-157085632D01*
X293329895Y-156882208D01*
X293337083Y-156789705D01*
X293372801Y-156714797D01*
X293458283Y-156641236D01*
X293614760Y-156552779D01*
X293863464Y-156433178D01*
X293998316Y-156370771D01*
X294267643Y-156242033D01*
X294485062Y-156129294D01*
X294625830Y-156045967D01*
X294666737Y-156008457D01*
X294604675Y-155983576D01*
X294437593Y-155960475D01*
X294194149Y-155942383D01*
X294015026Y-155935026D01*
X293363316Y-155915895D01*
X293342838Y-155704931D01*
X293343795Y-155551096D01*
X293374220Y-155468379D01*
X293376259Y-155467207D01*
X293456859Y-155458135D01*
X293649892Y-155448559D01*
X293934112Y-155439163D01*
X294288273Y-155430633D01*
X294691129Y-155423656D01*
X294750290Y-155422841D01*
X296070421Y-155405237D01*
X296070421Y-155918682D01*
X295435421Y-156213190D01*
X295435421Y-156213190D01*
G37*
X295435421Y-156213190D02*
X295173549Y-156339570D01*
X294964183Y-156449985D01*
X294832687Y-156530475D01*
X294800421Y-156562717D01*
X294862413Y-156586359D01*
X295029039Y-156604912D01*
X295271272Y-156615861D01*
X295435421Y-156617737D01*
X296070421Y-156617737D01*
X296070421Y-157085632D01*
X293329895Y-157085632D01*
X293329895Y-156882208D01*
X293337083Y-156789705D01*
X293372801Y-156714797D01*
X293458283Y-156641236D01*
X293614760Y-156552779D01*
X293863464Y-156433178D01*
X293998316Y-156370771D01*
X294267643Y-156242033D01*
X294485062Y-156129294D01*
X294625830Y-156045967D01*
X294666737Y-156008457D01*
X294604675Y-155983576D01*
X294437593Y-155960475D01*
X294194149Y-155942383D01*
X294015026Y-155935026D01*
X293363316Y-155915895D01*
X293342838Y-155704931D01*
X293343795Y-155551096D01*
X293374220Y-155468379D01*
X293376259Y-155467207D01*
X293456859Y-155458135D01*
X293649892Y-155448559D01*
X293934112Y-155439163D01*
X294288273Y-155430633D01*
X294691129Y-155423656D01*
X294750290Y-155422841D01*
X296070421Y-155405237D01*
X296070421Y-155918682D01*
X295435421Y-156213190D01*
G36*
X303200382Y-145598780D02*
X303147048Y-145876462D01*
X303046595Y-146124277D01*
X302880718Y-146373136D01*
X302631111Y-146653945D01*
X302493750Y-146791948D01*
X301985751Y-147208555D01*
X301383208Y-147550179D01*
X300674829Y-147823065D01*
X300573416Y-147854103D01*
X300156947Y-147965552D01*
X299673505Y-148074863D01*
X299163733Y-148174550D01*
X298668274Y-148257127D01*
X298227772Y-148315110D01*
X297942000Y-148338768D01*
X297574368Y-148356680D01*
X297556931Y-145533811D01*
X297553262Y-144820426D01*
X297552042Y-144230303D01*
X297553520Y-143753041D01*
X297557948Y-143378234D01*
X297565578Y-143095481D01*
X297576659Y-142894377D01*
X297591445Y-142764520D01*
X297610185Y-142695506D01*
X297625879Y-142677792D01*
X297746534Y-142667988D01*
X297973334Y-142681566D01*
X298281533Y-142714708D01*
X298646389Y-142763597D01*
X299043157Y-142824411D01*
X299447095Y-142893334D01*
X299833458Y-142966547D01*
X300177503Y-143040229D01*
X300454485Y-143110564D01*
X300482000Y-143118585D01*
X301146717Y-143347032D01*
X301708013Y-143611453D01*
X302194517Y-143926973D01*
X302509822Y-144189932D01*
X302867616Y-144571038D01*
X303096752Y-144943756D01*
X303201232Y-145316247D01*
X303200382Y-145598780D01*
X303200382Y-145598780D01*
G37*
X303200382Y-145598780D02*
X303147048Y-145876462D01*
X303046595Y-146124277D01*
X302880718Y-146373136D01*
X302631111Y-146653945D01*
X302493750Y-146791948D01*
X301985751Y-147208555D01*
X301383208Y-147550179D01*
X300674829Y-147823065D01*
X300573416Y-147854103D01*
X300156947Y-147965552D01*
X299673505Y-148074863D01*
X299163733Y-148174550D01*
X298668274Y-148257127D01*
X298227772Y-148315110D01*
X297942000Y-148338768D01*
X297574368Y-148356680D01*
X297556931Y-145533811D01*
X297553262Y-144820426D01*
X297552042Y-144230303D01*
X297553520Y-143753041D01*
X297557948Y-143378234D01*
X297565578Y-143095481D01*
X297576659Y-142894377D01*
X297591445Y-142764520D01*
X297610185Y-142695506D01*
X297625879Y-142677792D01*
X297746534Y-142667988D01*
X297973334Y-142681566D01*
X298281533Y-142714708D01*
X298646389Y-142763597D01*
X299043157Y-142824411D01*
X299447095Y-142893334D01*
X299833458Y-142966547D01*
X300177503Y-143040229D01*
X300454485Y-143110564D01*
X300482000Y-143118585D01*
X301146717Y-143347032D01*
X301708013Y-143611453D01*
X302194517Y-143926973D01*
X302509822Y-144189932D01*
X302867616Y-144571038D01*
X303096752Y-144943756D01*
X303201232Y-145316247D01*
X303200382Y-145598780D01*
D11*
X141779381Y-135294666D02*
X141303190Y-135628000D01*
X141779381Y-135866095D02*
X140779381Y-135866095D01*
X140779381Y-135485142D01*
X140827000Y-135389904D01*
X140874619Y-135342285D01*
X140969857Y-135294666D01*
X141112714Y-135294666D01*
X141207952Y-135342285D01*
X141255571Y-135389904D01*
X141303190Y-135485142D01*
X141303190Y-135866095D01*
X141779381Y-134342285D02*
X141779381Y-134913714D01*
X141779381Y-134628000D02*
X140779381Y-134628000D01*
X140922238Y-134723238D01*
X141017476Y-134818476D01*
X141065095Y-134913714D01*
M02*
